<?xml version="1.0" encoding="utf-8"?>
<!-- Generator: Adobe Illustrator 22.0.0, SVG Export Plug-In . SVG Version: 6.00 Build 0)  -->
<svg version="1.1" id="图层_1" xmlns="http://www.w3.org/2000/svg" xmlns:xlink="http://www.w3.org/1999/xlink" x="0px" y="0px"
	 viewBox="0 0 565.8 339.6" style="enable-background:new 0 0 565.8 339.6;" xml:space="preserve">
<style type="text/css">
	.st0{fill:none;stroke:#21A0D8;stroke-width:0.6109;stroke-miterlimit:10;}
	.st1{fill:#21A0D8;}
	.st2{fill:#D5EDFA;stroke:#21A0D8;stroke-width:1.4173;stroke-miterlimit:10;}
	.st3{fill:none;stroke:#49B89A;stroke-width:0.6109;stroke-miterlimit:10;}
	.st4{fill:#49B89A;}
	.st5{fill:#D4ECE9;stroke:#49B89A;stroke-width:1.4173;stroke-miterlimit:10;}
	.st6{fill:none;stroke:#B1B251;stroke-width:0.6109;stroke-miterlimit:10;}
	.st7{fill:#B1B251;}
	.st8{fill:#E9EBDC;stroke:#B1B251;stroke-width:1.4173;stroke-miterlimit:10;}
	.st9{fill:none;stroke:#B38D4C;stroke-width:0.6109;stroke-miterlimit:10;}
	.st10{fill:#B38D4C;}
	.st11{fill:#EBE4D8;stroke:#B38D4C;stroke-width:1.4173;stroke-miterlimit:10;}
	.st12{fill:none;stroke:#AD1B42;stroke-width:0.6109;stroke-miterlimit:10;}
	.st13{fill:#AD1B42;}
	.st14{fill:#E7BCCB;stroke:#AD1B42;stroke-width:1.4173;stroke-miterlimit:10;}
	.st15{fill:none;stroke:#00A0E9;stroke-width:0.6109;stroke-miterlimit:10;}
	.st16{fill:#00A0E9;}
	.st17{fill:none;stroke:#002232;stroke-width:0.6109;stroke-miterlimit:10;}
	.st18{fill:#002232;}
	.st19{fill:#DCDDDD;stroke:#031921;stroke-width:1.4173;stroke-miterlimit:10;}
	.st20{fill:none;stroke:#E11F13;stroke-width:0.6109;stroke-miterlimit:10;}
	.st21{fill:#E11F13;}
	.st22{fill:#FADAD7;stroke:#E11F13;stroke-width:1.4173;stroke-miterlimit:10;}
	.st23{fill:none;stroke:#E4BC3D;stroke-width:0.6109;stroke-miterlimit:10;}
	.st24{fill:#E4BC3D;}
	.st25{fill:#FBEDB7;stroke:#E4BC3D;stroke-width:1.4173;stroke-miterlimit:10;}
	.st26{fill:none;stroke:#6261AA;stroke-width:0.6109;stroke-miterlimit:10;}
	.st27{fill:#6261AA;}
	.st28{fill:#EAE7F3;stroke:#6261AA;stroke-width:1.4173;stroke-miterlimit:10;}
	.st29{fill:none;stroke:#11347B;stroke-width:0.6109;stroke-miterlimit:10;}
	.st30{fill:#11347B;}
	.st31{fill:#A4A8B0;stroke:#11347B;stroke-width:1.4173;stroke-miterlimit:10;}
	.st32{fill:none;stroke:#40B158;stroke-width:0.6109;stroke-miterlimit:10;}
	.st33{fill:#40B158;}
	.st34{fill:#C5E3CC;stroke:#40B158;stroke-width:1.4173;stroke-miterlimit:10;}
	.st35{fill:none;stroke:#7F4F21;stroke-width:0.9921;stroke-miterlimit:10;}
	.st36{fill:none;stroke:#E4BC3D;stroke-width:0.9921;stroke-miterlimit:10;}
	.st37{fill:none;stroke:#6261AA;stroke-width:0.9921;stroke-miterlimit:10;}
	.st38{fill:#C5E3CC;stroke:#40B158;stroke-width:0.9921;stroke-miterlimit:10;}
	.st39{fill:none;stroke:#E11F13;stroke-width:0.9921;stroke-miterlimit:10;}
	.st40{fill:none;stroke:#B1B251;stroke-width:0.9921;stroke-miterlimit:10;}
	.st41{fill:none;stroke:#11347B;stroke-width:0.9921;stroke-miterlimit:10;}
	.st42{fill:none;stroke:#49B89A;stroke-width:0.9921;stroke-miterlimit:10;}
	.st43{fill:none;stroke:#B1B251;stroke-width:0.8982;stroke-miterlimit:10;}
	.st44{fill:#7F4F21;}
	.st45{font-family:'STXingkai';}
	.st46{font-size:10.6032px;}
	.st47{font-family:'TimesNewRomanPS-ItalicMT';}
	.st48{font-family:'Times-Italic';}
	.st49{font-size:6.2323px;}
	.st50{font-family:'AdobeSongStd-Light-GBpc-EUC-H';}
	.st51{font-family:'STKaiti';}
</style>
<circle class="st35" cx="306.1" cy="253.6" r="15.7"/>
<circle class="st36" cx="306.1" cy="201.6" r="15.7"/>
<circle class="st37" cx="41.6" cy="235.9" r="15.7"/>
<circle class="st38" cx="174.3" cy="235.9" r="15.7"/>
<circle class="st39" cx="135" cy="157.2" r="15.7"/>
<circle class="st40" cx="135" cy="46" r="15.7"/>
<circle class="st41" cx="215.8" cy="157.2" r="15.7"/>
<rect x="101.7" y="121.2" class="st42" width="150.1" height="150.1"/>
<g>
	<path d="M175.9,237.6c0.2,0.1,0.3,0.2,0.5,0.3c-0.6,0.6-1.1,1.3-1.8,1.8c-1,0.8-2.1,0.5-2.6-0.8c-0.2-0.5-0.3-1-0.4-1.5
		c-0.5,0.7-0.9,1.3-1.3,1.9c-0.4,0.6-1,0.9-1.7,0.8c-0.5,0-0.8-0.2-1-0.7c-0.1-0.4-0.1-0.9,0.3-1.2c0.4-0.3,0.8-0.3,1.2-0.2
		c0.9,0.4,0.9,0.3,1.5-0.5c0.7-0.9,0.8-1.8,0.5-2.8c-0.1-0.3-0.1-0.7-0.2-1c-0.2-1.3-0.4-1.5-1.7-1.6c0-0.2-0.2-0.5,0.2-0.6
		c0.8-0.1,1.6-0.2,2.4-0.3c0.4-0.1,0.6,0.1,0.8,0.5c0.2,0.6,0.4,1.2,0.6,1.8c0.5-0.6,0.9-1.1,1.4-1.7c0.4-0.5,1-0.7,1.6-0.7
		c0.5,0.1,0.8,0.3,0.9,0.8c0.1,0.4,0.1,0.8-0.3,1.1c-0.4,0.3-0.8,0.4-1.2,0.1c-0.6-0.4-1-0.2-1.4,0.3c0,0.1-0.1,0.1-0.1,0.2
		c-0.5,0.6-0.9,1.2-0.6,2c0.2,0.7,0.3,1.5,0.5,2.3c0.1,0.2,0.3,0.6,0.5,0.6c0.2,0,0.5-0.2,0.7-0.3
		C175.5,238.1,175.7,237.8,175.9,237.6z"/>
	<path d="M178.4,236.4c0.7-0.1,1.4-0.2,2.2-0.4c-0.5,1.8-1,3.5-1.4,5.3c0.8,0,0.9-0.7,1.5-1.1c-0.1,0.6-0.5,1-0.8,1.3
		c-0.3,0.2-0.7,0.4-1,0.4c-0.4,0.1-0.6-0.2-0.6-0.6c0-0.5,0.1-1,0.2-1.5c0.2-0.8,0.4-1.5,0.6-2.3c0.3-0.9,0.3-0.9-0.6-1.1
		C178.4,236.5,178.4,236.4,178.4,236.4z"/>
	<path d="M180.2,233.2c0.5,0,0.8,0.3,0.8,0.8c0,0.4-0.3,0.7-0.7,0.7c-0.4,0-0.6-0.3-0.6-0.7C179.7,233.5,179.9,233.2,180.2,233.2z"
		/>
</g>
<g>
	<path d="M134.8,157.5c0.3-0.5,0.5-0.8,0.7-1.1c0.5-1,1-2,1.5-3.1c0.2-0.5,0.2-1-0.4-1.3c-0.4-0.2-0.6-0.6-0.4-1
		c0.1-0.4,0.5-0.5,0.9-0.5c0.5,0,0.8,0.3,0.9,0.8c0,0.5,0,1-0.1,1.5c-1.3,3.5-3.2,6.7-5.9,9.4c-0.4,0.4-1,0.7-1.6,0.9
		c-0.4,0.1-0.9,0-1-0.5c-0.1-0.3,0.1-0.7,0.3-0.9c0.4-0.3,0.8-0.2,1.2,0.1c0.4,0.3,0.7,0.3,1,0c0.6-0.7,1.2-1.4,1.7-2.1
		c0.2-0.2,0.2-0.7,0.2-0.9c-0.5-1.9-0.9-3.9-1.4-5.8c-0.3-1-0.7-1.7-1.9-1.5c-0.1,0-0.2-0.1-0.2-0.1c0.1-0.1,0.1-0.2,0.2-0.2
		c0.8-0.2,1.6-0.3,2.5-0.4c0.1,0,0.4,0.3,0.5,0.5c0.5,1.5,0.9,3.1,1.4,4.6C134.6,156.2,134.7,156.7,134.8,157.5z"/>
	<path d="M138.8,155.4c0.7-0.1,1.4-0.2,2.2-0.4c-0.5,1.9-1,3.7-1.5,5.5c0.1,0,0.1,0.1,0.2,0.1c0.2-0.2,0.5-0.3,0.7-0.5
		c0.2-0.2,0.4-0.4,0.5-0.6c0.1,0.1,0.1,0.1,0.1,0.1c-0.2,0.7-1.1,1.6-1.7,1.6c-0.6,0-0.9-0.2-0.8-0.8c0-0.5,0.1-1,0.2-1.4
		c0.2-0.8,0.4-1.6,0.6-2.4c0.3-0.9,0.3-0.9-0.6-1.1C138.8,155.5,138.8,155.5,138.8,155.4z"/>
	<path d="M141.5,152.9c0,0.4-0.2,0.7-0.7,0.7c-0.4,0-0.7-0.3-0.7-0.7c0-0.4,0.1-0.7,0.6-0.8C141.3,152.1,141.5,152.4,141.5,152.9z"
		/>
</g>
<g>
	<path d="M211.5,160.8c-0.2-0.2-0.3-0.3-0.5-0.5c1.9-2.3,3.7-4.5,5.6-6.8c-1,0-1.9-0.1-2.8,0c-0.3,0-0.7,0.4-0.9,0.7
		c-0.2,0.3-0.4,0.5-0.8,0.3c0.3-0.9,0.5-1.8,0.8-2.7c0-0.1,0.2-0.2,0.3-0.2c1.9,0,3.9,0,5.8,0c0,0,0.1,0.1,0.1,0.1
		c-1.8,2.2-3.6,4.3-5.5,6.6c1.1,0.5,1.7,1.4,2.3,2.5c0.1,0.2,0.2,0.3,0.4,0.4c0.1,0.1,0.3,0,0.5,0c0-0.2,0-0.3,0-0.4
		c-0.3-0.4-0.3-0.9,0-1.3c0.3-0.4,0.7-0.5,1.2-0.3c0.5,0.2,0.7,0.6,0.7,1.1c0,1.1-1,1.9-2.3,1.7c-0.7-0.1-1.4-0.5-2.1-0.8
		c-0.1-0.1-0.2-0.2-0.4-0.3C212.7,160.1,212.6,160.1,211.5,160.8z"/>
	<path d="M222,160.8c-0.2,1-1,1.7-1.8,1.7c-0.5,0-0.7-0.2-0.7-0.7c0-0.5,0.1-1,0.3-1.5c0.2-0.8,0.4-1.6,0.6-2.4
		c0.3-0.9,0.3-0.9-0.7-1.1c0,0,0-0.1,0-0.1c0.7-0.1,1.5-0.3,2.3-0.4c-0.4,1.4-0.7,2.7-1.1,4c-0.1,0.4-0.2,0.8-0.3,1.2
		c0,0.1,0,0.2,0.1,0.3c0.1,0,0.3,0,0.4-0.1c0.2-0.2,0.4-0.5,0.7-0.7C221.8,160.9,221.9,160.9,222,160.8z"/>
	<path d="M222.5,153.9c0,0.6-0.2,0.9-0.7,0.9c-0.5,0-0.7-0.3-0.7-0.7c0-0.4,0.2-0.7,0.7-0.7C222.3,153.4,222.5,153.6,222.5,153.9z"
		/>
</g>
<path d="M42.6,235.9c1.3-0.3,1.9-1.1,2.3-2.1c0.2-0.5,0.3-1,0.4-1.5c0.6-1.9,1.9-2.8,3.9-2.7c0.1,0,0.3,0.1,0.4,0.2
	c-0.1,0.1-0.2,0.3-0.3,0.3c-0.6,0.2-0.9,0.6-1,1.1c-0.1,0.3-0.2,0.6-0.2,0.9c-0.3,2.3-1.7,3.5-3.8,4.1c-0.5,0.1-1.1,0.2-1.6,0.3
	c-0.3,0-0.4,0.1-0.5,0.4c-0.3,1.2-0.6,2.3-0.9,3.5c-0.2,0.9,0,1.2,0.9,1.2c0.3,0,0.6,0.1,0.4,0.5c-2,0-3.9,0-5.9,0
	c-0.1-0.3,0-0.5,0.4-0.5c0.8-0.1,1.3-0.6,1.5-1.3c0.3-1.2,0.7-2.4,1-3.7c-0.5-0.1-0.9-0.1-1.3-0.2c-2-0.4-2.9-1.8-2.4-3.8
	c0.2-0.6,0.3-1.2,0.4-1.8c0-0.2-0.2-0.4-0.4-0.7c-0.1-0.1-0.2-0.2-0.2-0.3c0.1-0.1,0.2-0.2,0.4-0.2c2-0.2,3,1.1,2.6,3.2
	c-0.1,0.6-0.1,1.3,0,2c0.1,0.6,0.5,1,1.2,1c0.2-0.7,0.4-1.4,0.6-2.2c0.2-0.7,0.4-1.4,0.5-2.1c0.2-0.8,0-1-0.9-1.1
	c-0.4,0-0.5-0.2-0.4-0.5c0.1,0,0.2-0.1,0.3-0.1c1.6,0,3.2,0,4.8,0c0.2,0,0.3,0.1,0.5,0.2c-0.1,0.1-0.3,0.3-0.4,0.3
	c-0.5,0.1-0.9,0.3-1,0.8C43.5,232.8,43.1,234.3,42.6,235.9z"/>
<g>
	<path d="M305.5,195.5c-0.4,1.6-0.8,3.2-1.2,4.7c-0.1,0.5-0.2,0.9-0.3,1.4c0,0.2,0.1,0.5,0.3,0.6c0.1,0.1,0.4,0,0.6-0.2
		c0.9-0.8,1.5-1.9,1.9-3c0.4-1.1,0.6-2.3,1-3.5c0.7,0,1.4,0,2.2,0c-0.2,0.7-0.3,1.3-0.5,1.9c-0.4,1.4-0.7,2.9-1.1,4.3
		c0,0.2,0.1,0.4,0.1,0.6c0.2-0.1,0.4-0.2,0.5-0.3c0.3-0.3,0.5-0.6,0.7-1c0.1,0.1,0.3,0.1,0.5,0.3c-0.5,0.6-1,1.3-1.5,1.8
		c-0.5,0.5-1.1,0.6-1.8,0.5c-0.5-0.1-0.8-0.4-0.8-0.9c0-0.4,0-0.7,0-1.2c-0.2,0.3-0.4,0.6-0.6,0.8c-0.5,0.7-1.1,1.2-2,1.2
		c-0.3,0-0.4,0.2-0.5,0.4c-0.2,0.9-0.5,1.8-0.7,2.6c-0.1,0.3-0.2,0.4-0.5,0.4c-0.6,0-1.1,0-1.7,0c0.3-1.2,0.7-2.4,1-3.7
		c0.7-2.5,1.4-5,2-7.5c0.1-0.3,0.2-0.4,0.5-0.4C304.3,195.5,304.8,195.5,305.5,195.5z"/>
	<path d="M315.8,204.5c-0.6,1.3-2.3,1.9-3.4,1.3c-0.6-0.3-0.7-0.9-0.8-1.5c-0.1-2.1,1.8-4.2,3.9-3.9c0.6,0.1,1.1,0.4,1,0.9
		c0,0.2-0.1,0.5-0.3,0.6c-0.1,0.1-0.5,0.1-0.6,0c-0.1-0.1-0.1-0.4-0.1-0.6c0.1-0.4,0-0.6-0.5-0.6c-0.7,0.1-1.2,0.5-1.6,1
		c-0.5,0.8-0.8,1.7-0.8,2.6c0.1,1,0.8,1.5,1.7,1.1c0.4-0.1,0.6-0.4,1-0.6C315.5,204.7,315.6,204.7,315.8,204.5z"/>
</g>
<g>
	<path d="M304.1,258.7c1,0.3,2,0.6,3,0.9c1,0.3,1.9,0.1,2.7-0.7c0.1-0.2,0.3-0.3,0.5-0.5c0.4,0.1,0.4,0.3,0.2,0.7
		c-1.4,2.1-3.2,2.8-5.6,1.9c-1.1-0.4-2.2-0.6-3.3-0.1c-0.1,0.1-0.3-0.1-0.6-0.2c1-1,1.9-1.8,2.7-2.6c-0.1-0.1-0.1-0.1-0.1-0.1
		c-1.9-0.9-2.6-2.1-2.4-4.4c0.2-3,1.5-5.4,3.8-6.9c1.3-0.8,2.8-1.1,4.2-0.3c1.3,0.7,2,1.8,2,3.4c0,3.2-1.3,5.6-3.5,7.4
		c-0.8,0.7-1.8,0.8-2.7,0.9C304.5,258,304.4,258.1,304.1,258.7z M303.4,255.2c0,0.1,0,0.2,0,0.3c0.1,1.6,1.3,2.3,2.5,1.5
		c0.4-0.2,0.7-0.6,0.9-1c1.4-2.2,2.1-4.8,2.2-7.5c0-0.7-0.2-1.5-0.8-1.8c-0.6-0.4-1.3-0.2-1.8,0.2c-0.3,0.2-0.5,0.4-0.7,0.7
		C304.2,249.9,303.7,252.5,303.4,255.2z"/>
	<path d="M315.7,258.7c-0.5,1.3-1.9,1.8-2.9,1.3c-0.5-0.3-0.7-0.7-0.7-1.3c-0.3-2.1,1.5-4.3,3.3-4c0.6,0.1,0.9,0.5,0.9,1
		c0,0.4-0.2,0.6-0.6,0.5c-0.4,0-0.4-0.3-0.3-0.7c0.1-0.6,0-0.8-0.6-0.6c-0.4,0.1-0.7,0.4-1,0.7c-0.6,0.8-0.9,1.8-0.8,2.8
		c0.1,0.9,0.6,1.4,1.4,1c0.3-0.1,0.6-0.4,0.9-0.7C315.4,258.9,315.5,258.8,315.7,258.7z"/>
</g>
<g>
	<path d="M129.3,44.8c0.5-1.9,2.2-3.1,4-3.1c2.2,0,4.4,0,6.7,0c-0.1,0.6-0.2,1.2-0.4,1.8c0,0.1-0.3,0.2-0.4,0.2c-0.5,0-0.9,0-1.4,0
		c-0.2,0-0.4,0.2-0.5,0.3c-0.3,1.2-0.7,2.5-0.9,3.7c-0.1,0.7,0.1,1.4,0.5,1.4c0.7,0.1,0.9-0.5,1.2-0.9c0.1-0.1,0.1-0.3,0.2-0.4
		c0.4,0.1,0.5,0.2,0.4,0.6c-0.6,1.5-1.8,2.3-3.2,2.2c-1-0.1-1.7-0.8-1.6-1.8c0.1-1,0.4-1.9,0.7-2.8c0.2-0.8,0.6-1.5,0.9-2.4
		c-0.5,0-1,0-1.4,0c-0.1,0-0.3,0.3-0.3,0.5c-0.6,1.6-1.1,3.1-1.7,4.7c-0.2,0.5-0.5,0.9-0.8,1.3c-0.5,0.6-1.3,0.7-2,0.5
		c-0.2-0.1-0.5-0.4-0.6-0.7c-0.1-0.5-0.1-1,0.4-1.2c2.2-1,2.4-3.2,3.4-5.1c-1-0.1-1.7,0.1-2.4,0.7C129.9,44.6,129.6,44.6,129.3,44.8
		z"/>
</g>
<g>
	<g>
		<line class="st43" x1="135" y1="61.8" x2="135" y2="134.1"/>
		<g>
			<path class="st7" d="M135,132.5l3.2-2l0.1,0.1l-2.1,5.3c-0.4,1.8-0.8,3.7-1.2,5.5c-0.4-1.8-0.8-3.7-1.2-5.5l-2.1-5.3l0.1-0.1
				L135,132.5z"/>
		</g>
	</g>
</g>
<g>
	<g>
		<line class="st37" x1="57.3" y1="235.9" x2="150.5" y2="235.9"/>
		<g>
			<path class="st27" d="M148.7,235.9l-2.2-3.6l0.1-0.1l5.8,2.3c2,0.4,4.1,0.9,6.1,1.3c-2,0.4-4.1,0.9-6.1,1.3l-5.8,2.3l-0.1-0.1
				L148.7,235.9z"/>
		</g>
	</g>
</g>
<g>
	<g>
		<line class="st39" x1="141.5" y1="171.5" x2="169.8" y2="213.4"/>
		<g>
			<path class="st21" d="M168.8,212l1.7-3.8l0.1,0.1l1.3,6.1c0.8,1.9,1.5,3.9,2.3,5.8c-1.5-1.4-3-2.9-4.5-4.3l-5.2-3.5l0-0.1
				L168.8,212z"/>
		</g>
	</g>
</g>
<g>
	<g>
		<line class="st41" x1="215.8" y1="172.9" x2="179.7" y2="214.1"/>
		<g>
			<path class="st30" d="M180.8,212.7l4.1,0.7l0,0.1l-5.6,2.9c-1.7,1.2-3.3,2.5-5,3.7c1-1.8,2-3.6,3-5.5l2.1-5.9l0.1-0.1
				L180.8,212.7z"/>
		</g>
	</g>
</g>
<g>
	<g>
		<line class="st36" x1="290.4" y1="203.6" x2="197.8" y2="233.4"/>
		<g>
			<path class="st24" d="M199.5,232.9l3.2,2.7l-0.1,0.1l-6.3-0.4c-2.1,0.2-4.1,0.4-6.2,0.6c1.8-1,3.6-2.1,5.4-3.1l4.8-4l0.1,0
				L199.5,232.9z"/>
		</g>
	</g>
</g>
<g>
	<g>
		<line class="st35" x1="290.4" y1="252.6" x2="198.1" y2="237.2"/>
		<g>
			<path class="st44" d="M199.8,237.5l1.6,3.9l-0.1,0.1l-5.4-3.2c-1.9-0.8-3.9-1.5-5.8-2.3c2.1-0.1,4.2-0.2,6.2-0.3l6.1-1.3l0.1,0.1
				L199.8,237.5z"/>
		</g>
	</g>
</g>
<text transform="matrix(1 0 0 1 29.2035 13.6028)" class="st45 st46">混合因子分析模型</text>
<text transform="matrix(1 0 0 1 119.2591 13.6025)" class="st47 st46">Mixtures of Factor Analysers</text>
<line class="st12" x1="0" y1="22.8" x2="565.8" y2="22.8"/>
<line class="st12" x1="0" y1="339.3" x2="565.8" y2="339.3"/>
<line class="st12" x1="0.1" y1="0.3" x2="565.8" y2="0.3"/>
<text transform="matrix(1 0 0 1 482.9105 9.3689)"><tspan x="0" y="0" class="st48 st49">Author</tspan><tspan x="17.3" y="0" class="st50 st49">：</tspan><tspan x="23.5" y="0" class="st51 st49">引线小白</tspan><tspan x="48.5" y="0" class="st48 st49"> </tspan><tspan x="0" y="7.5" class="st48 st49">Web    </tspan><tspan x="17.3" y="7.5" class="st50 st49">：</tspan><tspan x="23.5" y="7.5" class="st48 st49">www.limoncc.com</tspan></text>
<g>
	<path d="M420.1,111.5c2-2.6,2-5.7,1.8-8.7c-0.1-1.6-0.6-3.1-1.6-4.4c-0.1-0.1-0.1-0.2-0.1-0.3c0.1,0,0.1-0.1,0.2-0.1
		c0.4,0.4,0.7,0.9,1.1,1.3c2.2,3.4,2.1,8.4-0.4,11.6c-0.1,0.2-0.3,0.4-0.4,0.6C420.4,111.5,420.3,111.5,420.1,111.5z"/>
	<path d="M400.1,111.5c-3.7-3.8-2.9-11,0.3-13.6c-0.1,0.3-0.1,0.4-0.2,0.6c-1.6,2.3-1.7,4.9-1.6,7.5c0.1,2,0.7,3.8,1.8,5.5
		C400.3,111.5,400.2,111.5,400.1,111.5z"/>
	<path d="M452.9,111.5c-3.7-3.8-2.9-11,0.3-13.6c-0.1,0.3-0.1,0.4-0.2,0.6c-1.6,2.3-1.7,4.9-1.6,7.5c0.1,2,0.7,3.8,1.8,5.5
		C453.1,111.5,453,111.5,452.9,111.5z"/>
	<path d="M484.4,111.5c0.5-1.1,1.2-2.3,1.4-3.5c0.6-2.6,0.5-5.2-0.4-7.8c-0.3-0.8-0.7-1.4-1.1-2.2c2.8,1.9,4.3,9.1,0.4,13.5
		C484.6,111.5,484.5,111.5,484.4,111.5z"/>
	<path d="M468.6,74.3c0.5-0.4,1-0.9,1.6-1.5c-1.6-0.9-2-1.6-1.4-3.8c0.4-1.5,1.3-2.6,2.7-3.2c1-0.4,2.1-0.5,3.1,0.3
		c0.9,0.8,0.9,1.8,0.7,2.9c-0.3,1.6-1.6,3.6-4.1,3.8c-0.2,0-0.4,0.2-0.6,0.4c1.4,0.1,2.9,1.4,4.3-0.1c0,0.2,0,0.4-0.1,0.5
		c-0.9,1.2-2.1,1.3-3.4,1.1C470.4,74.5,469.6,74.4,468.6,74.3z M473.9,67.1c-0.2-0.3-0.4-0.9-0.8-1c-0.4-0.1-0.9,0.2-1.4,0.4
		c-0.3,0.1-0.5,0.5-0.6,0.8c-0.4,1.2-0.8,2.4-1.1,3.6c-0.1,0.6,0,1.2,0.6,1.4c0.7,0.3,1.1-0.1,1.5-0.5
		C473.2,70.5,473.6,69,473.9,67.1z"/>
	<path d="M519.4,69.6c-0.2-0.1-0.3-0.1-0.4-0.1c-1.6-0.2-2-0.9-1.7-2.4c0.1-0.4,0-0.8,0-1.3c0.9-0.2,1.5,0.3,1.5,1.3
		c0,0.4-0.2,0.8-0.1,1.2c0.1,0.3,0.3,0.6,0.5,0.9c0.1,0,0.2,0,0.2-0.1c0.2-0.8,0.5-1.6,0.6-2.4c0-0.2-0.3-0.5-0.5-0.8
		c0.9,0,1.9,0,3,0c-1.3,0.7-1,2.1-1.5,3.1c0.8-0.1,1.1-0.4,1.4-1.5c0.4-1.4,1.1-1.9,2.2-1.9c0.1,0,0.2,0,0.1,0
		c-0.2,0.6-0.5,1.1-0.6,1.7c-0.3,1.2-1.2,2-2.6,2.1c-0.5,0-0.7,0.2-0.8,0.7c-0.1,0.4-0.2,0.8-0.3,1.1c-0.2,0.6-0.3,1.1,0.6,1.3
		c-1.1,0-2.1,0-3.2,0C519.3,72,518.9,70.6,519.4,69.6z"/>
	<path d="M467.1,103.9c0.3-0.8,0.4-1.8,0.8-2.5c0.8-1.4,2.7-1.4,3.4,0.1c0.8,1.6,0.8,3.3,0,5c-0.3,0.7-1,1.1-1.8,1.1
		c-0.8,0-1.5-0.5-1.8-1.2C467.5,105.6,467.4,104.8,467.1,103.9z M470.2,104C470.3,104,470.3,104,470.2,104c0-0.8,0-1.7-0.1-2.5
		c0-0.3-0.4-0.5-0.5-0.8c-0.2,0.3-0.6,0.5-0.6,0.8c-0.1,1.6-0.1,3.3,0,4.9c0,0.3,0.4,0.6,0.5,0.8c0.2-0.3,0.6-0.6,0.6-0.9
		C470.3,105.6,470.2,104.8,470.2,104z"/>
	<path d="M479.4,103.9c-0.2,0.9-0.4,1.6-0.6,2.3c-0.2,0.7,0,0.9,0.7,0.9c1.1-0.1,2.1-0.4,2.7-1.4c0.1-0.1,0.1-0.1,0.2-0.2
		c0,0,0,0,0.2,0c-0.2,0.7-0.4,1.3-0.6,2c-1.9,0-3.8,0-5.6,0c1.4-1.7,1.4-4,2.1-5.9c0.1-0.2-0.3-0.5-0.5-0.8c1.7,0,3.5,0,5.4,0
		c-0.1,0.6-0.3,1.2-0.4,1.8c-0.1,0-0.2,0-0.2,0.1c0-0.8-0.3-1.4-1.1-1.6c-1-0.2-1.4-0.1-1.6,0.9c-0.1,0.5-0.3,1-0.4,1.6
		c1,0.3,1.7-0.2,2.1-1.1c0.1,0.1,0.1,0.1,0.2,0.2c-0.2,0.9-0.5,1.9-0.8,3c-0.2-0.6-0.3-1-0.5-1.3C480.3,104,479.8,104,479.4,103.9z"
		/>
	<path d="M444.8,71.1c0.5-1.6,0.9-3.2,1.5-4.8c0.2-0.6,0.5-1.2,0.9-1.6c0.5-0.5,1.4-0.2,1.5,0.5c0,0.3-0.2,0.5-0.3,0.8
		c-0.2-0.1-0.5-0.2-0.7-0.3c-0.1,0-0.1-0.1-0.4-0.4c-0.2,0.4-0.5,0.7-0.7,1.1c-0.6,2-1.2,3.9-1.8,5.9c-0.1,0.2-0.1,0.4-0.3,0.8
		c-1.3-1.5-2-3.1-2.8-4.8c-0.3,1-0.4,1.8-0.8,2.6c-0.3,0.7-0.7,1.4-1.3,2c-0.2,0.2-0.8,0.2-1.1,0.1c-0.2,0-0.3-0.5-0.4-0.7
		c0-0.2,0.1-0.5,0.2-0.5c0.2-0.1,0.5-0.1,0.6,0.1c0.6,0.7,1,0.2,1.1-0.3c0.4-1,0.7-2,1-3.1c0.2-0.8,0.4-1.7,0.7-2.6
		c0.8,1.8,1.7,3.6,2.5,5.5C444.6,71.2,444.7,71.1,444.8,71.1z"/>
	<path d="M447.3,100c-0.2,0.4-0.5,0.7-0.6,1.1c-0.6,2-1.2,4-1.8,6c-0.1,0.2-0.1,0.3-0.2,0.6c-1.3-1.4-2-3.1-2.8-4.7
		c-0.3,1-0.5,2-0.9,2.9c-0.2,0.6-0.7,1.2-1.1,1.6c-0.2,0.2-0.8,0.2-1.1,0.1c-0.2,0-0.3-0.5-0.4-0.8c0-0.2,0.1-0.4,0.2-0.5
		c0.2-0.1,0.5,0,0.6,0.1c0.6,0.7,0.9,0.2,1.1-0.3c0.4-1,0.7-2.1,1-3.2c0.2-0.8,0.4-1.7,0.7-2.6c0.8,1.8,1.7,3.6,2.5,5.5
		c0.1,0,0.2,0,0.3-0.1c0.4-1.4,0.9-2.8,1.3-4.2c0.2-0.6,0.4-1.1,0.6-1.7c0.4-0.7,1.1-1,1.6-0.6c0.2,0.2,0.4,0.5,0.4,0.8
		c0,0.2-0.2,0.5-0.3,0.5c-0.3-0.1-0.5-0.2-0.7-0.4C447.6,100.3,447.5,100.2,447.3,100z"/>
	<path d="M505.9,71.9c-0.5,0.3-1,0.5-1.4,0.8c-0.3,0.2-0.4,0.6-0.5,0.9c-0.3,1.1-0.3,1.1-1.5,0.9c0.6-2.2,1.2-4.4,1.8-6.6
		c0.5,0,0.8,0,1.3,0c-0.3,1-0.6,2-0.8,3c-0.1,0.2,0,0.5,0.1,0.8c0.2-0.1,0.6-0.2,0.7-0.5c0.4-0.8,0.7-1.6,1-2.5
		c0.1-0.3,0.2-0.6,0.3-0.9c0.4,0,0.8,0,1.2,0c-0.3,1.3-0.6,2.6-0.9,3.9c0.1,0,0.1,0.1,0.2,0.1c0.2-0.2,0.5-0.5,0.7-0.8
		c0,0.7-0.6,1.5-1.3,1.5C506.2,72.8,506,72.6,505.9,71.9z"/>
	<path d="M472.5,86.4c-0.4,0.2-0.9,0.4-1.5,0.6c0.5-0.9,1-1.6,1.9-1.6c1.2-0.1,2.4,0,3.7,0c-0.1,0.4-0.1,0.7-0.2,1.1
		c-0.7-0.1-1.3,0-1.4,1c0,0.6-0.5,1.3,0.1,2c0.3-0.3,0.5-0.5,0.7-0.8c0.1,0,0.1,0.1,0.2,0.1c-0.2,0.3-0.3,0.8-0.6,0.9
		c-0.4,0.2-1,0.3-1.5,0.3c-0.2,0-0.4-0.6-0.4-0.9c0.1-0.8,0.4-1.6,0.7-2.5c-0.5-0.2-0.7,0-0.9,0.6c-0.2,0.8-0.6,1.7-1,2.4
		c-0.2,0.3-0.6,0.5-1,0.7c-0.1,0.1-0.5-0.2-0.6-0.3c-0.1-0.2,0-0.6,0.2-0.7c1.1-0.5,1.3-1.6,1.7-2.6
		C472.6,86.6,472.5,86.5,472.5,86.4z"/>
	<path d="M419.4,102.6c-0.1,1.4-0.6,2.9-1.7,4.1c-0.2,0.2-0.5,0.4-0.8,0.6c-1.2,0.6-2.1,0-2.2-1.3c-0.1-1.9,0.5-3.5,1.9-4.8
		c0.6-0.6,1.3-1,2.2-0.6C419.5,100.9,419.4,101.7,419.4,102.6z M418.1,104.2c-0.7,0-1.3,0-1.9,0c-0.2,0-0.5,0.2-0.5,0.3
		c-0.1,0.7-0.2,1.4-0.1,2.1c0.1,0.7,0.5,0.8,1,0.3C417.4,106.3,417.8,105.3,418.1,104.2z M415.9,103.8c2.2,0.4,2.8-0.1,2.6-2.2
		c0,0,0-0.1,0-0.1c-0.1-0.2-0.2-0.6-0.4-0.7c-0.1-0.1-0.5,0.1-0.7,0.2C416.6,101.8,416.2,102.7,415.9,103.8z"/>
	<path d="M419.2,67.9c-0.1,1.4-0.6,2.9-1.7,4.1c-0.2,0.2-0.5,0.4-0.7,0.6c-1.3,0.7-2.3,0.1-2.4-1.3c-0.1-1.8,0.6-3.4,1.9-4.8
		c0.6-0.6,1.3-1,2.2-0.6C419.3,66.1,419.2,66.9,419.2,67.9z M418.1,69.5c-2.7-0.2-3,0.1-2.8,2.1c0,0,0,0.1,0,0.1
		c0.2,0.3,0.3,0.7,0.5,0.8c0.1,0.1,0.6-0.2,0.8-0.4C417.1,71.3,417.6,70.4,418.1,69.5z M415.7,69c2.2,0.4,2.8-0.1,2.6-2.2
		c0-0.1,0-0.1,0-0.2c-0.1-0.7-0.5-0.9-1.1-0.4C416.5,67,416.1,68,415.7,69z"/>
	<path d="M419.4,85.3c-0.1,1.4-0.6,2.8-1.6,4c-0.2,0.2-0.5,0.4-0.7,0.6c-1.3,0.7-2.4,0.2-2.4-1.4c0-1.8,0.6-3.4,1.9-4.7
		c0.6-0.6,1.3-1,2.2-0.6C419.5,83.5,419.4,84.3,419.4,85.3z M418.1,86.8c-0.7,0-1.3,0-1.9,0c-0.2,0-0.5,0.2-0.5,0.3
		c-0.1,0.7-0.2,1.4-0.1,2.1c0.1,0.7,0.5,0.8,1,0.3C417.4,88.9,417.8,87.9,418.1,86.8z M415.9,86.4c2.2,0.4,2.8-0.1,2.6-2.2
		c0,0,0-0.1,0-0.1c-0.1-0.2-0.2-0.6-0.4-0.7c-0.1-0.1-0.5,0.1-0.7,0.2C416.6,84.4,416.2,85.4,415.9,86.4z"/>
	<path d="M444.1,83.4c0,0.5,0.1,1.3,0.1,2c-0.1,0-0.1,0-0.2,0c-0.1-0.1-0.1-0.2-0.2-0.3c-0.5-1.1-1.2-1.6-2.2-1.6
		c-1,0-1.9,0.7-2.1,1.8c-0.2,0.8-0.2,1.7,0,2.5c0.4,1.7,2.3,2.4,3.8,1.4c0.3-0.2,0.6-0.4,0.8-0.6c0.1,0.1,0.1,0.1,0.2,0.2
		c-0.3,0.3-0.6,0.6-0.9,0.8c-1.4,0.8-3.3,0.6-4.4-0.5c-1-1-1.2-3-0.4-4.5c0.7-1.3,2.2-1.9,3.9-1.6C442.9,83.3,443.4,83.3,444.1,83.4
		z"/>
	<path d="M391.7,103.1c0.5-0.1,1-0.1,1.5-0.2c0,0.2,0,0.4,0,0.6c0.1,0,0.1,0,0.1,0c0.2-0.1,0.4-0.3,0.6-0.4c1.1-0.6,2,0,2,1.2
		c0,1.9-1.6,3.3-3.6,3.2c-0.6,1.2-0.6,1.6,0,2c-0.2,0-0.3,0-0.4,0c-0.5,0-0.9,0-1.3,0c0.2-0.4,0.4-0.8,0.5-1.2
		c0.4-1.4,0.8-2.8,1.1-4.2C392.3,103.6,392.3,103.2,391.7,103.1z M394.9,104.1c-0.1-0.1-0.2-0.6-0.4-0.7c-0.3-0.1-0.7,0.1-1,0.3
		c-0.3,0.2-0.5,0.5-0.6,0.8c-0.2,0.6-0.4,1.2-0.6,1.8c-0.1,0.2,0,0.7,0.1,0.7c0.3,0.1,0.7,0.1,0.9-0.1
		C394.3,106.5,394.8,105.5,394.9,104.1z"/>
	<path d="M391,85.7c0.5-0.1,1-0.1,1.6-0.2c0,0.3-0.1,0.5-0.1,0.6c0.4-0.2,0.8-0.5,1.2-0.6c1-0.2,1.6,0.3,1.6,1.3
		c-0.1,1.9-1.9,3.6-3.5,3.2c-0.1,0-0.1,0-0.3,0c0.1,0.6-0.8,1.3,0.2,1.9c-0.6,0-1.2,0-1.7,0c0.2-0.4,0.4-0.9,0.6-1.4
		c0.4-1.3,0.7-2.7,1.1-4C391.7,86.2,391.7,85.8,391,85.7z M391.5,89.3c0.1,0,0.1,0.1,0.2,0.1c0,0.6,0.4,0.7,1,0.4
		c1-0.6,1.5-1.6,1.6-2.7c0-0.3-0.1-0.9-0.4-1c-0.2-0.1-0.9,0-1,0.3C392.4,87.3,392,88.3,391.5,89.3z"/>
	<path d="M355.7,74.7c-0.6,0-1.2,0-1.7,0c0.2-0.4,0.4-0.8,0.6-1.2c0.4-1.4,0.7-2.8,1.1-4.2c0.1-0.5,0.2-0.9-0.5-1
		c0.5-0.1,1-0.1,1.5-0.2c0,0.3,0,0.5,0,0.6c0.5-0.2,0.9-0.5,1.4-0.5c0.8-0.1,1.2,0.3,1.3,1.2c0.1,2-1.5,3.5-3.8,3.4
		C355.7,73.4,355,74,355.7,74.7z M358.5,69.3c-0.1-0.2-0.2-0.5-0.4-0.7c-0.2-0.1-0.6,0-0.8,0.2c-0.3,0.3-0.6,0.6-0.8,1
		c-0.2,0.5-0.4,1.1-0.5,1.7c-0.1,0.3,0,0.6,0.1,0.9c0.3,0,0.7,0,1-0.1C358,71.6,358.4,70.6,358.5,69.3z"/>
	<path d="M458.5,71.3c-0.4,0.9-0.9,1.5-1.7,1.4c-0.4-0.1-0.7-0.7-1.1-1.2c-0.1,0.1-0.2,0.5-0.5,0.7c-0.3,0.2-0.6,0.5-1,0.5
		c-0.2,0-0.4-0.4-0.6-0.7c0.2-0.2,0.5-0.5,0.7-0.5c0.7,0,1.3-0.4,1.3-1c0-0.6-0.2-1.2-0.4-1.7c-0.1-0.2-0.5-0.4-0.8-0.7
		c0.6-0.1,1.2-0.2,1.8-0.3c0.1,0.4,0.3,0.8,0.4,1.2c0.3-0.3,0.6-0.7,1-1c0.4-0.3,0.8-0.4,1.1,0.1c0.1,0.2,0.1,0.5,0,0.6
		c-0.1,0.2-0.4,0.3-0.6,0.2c-0.8-0.1-1.3,0.4-1.3,1.1c0,0.2,0.1,0.4,0.1,0.6C457.3,72.1,457.3,72.1,458.5,71.3z"/>
	<path d="M369.3,71.5c-0.3,0.7-0.8,1.3-1.6,1.2c-0.4-0.1-0.7-0.7-1.1-1.2c-0.1,0.1-0.2,0.4-0.5,0.7c-0.3,0.2-0.6,0.5-1,0.5
		c-0.2,0-0.4-0.4-0.6-0.7c0.2-0.2,0.5-0.5,0.7-0.5c0.7,0,1.3-0.4,1.3-1c0-0.6-0.2-1.2-0.4-1.7c-0.1-0.2-0.5-0.4-0.7-0.6
		c1-0.7,1.7-0.5,2.1,0.8c0.3-0.3,0.5-0.6,0.7-0.8c0.2-0.2,0.5-0.4,0.8-0.4c0.2,0,0.5,0.2,0.6,0.3c0.1,0.1,0,0.5-0.1,0.6
		c-0.1,0.1-0.4,0.2-0.6,0.2c-0.8-0.1-1.4,0.4-1.3,1.2c0,0.1,0,0.2,0,0.2c0.1,0.4,0.1,0.9,0.4,1.2C368.3,71.8,368.9,71.6,369.3,71.5z
		"/>
	<path d="M420.3,94.2c2.4-4.5,2.4-9,0-13.5c1,0.4,2.3,2.8,2.6,5.3C423.2,89.1,422.6,91.9,420.3,94.2z"/>
	<path d="M477.5,80.7c3.8,3.1,3.5,10.9,0,13.5c1.4-2,1.8-4.4,1.8-6.8C479.3,85,478.9,82.7,477.5,80.7z"/>
	<path d="M420.2,76.8c2.4-4.5,2.4-9-0.1-13.5c1.1,0.4,2.4,3,2.6,5.4C423,71.8,422.4,74.6,420.2,76.8z"/>
	<path d="M456.4,80.5c-2.5,4.7-2.5,9.1-0.1,13.6C453,91.8,452.5,83.9,456.4,80.5z"/>
	<path d="M399.9,80.6c-2.4,4.6-2.5,9.1,0,13.6C396.3,91.4,396.2,83.6,399.9,80.6z"/>
	<path d="M364.1,77c-3.9-3.4-3.5-11,0-13.8C361.6,67.8,361.5,72.3,364.1,77z"/>
	<path d="M453.2,63.3c-1.4,2.1-1.8,4.4-1.8,6.8c0,2.4,0.4,4.7,1.8,6.7C449.6,74.1,449.6,66.2,453.2,63.3z"/>
	<path d="M526,76.9c2.6-4.7,2.6-9.2,0-13.7C529.6,65.8,529.6,74,526,76.9z"/>
	<path d="M449.2,89.5c-0.5,0.8-1.1,0.9-1.7,0.1c-0.2,0.1-0.4,0.3-0.6,0.4c-0.6,0.3-1.4,0.2-1.7-0.2c-0.4-0.5-0.2-1.4,0.5-1.8
		c0.5-0.3,1-0.5,1.5-0.8c0.2-0.1,0.4-0.4,0.4-0.5c-0.1-0.3-0.2-0.7-0.5-0.9c-0.1-0.1-0.5-0.1-0.8,0.1c-0.1,0.1-0.1,0.4-0.2,0.6
		c-0.1,0.2-0.2,0.4-0.3,0.5c-0.1,0.1-0.4,0-0.4-0.1c-0.1-0.2-0.2-0.4-0.1-0.6c0.1-0.5,0.9-0.9,1.7-0.9c0.8,0,1.3,0.4,1.4,1.1
		c0.1,0.7,0,1.5,0,2.2C448.4,89.1,448.4,89.6,449.2,89.5z M447.6,87.5c-0.1-0.1-0.1-0.1-0.2-0.2c-0.4,0.3-0.9,0.5-1.2,0.9
		c-0.2,0.2-0.2,0.7-0.1,1c0.1,0.2,0.6,0.4,0.7,0.3c0.3-0.1,0.6-0.4,0.7-0.7C447.7,88.3,447.6,87.9,447.6,87.5z"/>
	<path d="M458,102.8c-1.1,1.3-2,2.4-2.8,3.4c0.5,0.6,1,1.1,1.4,1.7c0,0,0.1,0,0.1-0.1c0-0.1-0.1-0.2-0.1-0.3
		c0.1-0.2,0.1-0.5,0.3-0.7c0.1-0.1,0.5,0,0.5,0.1c0.1,0.2,0.2,0.6,0.1,0.8c-0.1,0.3-0.5,0.5-0.7,0.6c-0.3,0.1-0.7,0-1-0.1
		c-0.4-0.1-0.7-0.5-1.1-0.6c-0.3-0.1-0.7,0-1.3,0c1.1-1.3,2-2.5,2.9-3.6c0-0.1-0.1-0.2-0.1-0.3c-0.7,0.2-1.3,0.3-2,0.5
		c-0.2-0.8,0.2-1.4,1.2-1.4C456.3,102.8,457.1,102.8,458,102.8z"/>
	<path d="M488.3,71.5c0.5,0.6,1,1.1,1.4,1.7c0,0,0.1-0.1,0.1-0.1c0-0.1-0.1-0.2,0-0.3c0.1-0.3,0.1-0.6,0.3-0.8
		c0-0.1,0.6,0.1,0.6,0.1c0,0.3,0.1,0.8-0.1,1c-0.4,0.5-1.1,0.4-1.6,0.2c-0.6-0.3-1.2-1-2.1-0.3c0-0.1,0-0.2-0.1-0.3
		c0.9-1.2,1.9-2.3,2.9-3.6c-0.8-0.1-1.6-0.3-2.1,0.6c-0.1,0-0.1-0.1-0.2-0.1c0.1-0.5,0.3-1,0.4-1.5c1.1,0,2.1,0,3.3,0
		C490.2,69.3,489.2,70.4,488.3,71.5z"/>
	<path d="M381.5,69.1c-0.9-0.1-1.6-0.3-2.1,0.6c-0.2-1.2,0.2-1.7,1.2-1.7c0.7,0,1.3,0,2,0c0,0,0.1,0,0.3,0.1c-1,1.2-1.9,2.3-2.8,3.4
		c0.5,0.6,0.9,1.1,1.4,1.7c0,0,0.1,0,0.1-0.1c0-0.2-0.1-0.3-0.1-0.5c0.1-0.2,0.3-0.5,0.5-0.7c0.2,0.2,0.6,0.6,0.5,0.6
		c-0.2,0.3-0.5,0.8-0.8,0.8c-0.4,0.1-1-0.1-1.4-0.3c-0.5-0.3-1-0.6-1.6-0.2c-0.1-0.1-0.1-0.1-0.2-0.2
		C379.5,71.5,380.4,70.3,381.5,69.1z"/>
	<path d="M403.7,103.7c-0.7,0.2-1.4,0.3-2.1,0.5c0.1-0.3,0.2-0.7,0.3-1.1c0-0.1,0.2-0.3,0.4-0.3c0.9,0,1.9,0,3,0
		c-1,1.2-1.9,2.3-2.8,3.4c0.5,0.6,0.9,1.1,1.5,1.8c0-0.3,0-0.4,0-0.5c0.1-0.3,0.2-0.6,0.3-0.8c0.2,0.1,0.6,0.1,0.6,0.2
		c0,0.3,0,0.8-0.2,1c-0.2,0.2-0.6,0.3-1,0.3c-0.3,0-0.6-0.1-0.9-0.3c-0.5-0.3-1-0.8-1.8-0.2c0-0.1-0.1-0.2-0.1-0.3
		c0.9-1.2,1.9-2.3,2.8-3.5C403.7,103.9,403.7,103.8,403.7,103.7z"/>
	<path d="M497.6,69.7c0.9,0,1.8,0,2.6,0c0.2,0.5,0.1,0.7-0.4,0.7c-0.7,0-1.3,0-2.1,0c0,0.9,0,1.7,0,2.6c-0.5,0.2-0.7,0.1-0.7-0.4
		c0-0.7,0.2-1.6-0.2-2c-0.3-0.3-1.3-0.1-1.9-0.2c-0.2,0-0.4-0.2-0.7-0.3c0-0.1,0.1-0.2,0.1-0.3c0.9,0,1.7,0,2.7,0c0-0.8,0-1.5,0-2.2
		c0-0.5,0.2-0.6,0.7-0.4C497.6,67.9,497.6,68.8,497.6,69.7z"/>
	<path d="M466,91.9c0-3,0-5.9,0-8.9c0.4-0.1,0.7-0.1,0.7,0.4c0,2.7,0,5.4,0,8.1C466.7,92,466.5,92,466,91.9z"/>
	<path d="M462.3,109.3c0-3,0-5.9,0-8.9c0.4-0.1,0.7-0.1,0.7,0.4c0,2.7,0,5.4,0,8.1C463,109.4,462.7,109.4,462.3,109.3z"/>
	<path d="M374.9,74.5c-0.2,0-0.4,0-0.7,0c0-3,0-5.9,0-8.8c0-0.1,0.1-0.1,0.1-0.2c0.2,0.2,0.5,0.3,0.5,0.5
		C374.9,68.8,374.9,71.6,374.9,74.5z"/>
	<path d="M401.3,85.7c0,0,0.2-0.1,0.4-0.1c0.6-0.1,1,0,1.1,0.6c0.2,0.9,0.5,1.8,0.8,2.9c0.4-0.8,0.8-1.5,1.1-2.2
		c0.1-0.2-0.2-0.4-0.3-0.6c-0.1-0.2-0.2-0.4-0.1-0.6c0-0.1,0.3-0.2,0.4-0.2c0.2,0.1,0.4,0.3,0.4,0.4c0.1,0.1,0,0.4,0,0.5
		c-0.7,2-1.7,3.8-3.3,5.3c-0.2,0.2-0.5,0.3-0.8,0.3c-0.1,0-0.3-0.3-0.5-0.5c0.2-0.1,0.4-0.3,0.5-0.3c0.4,0.1,0.7,0.3,1-0.1
		c0.4-0.5,1-0.9,0.7-1.7c-0.2-0.9-0.4-1.9-0.8-2.7C402,86.3,401.6,86,401.3,85.7z"/>
	<path d="M387.6,68.4c1.6-0.5,1.6-0.5,2,1c0.2,0.7,0.4,1.4,0.6,2.3c0.4-0.8,0.7-1.3,1-1.9c0.2-0.3,0.2-0.7-0.1-1
		c-0.1-0.1-0.2-0.4-0.1-0.5c0-0.1,0.3-0.2,0.4-0.2c0.2,0.1,0.4,0.3,0.4,0.4c0,0.3,0,0.6-0.2,0.9c-0.7,1.7-1.6,3.2-2.8,4.6
		c-0.3,0.3-0.7,0.5-1.1,0.6c-0.1,0-0.3-0.3-0.5-0.4c0.2-0.1,0.4-0.4,0.5-0.3c0.4,0.1,0.7,0.2,1-0.2c0.3-0.5,1-0.9,0.7-1.7
		c-0.2-0.8-0.4-1.6-0.6-2.5C388.7,69,388.5,68.4,387.6,68.4z"/>
	<path d="M460.1,89.1c0.4-0.7,0.7-1.3,1-1.9c0.2-0.4,0.3-0.7-0.1-1c-0.1-0.1-0.2-0.4-0.1-0.5c0-0.1,0.3-0.2,0.4-0.1
		c0.2,0.1,0.4,0.2,0.4,0.4c0,0.3,0,0.6-0.1,0.8c-0.7,1.8-1.7,3.4-3,4.8c-0.2,0.3-0.6,0.4-1,0.5c-0.1,0-0.3-0.3-0.5-0.4
		c0.2-0.1,0.4-0.3,0.6-0.3c0.3-0.1,0.7,0.1,0.8-0.1c0.4-0.5,1-0.9,0.9-1.6c-0.2-0.9-0.5-1.8-0.7-2.8c-0.1-0.6-0.4-1-1.1-1.1
		c0.1,0,0.3-0.1,0.4-0.1c1.1-0.3,1.2-0.2,1.5,0.8C459.6,87.3,459.8,88.1,460.1,89.1z"/>
	<path d="M408.8,68.5c-0.8-0.3-1.3,0.1-1.6,0.6c-0.4,0.6-0.6,1.4-0.8,2.1c-0.1,0.3,0.2,0.9,0.5,1c0.3,0.2,0.8,0,1.1-0.1
		c0.3-0.1,0.5-0.3,0.8-0.5c-0.3,0.9-1.2,1.4-2.3,1.2c-0.7-0.1-1.1-0.7-1.1-1.6c0-1.7,1.6-3.1,3.1-2.9c0.3,0,0.6,0.3,0.8,0.5
		c0.1,0.1,0,0.5-0.1,0.6c-0.1,0.1-0.4,0.1-0.6,0c-0.1-0.1-0.1-0.3-0.1-0.5C408.7,68.7,408.7,68.6,408.8,68.5z"/>
	<path d="M409.9,92c-0.1-0.2-0.4-0.4-0.4-0.5c0-2.7,0-5.4,0-8.1c0-0.2,0.2-0.4,0.4-0.6c0.1,0,0.1,0.1,0.2,0.1c0,3,0,5.9,0,8.9
		C410.1,91.9,410,92,409.9,92z"/>
	<path d="M464,65.6c0,2.9,0,5.9,0,8.8c-0.4,0.2-0.6,0.2-0.6-0.4c0-2.7,0-5.4,0-8.1c0-0.2,0.3-0.3,0.4-0.5
		C463.9,65.5,464,65.6,464,65.6z"/>
	<path d="M409.9,109.4c-0.1-0.2-0.4-0.4-0.4-0.5c0-2.7,0-5.4,0-8.1c0-0.2,0.2-0.4,0.4-0.6c0.1,0,0.2,0.1,0.2,0.1c0,3,0,5.9,0,8.9
		C410.1,109.3,410,109.3,409.9,109.4z"/>
	<path d="M452.1,89.3c-0.3,0.7-0.9,0.9-1.5,0.8c-0.6-0.1-0.6-0.7-0.6-1.2c0-0.8,0-1.7,0-2.5c0-0.4,0.1-0.8-0.7-0.7
		c0.5-0.6,0.9-1,1.5-1.6c0,0.4,0.1,0.8,0.1,1.2c0.3,0,0.7,0.1,1,0.1c0,0.1-0.1,0.2-0.1,0.2c-1-0.1-1,0.5-0.9,1.2c0,0.5,0,1,0,1.5
		C450.8,89.5,451,89.7,452.1,89.3z"/>
	<path d="M428.2,105.5c2,0,3.9,0,6,0c0,0.2,0.1,0.4,0.1,0.7c-2,0-4,0-6,0C428.2,105.9,428.2,105.8,428.2,105.5z"/>
	<path d="M428.2,104.1c0-0.2,0-0.4,0-0.7c2,0,4,0,6,0c0,0.2,0,0.4,0,0.7C432.2,104.1,430.3,104.1,428.2,104.1z"/>
	<path d="M434.2,70.7c0,0.2,0,0.4,0,0.7c-2,0-4,0-6,0c0-0.2,0-0.4,0-0.7C430.3,70.7,432.2,70.7,434.2,70.7z"/>
	<path d="M401.6,71.4c-2,0-4,0-5.9,0c-0.1-0.5-0.1-0.7,0.5-0.7c1.7,0,3.3,0,5,0C401.6,70.7,401.7,70.9,401.6,71.4z"/>
	<path d="M428.2,69.4c0-0.3,0-0.5,0-0.7c2,0,4,0,6,0c0.1,0.4,0.1,0.7-0.5,0.7C431.9,69.4,430.1,69.4,428.2,69.4z"/>
	<path d="M401.6,68.7c0.1,0.5,0,0.7-0.5,0.7c-1.8,0-3.6,0-5.5,0c0-0.2,0-0.4-0.1-0.7C397.6,68.7,399.6,68.7,401.6,68.7z"/>
	<path d="M428.1,88.6c0.2-0.2,0.3-0.5,0.5-0.5c1.9,0,3.7,0,5.6,0c0,0.3,0,0.4,0,0.7c-2,0-4,0-6,0C428.2,88.7,428.2,88.7,428.1,88.6z
		"/>
	<path d="M428.2,86.8c0-0.3,0-0.5,0-0.7c2,0,4,0,6,0c0.1,0.4,0.2,0.7-0.4,0.7C432,86.8,430.1,86.8,428.2,86.8z"/>
	<path d="M477.9,70.9c-0.8,0.1-1.6,1.2-1.4,2.1c0.1,0.5,0.5,0.8,1,0.5c0.2-0.1,0.4-0.3,0.7-0.4c-0.3,0.7-1,1-1.7,0.8
		c-0.7-0.2-0.7-0.8-0.6-1.4c0.2-0.9,0.7-1.5,1.6-1.8c0.2-0.1,0.4-0.1,0.6,0c0.2,0.1,0.4,0.4,0.6,0.6c0,0-0.2,0.2-0.3,0.4
		C478.3,71.4,478.1,71.2,477.9,70.9z"/>
	<path d="M511.5,73.1c-0.5,0.8-1.3,1.1-1.9,0.8c-0.5-0.2-0.7-0.9-0.5-1.7c0.2-0.8,0.8-1.3,1.5-1.5c0.2-0.1,0.5-0.1,0.6,0
		c0.2,0.1,0.4,0.4,0.6,0.6c0,0-0.2,0.2-0.3,0.3c-0.1-0.2-0.3-0.4-0.5-0.7c-0.4,0-0.8,0.3-1,0.8c-0.2,0.5-0.2,1.1-0.2,1.7
		c0,0.1,0.5,0.3,0.8,0.2C510.9,73.5,511.2,73.3,511.5,73.1z"/>
	<path d="M472.8,108.9c0.4-0.5,0.6-0.8,0.8-1.1c0-0.1,0-0.1,0-0.2c-0.1,0-0.1-0.1-0.2-0.1c-0.4,0-0.8,0-0.7-0.5
		c0-0.2,0.4-0.6,0.5-0.6c0.3,0.1,0.7,0.3,0.8,0.6C474.4,107.7,473.9,108.5,472.8,108.9z"/>
	<path d="M383.7,74.1c0.4-0.5,0.6-0.8,1-1.3c-0.2-0.1-0.3-0.1-0.4-0.1c-0.4,0-0.8,0-0.7-0.5c0-0.2,0.4-0.6,0.5-0.5
		c0.3,0.1,0.7,0.3,0.9,0.6C385.3,72.8,384.7,73.7,383.7,74.1z"/>
	<path d="M411.4,72.8c-0.2-0.1-0.2-0.1-0.3-0.1c-0.4,0-0.8,0-0.7-0.5c0-0.2,0.4-0.6,0.5-0.5c0.3,0.1,0.7,0.3,0.9,0.6
		c0.3,0.7-0.3,1.6-1.3,1.9c0.3-0.3,0.5-0.5,0.6-0.7C411.1,73.2,411.2,73,411.4,72.8z"/>
	<path d="M513.3,74c0.3-0.4,0.6-0.8,0.9-1.2c-0.2-0.1-0.3-0.1-0.4-0.1c-0.4,0-0.8,0-0.7-0.5c0-0.2,0.4-0.6,0.5-0.5
		c0.3,0.1,0.8,0.3,0.9,0.5C514.8,72.9,514.3,73.7,513.3,74z"/>
	<path d="M483.2,70.8c-0.2-0.2-0.5-0.5-0.5-0.7c0-0.2,0.4-0.5,0.6-0.6c0.1,0,0.5,0.3,0.5,0.6c0,0.2-0.3,0.5-0.4,0.7
		C483.4,70.8,483.3,70.8,483.2,70.8z"/>
</g>
<g>
	<path d="M342.1,194.3c1.5-0.4,2.1-1.3,2.1-2.7c0-9.7,0-19.4,0-29.1c0-2,0-4.1,0-6.1c0-1.7,0.8-2.9,2.2-3.4c0.3-0.1,0.7-0.1,1.2-0.2
		c-0.1,0.2-0.1,0.3-0.2,0.3c-1.4,0.2-2,1.4-2,2.7c0,0.4,0,0.9,0,1.3c0,6.3,0,12.5,0,18.8c0,5,0,10.1,0,15.1c0,1.7-0.6,2.8-2.2,3.5
		c1.7,0.7,2.2,2,2.2,3.7c0,11.4,0,22.8,0,34.2c0,0.3,0,0.5,0,0.8c0.1,1.6,0.6,2.3,2.3,2.8c-0.2,0.1-0.4,0.2-0.5,0.2
		c-1.4,0-2.5-1-2.8-2.5c-0.1-0.4-0.1-0.9-0.1-1.4c0-11.4,0-22.8,0-34.3c0-1.5-0.2-2.8-1.9-3.3C342.2,194.8,342.1,194.5,342.1,194.3z
		"/>
	<path d="M394.8,215.7c3.2,0,6.3,0,9.4,0c0,1.1,0,2.2,0,3.3c0,0-0.1,0-0.1,0.1c-0.1-0.1-0.2-0.3-0.3-0.4c-0.5-1.8-0.8-2.1-2.7-2.1
		c-1.1,0-2.2,0-3.5,0c0.7,1,1.3,1.8,2,2.7c0.5,0.7,1,1.5,1.6,2.2c0.3,0.4,0.3,0.7,0,1.1c-1.4,1.7-2.7,3.5-4.1,5.3c0.7,0,1.3,0,1.9,0
		c1.2,0,2.3,0,3.5,0c1.2,0,1.8-0.5,2.2-1.6c0.1-0.2,0.2-0.4,0.2-0.6c0.1,0,0.2,0,0.3,0.1c-0.2,1.3-0.4,2.6-0.7,3.9
		c-3.3,0-6.6,0-10,0c0.5-0.6,0.8-1.2,1.2-1.7c1.2-1.6,2.5-3.3,3.7-4.9c0.3-0.4,0.3-0.6,0-1c-1.4-1.9-2.8-3.8-4.2-5.7
		C395.1,216.1,395,215.9,394.8,215.7z"/>
	<path d="M382.3,168.6c0-0.3,0-0.5,0-0.8c10.2,0,20.4,0,30.7,0c0,0.3,0,0.5,0,0.8C402.8,168.6,392.6,168.6,382.3,168.6z"/>
	<path d="M384.3,182.5c0,7.6,0,15.2,0,22.8c0.5,0,1.1,0,1.6,0c-0.3,0.5-0.7,0.6-2.5,0.4c0-7.9,0-15.8,0-23.7c0.8,0,1.7,0,2.5,0
		c0,0.1,0,0.2,0,0.3C385.4,182.5,384.9,182.5,384.3,182.5z"/>
	<path d="M449.8,234.1c0.5,0,1,0,1.6,0c-0.2,0.5-1,0.6-2.5,0.4c0-7.9,0-15.7,0-23.7c0.8,0,1.7-0.1,2.5,0.1c0,0.1,0,0.2,0,0.3
		c-0.5,0-1,0.1-1.6,0.1C449.8,218.8,449.8,226.4,449.8,234.1z"/>
	<path d="M519.5,225.3c1.4,0.1,2.7,1.4,4-0.2c0,0,0.1,0.1,0.1,0.1c0,0.2-0.1,0.4-0.2,0.5c-0.8,1.1-1.9,1.2-3.1,1
		c-0.9-0.1-1.7-0.2-2.7-0.4c0.4-0.4,1-0.9,1.5-1.3c0-0.1,0-0.1,0-0.2c-1.2-0.5-1.6-1.4-1.4-2.6c0.2-1.8,1.1-3.1,2.8-3.8
		c1-0.4,2-0.4,2.9,0.3c0.9,0.7,0.8,1.7,0.6,2.7c-0.3,1.5-1.6,3.4-3.8,3.6C519.9,225.1,519.7,225.2,519.5,225.3z M522.7,219.6
		c-0.2-0.2-0.4-0.8-0.7-0.9c-0.4-0.1-0.9,0.1-1.3,0.3c-0.3,0.1-0.5,0.4-0.6,0.7c-0.4,1.1-0.8,2.3-1.1,3.4c-0.1,0.5,0,1.1,0.6,1.4
		c0.6,0.3,1-0.1,1.4-0.5C522.1,222.9,522.4,221.4,522.7,219.6z"/>
	<path d="M352.2,196.6c3,0.8,3,0.8,4.1-0.2c-0.1,0.3,0,0.5-0.1,0.6c-0.7,1-1.7,1.2-2.9,1.1c-0.9-0.1-1.9-0.3-2.9-0.4
		c0.4-0.4,1-0.9,1.4-1.3c-0.5-0.5-1.1-0.9-1.3-1.5c-0.2-0.7-0.1-1.6,0.1-2.3c0.4-1.3,1.2-2.3,2.5-2.8c1-0.4,2-0.5,2.9,0.3
		c0.9,0.7,0.9,1.7,0.7,2.7c-0.3,1.5-1.5,3.4-3.8,3.6C352.6,196.4,352.4,196.5,352.2,196.6z M355.4,190.9c-0.2-0.2-0.4-0.8-0.7-0.9
		c-0.4-0.1-0.9,0.1-1.3,0.3c-0.3,0.1-0.5,0.4-0.6,0.7c-0.4,1.1-0.8,2.3-1.1,3.4c-0.1,0.5,0,1.1,0.6,1.3c0.6,0.3,1-0.1,1.4-0.5
		C354.8,194.2,355.1,192.7,355.4,190.9z"/>
	<path d="M463.5,205.8c-1.8,0.2-2.3,0.1-2.6-0.4c0.3,0,0.6,0,0.8,0c0.3,0,0.5,0,0.8,0c0-7.6,0-15.2,0-22.9c-0.5,0-1.1-0.1-1.7-0.1
		c0.4-0.4,1.3-0.5,2.6-0.3C463.5,190,463.5,197.9,463.5,205.8z"/>
	<path d="M546.2,205.8c-0.9,0-1.6,0-2.6,0c0.5-0.7,1.2-0.2,1.7-0.5c0-7.5,0-15.1,0-22.8c-0.5,0-1,0-1.6-0.1c0.3-0.5,1-0.5,2.5-0.3
		C546.2,190,546.2,197.9,546.2,205.8z"/>
	<path d="M468.9,205.4c0.5,0,1,0,1.6,0.1c-0.2,0.5-0.8,0.6-2.5,0.4c0-7.9,0-15.8,0-23.7c1.2-0.2,2.2-0.1,2.5,0.3c-0.5,0-1,0-1.6,0.1
		C468.9,190.1,468.9,197.7,468.9,205.4z"/>
	<path d="M530.8,211.2c-0.5,0-1-0.1-1.6-0.1c0.3-0.4,1.1-0.5,2.5-0.3c0,7.9,0,15.8,0,23.7c-0.8,0-1.6,0-2.6,0
		c0.5-0.7,1.2-0.2,1.7-0.5C530.8,226.4,530.8,218.9,530.8,211.2z"/>
	<path d="M352.3,221.6c0.2-0.8,0.5-1.5,0.6-2.2c0-0.3-0.3-0.6-0.4-0.9c0.8,0,1.7,0,2.7,0c-1.1,0.7-0.9,2-1.4,3
		c0.8-0.2,1.1-0.4,1.4-1.5c0.4-1.2,1-1.7,2.1-1.7c0.1,0,0.1,0,0.1,0c-0.2,0.5-0.5,1-0.6,1.5c-0.3,1.3-1.1,2-2.5,2.1
		c-0.4,0-0.7,0.2-0.7,0.6c-0.1,0.4-0.2,0.7-0.3,1.1c-0.2,0.6-0.3,1.1,0.6,1.3c-1,0-2,0-3.2,0c1.5-0.5,1.2-1.8,1.7-2.9
		c-0.3,0-0.5-0.1-0.7-0.1c-1.1-0.1-1.5-0.9-1.3-1.9c0.1-0.5,0.1-1,0.2-1.6c0.8-0.2,1.4,0.4,1.3,1.5
		C351.6,220.9,351.6,221,352.3,221.6z"/>
	<path d="M548.7,221.2c1,0.3,1.5-0.3,2-1c0.1,0,0.1,0.1,0.2,0.1c-0.2,0.9-0.5,1.8-0.7,2.7c-0.1,0-0.1,0-0.2,0c0-0.1-0.1-0.3-0.1-0.4
		c0-0.6-0.3-0.8-0.8-0.9c-0.6-0.1-0.6,0.3-0.7,0.7c-0.1,0.4-0.3,0.9-0.4,1.3c-0.2,0.8,0,0.9,0.8,0.9c1-0.1,1.8-0.4,2.4-1.3
		c0.1-0.1,0.2-0.2,0.2-0.3c0,0,0.1,0,0.2,0c-0.2,0.6-0.3,1.1-0.5,1.6c0,0.1-0.2,0.2-0.3,0.2c-1.7,0-3.4,0-5.1-0.1
		c0.8-0.4,0.9-1.2,1.1-2c0.3-1,0.6-2.1,0.9-3.2c0.1-0.5,0.2-1-0.5-1.2c1.7,0,3.3,0,5.1,0c-0.1,0.6-0.3,1.1-0.4,1.7
		c-0.1,0-0.1,0-0.2,0c0-0.1-0.1-0.2-0.1-0.4c-0.2-0.8-1.2-1.4-2-1.1c-0.2,0.1-0.3,0.3-0.4,0.5c-0.1,0.4-0.2,0.8-0.3,1.2
		C548.8,220.7,548.8,220.9,548.7,221.2z"/>
	<path d="M535.5,194.1c-0.2,0.7-0.4,1.3-0.5,1.8c0,0.1-0.3,0.2-0.4,0.2c-1.5,0-3,0-4.5,0c-0.1-0.1-0.1-0.1-0.2-0.2
		c1.4-1.9,2.8-3.9,4.1-5.8c0-0.1,0-0.1-0.1-0.2c-0.6,0.1-1.2,0.1-1.7,0.4c-0.5,0.2-0.9,0.7-1.5,1c0.2-0.5,0.3-1,0.5-1.5
		c0-0.1,0.2-0.2,0.3-0.2c1.4,0,2.8,0,4.5,0c-1.5,2.1-2.9,4-4.2,5.9c0,0.1,0,0.1,0,0.2c0.7-0.1,1.4-0.1,2-0.3
		C534.4,195.3,534.8,194.7,535.5,194.1z"/>
	<path d="M504.5,220.1c0.2-0.5,0.3-1,0.5-1.5c0-0.1,0.2-0.2,0.3-0.2c1.4,0,2.8,0,4.2,0c0,0.1,0.1,0.1,0.1,0.2
		c-1.4,1.9-2.7,3.8-4.1,5.8c1.6,0.3,2.7-0.2,3.5-1.6c0.1,0.1,0.1,0.1,0.2,0.2c-0.2,0.6-0.3,1.2-0.5,1.7c0,0.1-0.2,0.2-0.4,0.2
		c-1.5,0-3,0-4.7,0c1.4-2.2,2.9-4,4.2-6.1c-1.4-0.3-2.4,0.3-3.1,1.4C504.6,220.2,504.6,220.1,504.5,220.1z"/>
	<path d="M449.1,195.9c0.7-0.1,1.4-0.1,2-0.4c0.6-0.3,1-0.8,1.6-1.2c-0.2,0.5-0.3,1.1-0.5,1.6c0,0.1-0.3,0.2-0.5,0.2
		c-1.5,0-2.9,0-4.6,0c1.3-2.2,2.9-4,4.2-6.1c-1.4-0.3-2.4,0.3-3.1,1.5c-0.2-1.3,0.3-1.9,1.3-1.9c1.2,0,2.3,0,3.5,0
		c0.1,0.1,0.1,0.1,0.2,0.2c-1.4,1.9-2.7,3.8-4.1,5.7C449.1,195.7,449.1,195.8,449.1,195.9z"/>
	<path d="M524.9,194.3c-0.2,0.5-0.3,1.1-0.5,1.6c0,0.1-0.2,0.2-0.4,0.2c-1.5,0-3,0-4.5,0c-0.1-0.1-0.1-0.1-0.2-0.2
		c1.4-1.9,2.8-3.9,4.2-5.8c-1.1-0.3-1.2-0.2-3.1,1.3c-0.2-1,0.3-1.8,1.3-1.8c1.2,0,2.3,0,3.5,0c0.1,0.1,0.1,0.1,0.2,0.2
		c-1.4,1.9-2.7,3.8-4.1,5.7c0,0.1,0,0.1,0,0.2c0.7-0.1,1.4-0.1,2-0.3c0.6-0.3,1-0.8,1.5-1.3C524.8,194.3,524.8,194.3,524.9,194.3z"
		/>
	<path d="M428.3,164.5c0.3-0.6,0.6-1.2,0.8-1.9c0.3-1,0.6-2,0.9-3c0.3-0.9,0.3-0.9-0.7-1.5c0.8,0,1.3,0,1.9,0c0.2,0,0.3,0.3,0.4,0.5
		c0.6,1.2,1.1,2.5,1.8,3.9c0.3-1.3,0.7-2.4,0.9-3.5c0-0.3-0.3-0.6-0.5-0.9c0.5,0,1.1,0,1.8,0c-1.2,1.5-1.2,3.3-1.8,5
		c-0.2,0.5-0.3,1.1-0.5,1.6c-0.1,0-0.1,0-0.2,0.1c-0.8-1.7-1.6-3.4-2.5-5.3c-0.4,1.5-0.8,2.8-1,4.1c-0.1,0.3,0.3,0.6,0.5,0.9
		C429.4,164.5,428.8,164.5,428.3,164.5z"/>
	<path d="M430.8,196.1c-1.1,0-2,0-3,0c0.8-0.6,0.8-0.8,0-2.4c-0.4,0.4-0.7,0.7-1,1.1c-0.6,0.6-0.6,0.7,0.3,1.3c-0.8,0-1.4,0-2.1,0
		c0.8-0.9,1.6-1.7,2.4-2.6c0.3-0.3,0.4-0.6,0.2-1c-0.2-0.4-0.3-0.9-0.4-1.3c-0.2-0.6-0.3-1.2-1-1.5c0.9,0,1.9,0,2.8,0
		c0,0,0,0.1,0,0.1c-0.2,0.1-0.4,0.2-0.7,0.3c0.2,0.6,0.3,1.2,0.5,1.9c0.5-0.6,1-1,1.4-1.5c0.1-0.1,0-0.5-0.1-0.8c0.4,0,1,0,1.6,0
		c-0.8,0.8-1.6,1.6-2.4,2.3c-0.3,0.3-0.4,0.5-0.2,1c0.2,0.4,0.3,0.8,0.4,1.3C429.8,195.4,429.8,195.4,430.8,196.1z"/>
	<path d="M451.4,224.8c0.9-0.9,1.7-1.8,2.5-2.7c0.1-0.2,0.2-0.5,0.1-0.7c-0.1-0.6-0.3-1.1-0.5-1.7c-0.2-0.5-0.3-1.1-1-1.3
		c0.9,0,1.9,0,2.8,0c-0.7,0.6-0.7,0.7-0.1,2.2c0.5-0.6,1.1-1.1,1.6-1.7c-0.2-0.2-0.4-0.3-0.7-0.5c0.8,0,1.4,0,2,0
		c-0.8,0.8-1.6,1.6-2.4,2.4c-0.3,0.3-0.4,0.6-0.2,1c0.2,0.5,0.4,1,0.5,1.5c0.2,0.6,0.4,1.2,1.1,1.5c-1,0-1.9,0-2.9,0
		c0.8-0.6,0.8-0.8,0-2.4c-0.5,0.5-0.9,1-1.3,1.5c-0.4,0.5,0.1,0.6,0.6,0.9C452.7,224.8,452,224.8,451.4,224.8z"/>
	<path d="M469.2,218.9c-0.2-0.2-0.4-0.3-0.7-0.5c0.7,0,1.4,0,1.9,0c-0.8,0.8-1.5,1.6-2.3,2.3c-0.3,0.3-0.4,0.6-0.2,1
		c0.2,0.4,0.3,0.9,0.4,1.4c0.2,0.7,0.4,1.3,1.2,1.6c-1,0-1.9,0-3,0c0.8-0.6,0.8-0.9,0.1-2.4c-0.4,0.5-0.9,1-1.3,1.5
		c-0.4,0.5,0.2,0.6,0.6,0.9c-0.9,0-1.6,0-2.2,0c0.8-0.9,1.7-1.7,2.5-2.6c0.2-0.2,0.2-0.5,0.2-0.7c-0.1-0.5-0.3-1.1-0.5-1.6
		c-0.2-0.5-0.5-0.9-0.8-1.4c0.7,0,1.7,0,2.7,0c-0.8,0.5-0.8,0.7-0.1,2.2C468.1,220.1,468.6,219.5,469.2,218.9z"/>
	<path d="M482.5,218.4c1,0,2,0,2.9,0c0,0,0,0.1,0,0.1c-0.2,0.1-0.4,0.2-0.7,0.3c0.2,0.6,0.3,1.1,0.5,1.9c0.5-0.6,1-1.1,1.4-1.6
		c0.1-0.1-0.1-0.4-0.2-0.7c0.5,0,1.1,0,1.7,0c-0.8,0.8-1.5,1.5-2.3,2.2c-0.4,0.4-0.5,0.7-0.3,1.2c0.2,0.4,0.3,0.8,0.4,1.2
		c0.2,0.7,0.4,1.3,1.1,1.6c-1,0-1.9,0-3,0c1.3-0.7,0.2-1.5,0.2-2.5c-0.7,0.7-1.2,1.3-1.7,1.9c0.3,0.2,0.5,0.4,0.8,0.6
		c-0.8,0-1.5,0-2.2,0c0.9-0.9,1.7-1.7,2.5-2.5c0.3-0.3,0.4-0.6,0.2-1c-0.2-0.4-0.3-0.9-0.4-1.3C483.3,219,483.3,219,482.5,218.4z"/>
	<path d="M475.3,191.6c0,0.9,0,1.6,0,2.3c-0.5-1.5-1.7-0.7-2.7-1c0,0.9,0,1.6,0,2.4c0,0.1,0.2,0.4,0.3,0.4c0.7,0,1.5,0,2.2-0.2
		c0.4-0.1,0.8-0.6,1.2-1c-0.1,0.5-0.3,1.1-0.4,1.6c-1.8,0-3.5,0-5.2,0c1-0.2,0.8-1,0.8-1.6c0-1.2,0-2.3,0-3.5c0-0.8,0-0.8-0.9-1.2
		c1.8,0,3.5,0,5.2,0c0,0.4,0,0.9,0,1.5c-0.4-0.7-0.6-1.2-1.4-1.2c-0.6,0.1-1.2,0-1.9,0c0,0.8,0,1.6,0,2.3
		C474.2,192.8,474.7,192.6,475.3,191.6z"/>
	<path d="M495.9,218.8c0,0.9,0,1.6,0,2.3c1.4,0.4,2.1,0.2,2.6-0.9c0,0.9,0,1.6,0,2.4c-0.5-1.4-1.7-0.7-2.7-0.9c0,0.8,0,1.6,0,2.3
		c0,0.2,0.2,0.4,0.4,0.4c0.6,0,1.3,0.1,1.9-0.1c0.4-0.1,0.7-0.4,1-0.7c0.1-0.1,0.2-0.3,0.4-0.5c0.1,0,0.1,0.1,0.2,0.1
		c-0.1,0.5-0.3,1-0.4,1.6c-1.8,0-3.5,0-5.2,0c1.1-0.3,0.8-1.2,0.8-1.9c0-1,0-2,0-3.1c0-0.6,0-1.2-0.7-1.4c1.7,0,3.3,0,5,0
		c0,0.4,0,0.9,0,1.5C498.4,218.2,497.1,219.1,495.9,218.8z"/>
	<path d="M412.3,220.2c0,0.9,0,1.7,0,2.4c-0.5-1.4-1.7-0.8-2.7-0.9c0,0.8,0,1.6,0,2.3c0,0.2,0.2,0.4,0.4,0.4c0.6,0,1.3,0.1,1.9-0.1
		c0.4-0.1,0.7-0.4,1-0.7c0.1-0.1,0.2-0.3,0.4-0.5c0.1,0,0.1,0.1,0.2,0.1c-0.1,0.5-0.3,1-0.4,1.6c-1.8,0-3.5,0-5.2,0
		c1.1-0.3,0.8-1.2,0.8-1.9c0-1,0-2,0-3.1c0-0.6,0-1.2-0.7-1.4c1.7,0,3.3,0,5,0c0,0.4,0,0.9,0,1.2c-0.4-0.2-0.8-0.6-1.3-0.7
		c-0.6-0.1-1.2,0-1.9,0c0,0.8,0,1.5,0,2.3C411.1,221.5,411.8,221.3,412.3,220.2z"/>
	<path d="M439.4,192.5c1.7,0.3,2.1,0.2,2.6-0.9c0,0.9,0,1.6,0,2.5c-0.5-1.6-1.6-0.9-2.6-1.1c0,0.8,0,1.6,0,2.4
		c0,0.2,0.4,0.4,0.6,0.4c1.2,0,2.4,0.2,2.9-1.3c0.1,0.1,0.2,0.1,0.2,0.2c-0.1,0.5-0.3,1-0.4,1.6c-1.8,0-3.5,0-5.2,0
		c1-0.3,0.8-1.1,0.8-1.8c0-1,0-2.1,0-3.1c0-0.6,0-1.2-0.8-1.4c1.7,0,3.3,0,5,0c0,0.4,0,0.8,0,1.4c-0.1-0.2-0.2-0.3-0.3-0.4
		c-0.3-0.2-0.6-0.6-0.9-0.6c-2.1-0.3-2.1-0.2-2.1,1.9C439.3,192.2,439.4,192.3,439.4,192.5z"/>
	<path d="M386.2,196c0.8,0,0.9-0.5,0.9-1.1c0-1.3,0-2.5,0-3.8c0-0.9,0-0.9-0.9-1.3c1.8,0,3.5,0,5.2,0c0,0.4,0,0.8,0,1.3
		c-0.6-1.4-1.9-0.8-2.9-0.9c-0.1,0-0.4,0.2-0.4,0.4c0,0.6,0,1.3,0,1.9c1.5,0.3,2.1,0.2,2.6-0.8c0,0.8,0,1.6,0,2.3
		c-0.5-1.4-1.7-0.7-2.6-0.9c0,0.9,0,1.6,0,2.4c0,0.2,0.4,0.4,0.6,0.4c1.2,0,2.4,0.3,2.9-1.4c0.1,0.1,0.1,0.1,0.2,0.2
		c-0.1,0.5-0.2,1-0.4,1.6c-1.8,0-3.5,0-5.2,0C386.2,196.1,386.2,196,386.2,196z"/>
	<path d="M509.7,196.1c0.8-0.2,0.8-0.8,0.8-1.4c0-1.2,0-2.3,0-3.5c0-1,0-1-0.9-1.4c1.7,0,3.4,0,5.1,0c0,0.4,0,0.9,0,1.3
		c-0.5-1.4-1.7-0.8-2.7-0.9c-0.4,0-0.6,0.1-0.6,0.5c0,0.6,0,1.2,0,1.7c1.4,0.4,2.1,0.2,2.6-0.9c0,0.9,0,1.6,0,2.6
		c-0.5-1.7-1.6-0.9-2.6-1.2c0,0.9,0,1.7,0,2.4c0,0.1,0.4,0.4,0.6,0.4c1.2,0,2.4,0.3,2.9-1.3c0.1,0.1,0.1,0.1,0.2,0.2
		c-0.1,0.5-0.3,1-0.4,1.6C513.1,196.1,511.4,196.1,509.7,196.1z"/>
	<path d="M385,158.5c1.8,0.3,2.1,0.2,2.6-0.9c0,0.9,0,1.6,0,2.5c-0.5-1.6-1.6-1-2.6-1.1c0,0.9,0,1.6,0,2.4c0,0.1,0.4,0.4,0.6,0.4
		c1.2,0,2.4,0.3,2.9-1.3c0.1,0.1,0.1,0.1,0.2,0.2c-0.1,0.5-0.3,1-0.4,1.6c-1.6,0-3.3,0-4.9,0c-0.1,0-0.2,0-0.4-0.1
		c1.2-0.2,0.9-1,0.9-1.7c0-1.1,0-2.1,0-3.2c0-0.6,0-1.2-0.8-1.4c1.7,0,3.3,0,5,0c0,0.4,0,0.9,0,1.3c-0.5-1.4-1.7-0.8-2.7-0.9
		c-0.4,0-0.6,0.1-0.6,0.5C385,157.3,385,157.9,385,158.5z"/>
	<path d="M351.7,167.6c-0.4,0.2-0.8,0.3-1.3,0.5c0.3-0.9,0.9-1.4,1.7-1.5c1.1-0.1,2.3,0,3.5,0c-0.1,0.4-0.1,0.7-0.2,0.8
		c-0.5,0.2-1,0.3-1.2,0.6c-0.5,0.9-0.5,1.8,0,2.6c0.2-0.3,0.3-0.6,0.5-0.9c0.2,0.7-0.1,1.1-0.6,1.2c-0.4,0.1-1,0.2-1.2,0
		c-0.2-0.2-0.3-0.8-0.2-1.2c0.1-0.7,0.4-1.3,0.6-1.9c-0.5-0.3-0.7,0-0.9,0.5c-0.2,0.7-0.5,1.5-0.9,2.2c-0.2,0.3-0.6,0.6-0.9,0.7
		c-0.1,0.1-0.5-0.1-0.6-0.3c-0.1-0.2,0-0.6,0.2-0.7c1-0.5,1.2-1.5,1.6-2.4C351.7,167.7,351.7,167.6,351.7,167.6z"/>
	<path d="M541.6,200.2c-1.1,0.2-1.7,0.1-2-0.3c0.2,0,0.4-0.1,0.6-0.1c0.2,0,0.4,0,0.6,0c0-4.1,0-8.2,0-12.3c-0.4,0-0.8,0-1.1-0.1
		c0-0.1,0-0.2,0-0.3c0.6,0,1.3-0.1,2-0.1C541.6,191.5,541.6,195.8,541.6,200.2z"/>
	<path d="M420.1,215.8c0.7,0,1.3,0.1,1.9,0.1c0,0.1,0,0.2,0,0.3c-0.4,0-0.7,0.1-1.1,0.1c0,4.1,0,8.1,0,12.2c0.4,0,0.8,0,1.2,0.1
		c-0.3,0.4-0.8,0.5-2,0.3C420.1,224.6,420.1,220.2,420.1,215.8z"/>
	<path d="M518.2,199.8c0.4,0,0.8,0,1.1,0.1c-0.3,0.4-0.6,0.5-2,0.3c0-4.3,0-8.6,0-12.9c0.7,0,1.3,0,1.9,0c0,0.1,0,0.2,0,0.2
		c-0.4,0-0.7,0.1-1.1,0.1C518.2,191.6,518.2,195.7,518.2,199.8z"/>
	<path d="M445.2,187.1c0.7,0,1.3,0.1,1.9,0.1c0,0.1,0,0.2,0,0.3c-0.4,0-0.7,0.1-1.1,0.1c0,4.1,0,8.1,0,12.2c0.4,0,0.8,0,1.2,0.1
		c-0.3,0.4-0.8,0.5-2,0.3C445.2,195.9,445.2,191.5,445.2,187.1z"/>
	<path d="M398.3,155.8c1,0,1.9,0,2.7,0c-0.8,0.2-0.6,0.8-0.4,1.3c0.2,0.5,0.3,1,0.6,1.6c0.5-0.8,1-1.5,1.4-2.2
		c0.1-0.1-0.2-0.5-0.4-0.7c0.5,0,1.1,0,1.7,0c-0.8,1.1-1.6,2.1-2.3,3.2c-0.4,0.7-0.6,1.6-0.8,2.5c0,0.2,0.4,0.5,0.6,0.7
		c-1,0-2,0-3.2,0c1.6-0.7,1.7-2,1.6-3.1C399.6,158,399.4,156.7,398.3,155.8z"/>
	<path d="M422.2,193.8c0,1.8-1.4,3.1-3.2,3.1c-1.8,0-3.2-1.4-3.2-3.2c0-1.8,1.5-3.2,3.3-3.2C420.9,190.5,422.3,191.9,422.2,193.8z
		 M419.1,191.2c-1.4,0-2.6,1.1-2.6,2.5c0,1.4,1.1,2.5,2.5,2.6c1.3,0.1,2.6-1.2,2.6-2.5C421.6,192.4,420.5,191.2,419.1,191.2z"/>
	<path d="M506.7,193.8c0,1.8-1.4,3.2-3.2,3.2c-1.8,0-3.2-1.4-3.2-3.3c0-1.8,1.4-3.2,3.2-3.2C505.3,190.5,506.7,191.9,506.7,193.8z
		 M501,193.7c0,1.4,1.2,2.6,2.5,2.6c1.3,0,2.5-1.2,2.5-2.5c0-1.3-1.1-2.5-2.5-2.5C502.2,191.2,501,192.3,501,193.7z"/>
	<path d="M543.2,222.4c0,1.9-1.4,3.2-3.2,3.2c-1.8,0-3.2-1.4-3.2-3.2c0-1.8,1.4-3.3,3.2-3.3C541.7,219.2,543.2,220.6,543.2,222.4z
		 M540,219.9c-1.4,0-2.6,1.1-2.6,2.5c0,1.3,1.1,2.5,2.5,2.6c1.3,0,2.6-1.2,2.6-2.5C542.5,221.1,541.4,219.9,540,219.9z"/>
	<path d="M443.8,222.4c0,1.8-1.3,3.2-3.2,3.2c-1.8,0-3.2-1.4-3.2-3.2c0-1.8,1.4-3.2,3.2-3.2C442.4,219.2,443.8,220.6,443.8,222.4z
		 M440.6,219.9c-1.3,0-2.5,1.2-2.5,2.5c0,1.3,1.2,2.6,2.6,2.6c1.3,0,2.5-1.2,2.5-2.5C443.2,221.1,442,219.9,440.6,219.9z"/>
	<path d="M398.6,177.6c-0.7-1.7-1.4-3.4-2.2-5.2c-0.4,1.5-0.8,2.9-1.1,4.3c0,0.2,0.3,0.5,0.5,0.8c-0.5,0-1.1,0-1.5,0
		c0.3-0.5,0.6-1,0.8-1.6c0.4-1.1,0.6-2.1,0.9-3.2c0.3-0.9,0.3-0.9-0.5-1.4c0.1,0,0.1,0,0.2,0c1.2-0.1,1.2-0.1,1.7,1.1
		c0.5,1.2,1,2.3,1.5,3.7c0.4-1.4,0.7-2.6,1-3.9c0.1-0.2-0.2-0.6-0.3-0.8c0.4,0,1,0,1.4,0c-0.2,0.4-0.5,0.8-0.6,1.3
		c-0.5,1.7-1,3.4-1.5,5.2C398.7,177.6,398.6,177.6,398.6,177.6z"/>
	<path d="M384.2,225.1c1.5-0.2,1.4-0.2,2,1.1c0.5,1.1,0.9,2.2,1.5,3.6c0.4-1.5,0.7-2.7,1-4c0-0.2-0.2-0.5-0.4-0.7c0.5,0,1,0,1.5,0
		c-0.2,0.4-0.5,0.8-0.7,1.3c-0.5,1.5-0.9,3-1.3,4.5c-0.1,0.2-0.2,0.4-0.3,0.9c-0.8-1.9-1.5-3.6-2.3-5.4c-0.4,1.6-0.8,2.9-1.1,4.3
		c0,0.2,0.3,0.5,0.5,0.7c-0.5,0-1.1,0-1.7,0c1.1-0.8,1-2,1.4-3.1c0.2-0.6,0.3-1.3,0.5-1.9C385,225.7,384.9,225.3,384.2,225.1z"/>
	<path d="M434.8,175.8c0.4-1.4,0.7-2.6,1-3.8c0.1-0.2-0.2-0.5-0.3-0.8c0.4,0,1,0,1.4,0c-0.2,0.4-0.5,0.9-0.7,1.4
		c-0.5,1.5-0.9,3-1.3,4.5c0,0.2-0.1,0.3-0.2,0.6c-0.8-1.8-1.5-3.5-2.3-5.4c-0.4,1.6-0.8,2.9-1.1,4.3c0,0.2,0.3,0.5,0.5,0.8
		c-0.5,0-1.1,0-1.5,0c0.3-0.5,0.6-1.1,0.8-1.7c0.4-1.1,0.6-2.2,0.9-3.3c0.2-0.8,0.2-0.9-0.5-1.2c1.3-0.3,1.4-0.2,1.9,0.9
		C433.7,173.3,434.2,174.4,434.8,175.8z"/>
	<path d="M399.4,199.8c0.4,0,0.8,0.1,1.2,0.1c0,0.1,0,0.2,0,0.3c-0.6,0-1.2,0.1-1.9,0.1c0-4.4,0-8.7,0-13.1c0.6,0.1,1.3-0.2,1.9,0.1
		c0,0.1,0,0.1,0,0.2c-0.4,0-0.7,0-1.2,0.1C399.4,191.7,399.4,195.7,399.4,199.8z"/>
	<path d="M395.5,153.3c0.7,0,1.3,0,2,0c0,0.1,0,0.2,0,0.2c-0.4,0-0.8,0.1-1.2,0.1c0,4.1,0,8.1,0,12.2c0.4,0,0.8,0.1,1.2,0.1
		c-0.3,0.4-0.9,0.5-2,0.3C395.5,161.9,395.5,157.6,395.5,153.3z"/>
	<path d="M483.1,187.2c1.3-0.2,1.7-0.1,2,0.3c-0.4,0-0.8,0.1-1.2,0.1c0,4.1,0,8.1,0,12.2c0.4,0,0.8,0.1,1.2,0.1c0,0.1,0,0.2,0,0.3
		c-0.6,0.2-1.3,0.1-2,0.1C483.1,195.9,483.1,191.6,483.1,187.2z"/>
	<path d="M432.6,229c-0.7,0-1.3-0.1-1.9-0.1c0-0.1,0-0.2,0-0.3c0.4,0,0.7,0,1.1-0.1c0-4.1,0-8.1,0-12.2c-0.4,0-0.7-0.1-1.1-0.1
		c0.2-0.4,0.7-0.5,1.9-0.3C432.6,220.2,432.6,224.5,432.6,229z"/>
	<path d="M502.5,228.5c0.4,0.1,0.8,0.1,1.1,0.1c0,0.1,0,0.2,0,0.2c-0.6,0-1.2,0-1.9,0c0-4.3,0-8.6,0-12.9c0.6,0,1.2,0,1.9,0
		c0,0.1,0,0.2,0,0.2c-0.4,0-0.7,0.1-1.1,0.1C502.5,220.3,502.5,224.4,502.5,228.5z"/>
	<path d="M515.4,229c-0.7,0-1.3-0.1-1.9-0.1c0-0.1,0-0.2,0-0.3c0.4,0,0.7-0.1,1.1-0.1c0-4.1,0-8.1,0-12.2c-0.4,0-0.8,0-1.1-0.1
		c0-0.1,0-0.2,0-0.3c0.6,0,1.2-0.1,1.9-0.1C515.4,220.2,515.4,224.6,515.4,229z"/>
	<path d="M405.5,153.6c-0.4,0-0.8,0-1.1-0.1c0-0.1,0-0.1,0-0.2c0.6-0.4,1.2,0,1.9-0.2c0,4.4,0,8.8,0,13.1c-0.6,0-1.3,0-1.9,0
		c0-0.1,0-0.2,0-0.2c0.4,0,0.7-0.1,1.1-0.1C405.5,161.8,405.5,157.7,405.5,153.6z"/>
	<path d="M495.6,187.1c0,4.5,0,8.8,0,13c-0.7,0-1.3,0-1.9,0c0-0.1,0-0.2,0-0.2c0.4,0,0.7-0.1,1.1-0.1c0-4.1,0-8.1,0-12.2
		c-0.4,0-0.8-0.1-1.1-0.1c0-0.1,0-0.2,0-0.3C494.3,187.2,494.9,187.2,495.6,187.1z"/>
	<path d="M410.3,187.6c-0.4,0-0.8,0-1.1-0.1c0-0.1,0-0.2,0-0.3c0.6-0.2,1.2-0.1,1.9-0.1c0,4.4,0,8.7,0,13c-0.6,0-1.3,0-1.9,0
		c0-0.1,0-0.2,0-0.2c0.4,0,0.7-0.1,1.1-0.1C410.3,195.8,410.3,191.7,410.3,187.6z"/>
	<path d="M457,199.9c0.4,0,0.7,0,1.1-0.1c0-4.1,0-8.1,0-12.2c-0.4,0-0.7,0-1.1-0.1c0-0.1,0-0.2,0-0.3c0.6,0,1.2-0.1,1.9-0.1
		c0,4.4,0,8.7,0,13c-0.6,0-1.3,0-1.9,0C456.9,200.1,456.9,200,457,199.9z"/>
	<path d="M409.5,155.8c0.8,0,1.7,0,2.4,0c-0.2,0.5-0.5,1-0.7,1.5c-0.4,1.2-0.6,2.4-1,3.6c-0.2,0.6-0.2,1,0.5,1.2c-0.9,0-1.9,0-2.7,0
		c1.3-1.6,1.2-3.6,1.9-5.5C410,156.4,409.6,156.1,409.5,155.8z"/>
	<path d="M439.4,167.8c0,0.3,0,0.5,0,0.8c-3.9,0-7.7,0-11.7,0c0-0.2,0-0.5,0-0.8C431.6,167.8,435.4,167.8,439.4,167.8z"/>
	<path d="M400.9,191.9c0.4-0.1,0.9-0.2,1.5-0.3c0.2,1,0.5,2.1,0.7,3.3c0.3-0.6,0.5-1.1,0.7-1.6c0.1-0.2-0.2-0.4-0.2-0.6
		c-0.1-0.3-0.2-0.5-0.1-0.8c0-0.1,0.5-0.3,0.6-0.3c0.2,0.2,0.4,0.5,0.4,0.7c0,0.3-0.1,0.7-0.2,1c-0.7,1.3-1.3,2.5-2.2,3.7
		c-0.3,0.5-1.1,0.7-1.6,0.9c-0.1,0.1-0.5-0.2-0.6-0.3c-0.1-0.1,0-0.5,0.1-0.6c0.2-0.1,0.5-0.2,0.7-0.1c1,0.3,1.6-0.2,1.4-1.2
		c-0.1-1-0.3-1.9-0.5-2.9C401.4,192.7,401.2,192.4,400.9,191.9z"/>
	<path d="M485.4,191.9c0.5-0.1,0.9-0.2,1.5-0.3c0.2,1.1,0.5,2.1,0.7,3.3c0.3-0.6,0.5-1.1,0.7-1.6c0.1-0.2-0.2-0.4-0.2-0.7
		c-0.1-0.3-0.2-0.6-0.1-0.8c0-0.1,0.5-0.3,0.6-0.2c0.2,0.1,0.4,0.4,0.4,0.7c0,0.3,0,0.7-0.2,1c-0.7,1.3-1.4,2.6-2.2,3.8
		c-0.3,0.5-1,0.7-1.6,0.9c-0.1,0.1-0.5-0.1-0.6-0.3c-0.1-0.1-0.1-0.5,0.1-0.6c0.2-0.1,0.5-0.2,0.7-0.1c0.9,0.3,1.5-0.2,1.4-1.1
		c-0.1-1-0.3-2-0.6-3C485.9,192.6,485.6,192.3,485.4,191.9z"/>
	<path d="M422.5,220.6c0.4-0.1,0.8-0.2,1.4-0.3c0.2,1.1,0.5,2.1,0.7,3.3c0.3-0.6,0.5-1.1,0.7-1.6c0.1-0.2-0.2-0.4-0.2-0.6
		c-0.1-0.3-0.2-0.6-0.1-0.9c0-0.1,0.5-0.3,0.6-0.2c0.2,0.2,0.3,0.5,0.4,0.8c0,0.1,0,0.3-0.1,0.5c-0.6,1.7-1.4,3.3-2.7,4.5
		c-0.3,0.3-0.8,0.5-1.3,0.6c-0.2,0-0.5-0.1-0.6-0.3c-0.1-0.1,0-0.5,0.1-0.6c0.2-0.1,0.5-0.2,0.7-0.1c1,0.3,1.6-0.3,1.4-1.3
		c-0.1-0.8-0.3-1.7-0.5-2.5C423,221.5,422.8,221.1,422.5,220.6z"/>
	<path d="M382.3,222.5c0-0.3,0-0.6,0-0.9c0.3,0,0.6,0,0.9,0c2.5,0,5,0,7.5,0c0,0.3,0,0.5,0,0.9c-1.4,0-2.8,0-4.2,0
		C385.1,222.5,383.7,222.5,382.3,222.5z"/>
	<path d="M385.3,212.7c0.6-0.3,1.1-0.6,1.8-1c0,1.2,0,2.2,0,3.2c0,0.7,0,1.4,0,2.1c0,0.6,0,1.1,0.8,1.3c-0.8,0-1.6,0-2.4,0
		c1-0.2,0.8-1,0.8-1.7c0-1,0-2.1,0-3.1C386.2,212.7,386.2,212.7,385.3,212.7z"/>
	<path d="M492.6,217.3c-0.3-0.7-0.8-0.9-1.5-0.7c0,1.2,0,2.3,0,3.5c0,0.2,0.3,0.4,0.5,0.6c-0.6,0-1.1,0-1.5,0
		c0.1-0.4,0.3-0.8,0.3-1.2c0.1-1,0-1.9,0-2.9c-0.8-0.2-1.3-0.1-1.5,0.7c0-0.3,0-0.7,0-1.1c1.3,0,2.5,0,3.8,0
		C492.6,216.6,492.6,217,492.6,217.3z"/>
	<path d="M417.5,217.3c-0.3-0.7-0.8-0.9-1.6-0.7c0,1.1,0,2.3,0,3.5c0,0.2,0.3,0.4,0.5,0.7c-0.5,0-1.1,0-1.5,0
		c0.1-0.4,0.3-0.9,0.3-1.3c0-0.9,0-1.8,0-2.8c-0.7-0.2-1.3-0.1-1.6,0.7c0-0.3,0-0.7,0-1.1c1.3,0,2.5,0,3.8,0
		C417.5,216.6,417.5,217,417.5,217.3z"/>
	<path d="M525.6,189.2c0-0.3,0-0.7,0-1c1.3,0,2.5,0,3.8,0c0,0.4,0,0.7,0,1c-0.3-0.7-0.8-0.9-1.6-0.7c0,1.2,0,2.4,0,3.5
		c0,0.2,0.3,0.4,0.5,0.6c-0.6,0-1.1,0-1.6,0c0.1-0.3,0.3-0.7,0.3-1.1c0.1-1,0-2,0-3C526.4,188.3,525.9,188.5,525.6,189.2z"/>
	<path d="M480.5,187.6c0,0.4,0,0.7,0,1c-0.3-0.7-0.8-0.9-1.6-0.7c0,1.1,0,2.3,0,3.4c0,0.2,0.3,0.5,0.5,0.7c-0.5,0-1.1,0-1.5,0
		c0.1-0.4,0.3-0.8,0.3-1.3c0.1-1,0-1.9,0-2.9c-0.8-0.2-1.3,0-1.5,0.7c0-0.3,0-0.7,0-1.1C477.9,187.6,479.2,187.6,480.5,187.6z"/>
	<path d="M528.4,214.4c-0.3-0.7-0.8-0.9-1.6-0.7c0,1.2,0,2.3,0,3.5c0,0.2,0.3,0.4,0.5,0.6c-0.6,0-1.2,0-1.6,0
		c0.1-0.4,0.3-0.7,0.4-1.1c0.1-1,0-2,0-3c-0.7-0.2-1.3-0.1-1.5,0.7c0-0.3,0-0.7,0-1.1c1.3,0,2.5,0,3.8,0
		C528.4,213.7,528.4,214,528.4,214.4z"/>
	<path d="M390.3,158.7c0.1-0.4,0.3-0.8,0.3-1.2c0-1,0-1.9,0-2.9c-0.7-0.1-1.3-0.1-1.6,0.7c0-0.3,0-0.7,0-1c1.3,0,2.5,0,3.8,0
		c0,0.4,0,0.7,0,1.1c-0.3-0.7-0.8-0.9-1.6-0.7c0.2,1.4-0.3,2.8,0.3,4.1C391.3,158.7,390.7,158.7,390.3,158.7z"/>
	<path d="M402.1,210c-0.7-1.4-1.8-1.5-2.6-0.3c-0.4,0.6-0.5,1.3-0.6,2c-0.1,1,0.8,1.5,1.8,1.1c0.3-0.2,0.6-0.4,0.9-0.6
		c-0.3,0.7-1.1,1.2-2,1.1c-1-0.1-1.5-0.6-1.6-1.5c-0.2-1.6,1.1-3.4,3.3-3.1c0.3,0,0.6,0.1,0.9,0.1
		C402.3,209.1,402.2,209.5,402.1,210z"/>
	<path d="M393.7,187.9c-0.8-0.1-1.3,0-1.5,0.7c0-0.3,0-0.7,0-1c1.3,0,2.5,0,3.8,0c0,0.3,0,0.7,0,1.3c-0.3-0.9-0.8-1.2-1.6-0.9
		c0.2,1.4-0.4,2.8,0.4,4.1c-0.4,0-1,0-1.4,0c0.1-0.4,0.3-0.8,0.3-1.2C393.7,189.9,393.7,188.9,393.7,187.9z"/>
	<path d="M436.1,187.6c0,0.4,0,0.7,0,1.1c-0.3-0.7-0.8-0.9-1.6-0.7c0.2,1.4-0.4,2.8,0.3,4.1c-0.4,0-1,0-1.4,0
		c0.1-0.4,0.3-0.8,0.3-1.2c0-1,0-1.9,0-2.9c-0.7-0.1-1.3-0.1-1.6,0.7c0-0.3,0-0.7,0-1C433.5,187.6,434.8,187.6,436.1,187.6z"/>
	<path d="M462.5,216.3c0,0.4,0.1,0.7,0.1,1.1c-0.3-0.7-0.8-1-1.5-0.7c-0.3,1.8-0.1,3.7,0.5,4.2c-0.6,0-1.2,0-1.6,0
		c0.1-0.4,0.3-0.8,0.3-1.1c0-1,0-2,0-3c-0.7-0.2-1.3-0.1-1.6,0.7c0-0.3,0-0.6,0-1C460,216.3,461.2,216.3,462.5,216.3z"/>
	<path d="M377.9,194.5c-0.1,0.2-0.3,0.5-0.4,0.5c-1.8,0-3.5,0-5.3,0c0-0.2,0-0.4,0-0.7c1.9,0,3.7,0,5.5,0
		C377.8,194.4,377.8,194.5,377.9,194.5z"/>
	<path d="M423.1,169.2c0,0.2,0,0.4,0,0.6c-1.9,0-3.7,0-5.6,0c0-0.2,0-0.4,0-0.6C419.4,169.2,421.2,169.2,423.1,169.2z"/>
	<path d="M377.9,169.4c-0.2,0.2-0.3,0.4-0.5,0.4c-1.7,0-3.5,0-5.2,0c0-0.2,0-0.4,0-0.7c1.9,0,3.7,0,5.5,0
		C377.8,169.2,377.9,169.3,377.9,169.4z"/>
	<path d="M417.5,167.2c1.8,0,3.7,0,5.6,0c0,0.2,0,0.4,0,0.7c-1.8,0-3.5,0-5.3,0c-0.2,0-0.3-0.3-0.5-0.5
		C417.4,167.4,417.4,167.3,417.5,167.2z"/>
	<path d="M377.9,223.3c-0.2,0.2-0.3,0.4-0.5,0.4c-1.7,0-3.5,0-5.2,0c-0.1-0.4-0.2-0.7,0.4-0.7c1.7,0,3.4,0,5.1,0
		C377.8,223.1,377.8,223.2,377.9,223.3z"/>
	<path d="M377.8,192.4c0.1,0.4,0.1,0.7-0.4,0.7c-1.7,0-3.4,0-5.2,0c0-0.2,0-0.4-0.1-0.7C374.1,192.4,375.9,192.4,377.8,192.4z"/>
	<path d="M377.8,221.1c0.1,0.4,0.1,0.7-0.5,0.7c-1.7,0-3.4,0-5.1,0c0-0.2,0-0.4,0-0.7C374,221.1,375.9,221.1,377.8,221.1z"/>
	<path d="M372.1,167.2c1.9,0,3.8,0,5.6,0c0.1,0,0.1,0.1,0.2,0.1c-0.2,0.2-0.3,0.5-0.5,0.5c-1.7,0-3.5,0-5.3,0
		C372.2,167.7,372.1,167.5,372.1,167.2z"/>
	<path d="M478.6,222.7c-1.8,0-3.5,0-5.3,0c-0.2-0.4,0-0.6,0.4-0.6c1.5,0,3,0,4.4,0C478.6,222.1,478.7,222.3,478.6,222.7z"/>
	<path d="M554,184.4c0.1-0.3,0.3-0.7,0.3-1c0-0.8,0-1.7,0-2.5c0-0.2-0.2-0.4-0.4-0.6c0.2-0.1,0.5-0.3,0.9-0.5
		c0.4,1.6-0.4,3.2,0.5,4.6C554.9,184.4,554.4,184.4,554,184.4z"/>
	<path d="M402.8,236c0.7-0.5,0.8-3.6,0.1-4.1c0.3-0.2,0.6-0.3,1-0.5c0,1.3,0,2.5,0,3.8c0,0.3,0.2,0.6,0.3,0.9
		C403.9,236,403.3,236,402.8,236z"/>
	<path d="M526.6,224.4c-0.9,0.1-1.8,1.4-1.4,2.2c0.2,0.4,0.5,0.5,0.9,0.3c0.2-0.1,0.4-0.3,0.7-0.5c-0.5,0.8-1.3,1.1-1.8,0.7
		c-0.6-0.4-0.5-1-0.3-1.6c0.3-0.8,0.8-1.3,1.7-1.4c0.2,0,0.5,0,0.7,0.2c0.1,0.1,0.2,0.4,0.2,0.6c0,0-0.2,0.1-0.3,0.1
		c0-0.2-0.1-0.3-0.1-0.5C526.7,224.5,526.7,224.4,526.6,224.4z"/>
	<path d="M512,223.2c-0.9,0.1-1.8,1.4-1.4,2.2c0.1,0.2,0.5,0.3,0.8,0.3c0.2,0,0.5-0.2,0.7-0.4c-0.3,0.6-0.9,0.9-1.6,0.7
		c-0.6-0.2-0.7-0.7-0.6-1.3c0.1-0.9,0.9-1.7,1.8-1.8c0.2,0,0.5,0.1,0.7,0.2c0.1,0.1,0.1,0.3,0.1,0.5c0,0.1-0.2,0.1-0.3,0.2
		c0-0.2-0.1-0.3-0.1-0.5C512.1,223.3,512,223.3,512,223.2z"/>
	<path d="M428.6,223.2c-0.8,0.1-1.5,1.2-1.3,2.1c0.1,0.5,0.4,0.6,0.9,0.5c0.2-0.1,0.4-0.3,0.7-0.4c-0.4,0.7-1,1-1.7,0.7
		c-0.7-0.3-0.6-0.9-0.5-1.4c0.2-0.8,0.7-1.3,1.5-1.6c0.2-0.1,0.4-0.1,0.6,0c0.2,0.1,0.4,0.4,0.6,0.6c0,0-0.2,0.2-0.3,0.3
		C428.9,223.7,428.8,223.5,428.6,223.2z"/>
	<path d="M437.7,162.9c-1,0.1-1.8,1.3-1.4,2.2c0.2,0.5,0.6,0.5,1,0.3c0.2-0.1,0.4-0.3,0.7-0.5c-0.5,0.8-1.2,1-1.8,0.8
		c-0.5-0.2-0.7-0.9-0.4-1.7c0.3-0.8,0.9-1.2,1.7-1.3c0.2,0,0.5,0,0.7,0.1c0.1,0.1,0.2,0.4,0.2,0.6c0,0-0.2,0.1-0.3,0.2
		c-0.1-0.2-0.1-0.3-0.2-0.5C437.7,163,437.7,162.9,437.7,162.9z"/>
	<path d="M455.4,194.5c-0.8,0.1-1.5,1.2-1.3,2.1c0.1,0.5,0.4,0.6,0.9,0.5c0.2-0.1,0.4-0.3,0.7-0.4c-0.3,0.7-0.9,0.9-1.6,0.7
		c-0.7-0.2-0.7-0.8-0.6-1.3c0.1-0.8,0.9-1.6,1.7-1.7c0.1,0,0.3-0.1,0.4,0c0.2,0.2,0.4,0.4,0.6,0.6c0,0-0.2,0.2-0.3,0.3
		C455.7,195,455.5,194.8,455.4,194.5z"/>
	<path d="M527.6,194.5c-0.8,0-1.7,1.4-1.3,2.2c0.1,0.2,0.5,0.3,0.8,0.3c0.2,0,0.4-0.2,0.7-0.4c-0.4,0.7-1.1,1-1.7,0.7
		c-0.5-0.2-0.7-0.9-0.4-1.6c0.2-0.7,0.7-1.2,1.4-1.4c0.2-0.1,0.4-0.1,0.6-0.1c0.2,0.1,0.4,0.4,0.6,0.5c-0.1,0.1-0.2,0.2-0.3,0.3
		C527.9,195,527.7,194.8,527.6,194.5z"/>
	<path d="M538.3,194.5c-1,0.1-1.8,1.3-1.4,2.2c0.2,0.5,0.5,0.5,0.9,0.3c0.2-0.1,0.4-0.3,0.7-0.4c-0.4,0.8-1.1,1-1.8,0.8
		c-0.5-0.2-0.7-0.9-0.4-1.6c0.3-0.8,0.8-1.3,1.7-1.4c0.2,0,0.5,0,0.7,0.1c0.1,0.1,0.2,0.4,0.2,0.5c0,0-0.2,0.1-0.3,0.2
		c-0.1-0.2-0.1-0.3-0.2-0.5C538.3,194.6,538.3,194.6,538.3,194.5z"/>
	<path d="M359.5,197.9c-0.2,0.2-0.4,0.4-0.6,0.5c-0.4,0.1-1,0.2-1.3,0c-0.3-0.2-0.4-0.8-0.4-1.1c0.1-0.8,0.6-1.4,1.5-1.7
		c0.2-0.1,0.5-0.1,0.6,0c0.2,0.1,0.4,0.4,0.5,0.6c-0.1,0.1-0.2,0.2-0.3,0.3c-0.1-0.2-0.2-0.4-0.4-0.7c-0.5-0.1-0.9,0.3-1.1,0.8
		c-0.2,0.5-0.2,1.1-0.2,1.6c0,0.1,0.6,0.2,0.9,0.1c0.2,0,0.4-0.2,0.6-0.4C359.5,197.8,359.5,197.9,359.5,197.9z"/>
	<path d="M407.2,195.1c0-0.2,0-0.4,0-0.6c-1,0.2-1.8,1.4-1.4,2.2c0.2,0.5,0.6,0.5,1.4,0.1c-0.3,0.5-0.8,0.7-1.4,0.6
		c-0.5-0.1-0.6-0.5-0.6-1c0-1.1,1.1-2.2,2.1-2c0.2,0,0.4,0.3,0.6,0.5c0,0-0.2,0.3-0.4,0.4C407.3,195.2,407.2,195.2,407.2,195.1z"/>
	<path d="M491.7,195.1c0-0.2,0-0.4,0-0.6c-1,0.2-1.8,1.4-1.4,2.2c0.4,0.8,0.9,0.3,1.4,0c-0.3,0.7-0.9,0.7-1.5,0.6
		c-0.5-0.1-0.6-0.5-0.6-1c0-1.1,1.1-2.2,2.1-2c0.2,0,0.4,0.3,0.6,0.5c0,0-0.2,0.3-0.4,0.4C491.8,195.2,491.7,195.2,491.7,195.1z"/>
	<path d="M396.6,235.4c-0.7,0.7-1.4,0.9-1.8,0.6c-0.6-0.4-0.5-1-0.3-1.5c0.2-0.9,1.3-1.6,2-1.4c0.2,0.1,0.4,0.4,0.6,0.5
		c-0.1,0.1-0.3,0.3-0.5,0.5c0-0.4,0-0.6-0.1-0.9c-0.1,0-0.2-0.1-0.2,0c-0.8,0.3-1.5,1.3-1.2,2.1c0.1,0.2,0.5,0.4,0.7,0.5
		C396,235.8,396.2,235.5,396.6,235.4z"/>
	<path d="M552.5,182.7c-0.2,0.1-0.3,0.2-0.5,0.2c-1,0-1.9,0-2.9,0c-0.1,0-0.3-0.2-0.4-0.2c0.1-0.1,0.3-0.2,0.4-0.2
		c1.1,0,2.2,0,3.3,0C552.4,182.5,552.4,182.6,552.5,182.7z"/>
	<path d="M351.6,164.8c0.3-0.4,0.6-0.9,0.9-1.3c0.3-0.4,0.7-0.4,1,0c0.3,0.4,0.6,0.8,0.9,1.3c0,0.1-0.1,0.1-0.1,0.2
		c-0.4-0.3-0.9-0.6-1.3-0.9c-0.4,0.3-0.8,0.6-1.2,1C351.8,164.9,351.7,164.8,351.6,164.8z"/>
	<path d="M356.1,217.1c-0.4-0.3-0.8-0.6-1.3-1c-0.4,0.3-0.8,0.6-1.2,1c-0.1-0.1-0.1-0.1-0.2-0.2c0.4-0.5,0.7-1,1.1-1.4
		c0.1-0.1,0.6-0.1,0.8,0.1c0.4,0.4,0.7,0.9,1,1.3C356.2,217,356.2,217,356.1,217.1z"/>
	<path d="M354.4,188.4c-0.4-0.3-0.9-0.6-1.3-1c-0.4,0.3-0.8,0.6-1.3,1c-0.1-0.1-0.1-0.1-0.2-0.2c0.3-0.5,0.6-1,1.1-1.4
		c0.1-0.1,0.7,0,0.9,0.1c0.4,0.3,0.6,0.8,0.9,1.2C354.5,188.3,354.5,188.3,354.4,188.4z"/>
	<path d="M521.8,217.1c-0.4-0.3-0.9-0.6-1.3-0.9c-0.4,0.3-0.8,0.6-1.3,1c-0.1-0.1-0.1-0.1-0.2-0.2c0.3-0.5,0.6-1,1-1.3
		c0.2-0.1,0.7-0.1,0.9,0.1c0.4,0.3,0.7,0.8,1,1.3C521.9,217,521.8,217,521.8,217.1z"/>
	<path d="M399.5,233.8c-0.5,0-1.1,0-1.6,0c-0.1,0-0.3-0.2-0.4-0.2c0.1-0.1,0.3-0.2,0.4-0.2c1.1,0,2.2,0,3.3,0c0.1,0,0.3,0.1,0.4,0.2
		c-0.1,0.1-0.3,0.2-0.4,0.2C400.6,233.8,400.1,233.8,399.5,233.8z"/>
	<path d="M401.8,234.8c-0.3,0.2-0.4,0.3-0.5,0.4c-1.1,0.2-3.5,0-3.8-0.4C398.9,234.8,400.2,234.8,401.8,234.8z"/>
	<path d="M419.1,194.6c-0.3-0.4-0.6-0.7-0.6-0.8c0-0.3,0.3-0.6,0.6-0.6c0.4-0.1,0.7,0.2,0.6,0.6C419.6,194,419.3,194.2,419.1,194.6z
		"/>
	<path d="M504.4,193.7c-0.4,0.3-0.6,0.5-0.9,0.6c-0.4,0.1-0.7-0.2-0.6-0.6c0.1-0.2,0.4-0.5,0.6-0.6
		C503.7,193.1,504,193.4,504.4,193.7z"/>
	<path d="M540.9,222.4c-0.4,0.3-0.6,0.5-0.9,0.6c-0.4,0.1-0.7-0.1-0.6-0.6c0.1-0.2,0.4-0.5,0.6-0.6
		C540.2,221.8,540.4,222.1,540.9,222.4z"/>
	<path d="M441.3,222.6c-0.2,0.1-0.5,0.4-0.7,0.4c-0.2,0-0.4-0.4-0.6-0.5c0.2-0.2,0.4-0.6,0.6-0.6c0.2,0,0.5,0.3,0.7,0.4
		C441.3,222.4,441.3,222.5,441.3,222.6z"/>
</g>
<g>
	<path d="M77.6,297.8c0,0.3-0.1,0.5-0.1,0.7c0.1,0,0.2,0,0.2,0c0.3-0.6,0.7-1.1,0.9-1.7c1-3.9,2-7.9,2.9-11.8
		c0.5-2.2,1.1-4.3,1.7-6.5c0.3-1,0.9-1.8,2-1.9c0.3,0,0.7,0.2,0.9,0.4c0.1,0.1-0.1,0.5-0.2,0.7c-0.1,0.1-0.6,0.2-0.6,0.1
		c-0.1-0.2-0.2-0.5-0.3-1.1c-0.3,0.7-0.7,1.1-0.8,1.6c-0.7,2.6-1.3,5.3-2,7.9c-0.8,3.2-1.6,6.5-2.4,9.7c-0.2,0.8-0.5,1.5-0.9,2.2
		c-0.3,0.4-0.9,0.7-1.5,0.8c-0.4,0.1-0.9,0.1-0.9-0.6C76.6,297.7,77,297.7,77.6,297.8z"/>
	<path d="M176,290.3c0.3-0.6,0.6-1,0.7-1.4c0.4-1.2,0.8-2.4,1.1-3.7c0.1-0.3,0-0.6,0-0.9c-0.3,0-0.7,0-1,0.1c-0.4,0.1-0.7,0.3-1,0.5
		c-0.1-0.1-0.1-0.2-0.2-0.3c0.6-0.3,1.1-0.7,1.7-0.8c1.4-0.1,2.8-0.1,4.2,0.1c0.5,0.1,1,0.7,1.4,1c0.2,0.2,0.4,0.4,0.6,0.4
		c0.2,0,0.4-0.3,0.5-0.5c0.3-0.5-0.1-1.4-0.7-1.8c0.6-0.2,1.2-0.5,1.5,0.5c0.3-0.2,0.5-0.5,0.8-0.6c0.2-0.1,0.5,0.2,0.7,0.3
		c-0.1,0.2-0.2,0.4-0.4,0.5c-1,0.2-1.1,0.3-0.9,1.4c0,0.2,0.1,0.3,0.2,0.6c0.2-0.1,0.4-0.2,0.6-0.3c0,0.1,0,0.1,0,0.2
		c-0.3,0.2-0.6,0.6-0.9,0.7c-0.3,0-0.6-0.4-0.9-0.6c-0.7,0.5-1.1,1.2-1.4,2.2c-0.4,1.4-1.6,2.2-3.1,2.3
		C178.5,290.2,177.2,290.2,176,290.3z M177.7,289.6c2.4,0.5,4.4-1.1,4.4-3.5c0-1.3-1-2.2-2.3-2c-0.2,0-0.5,0.2-0.6,0.4
		C178.7,286.2,178.2,287.9,177.7,289.6z"/>
	<path d="M231.3,285.3c0,0,0.2-0.2,0.3-0.3c0.3-0.4,0.6-0.8,0.9-1.4c-0.4,0.1-0.9,0.2-1.2,0.3c0.1-1.2-0.1-0.9,2.4-0.9
		c-0.7,0.8-1.3,1.6-1.9,2.3c0.3,0.4,0.6,0.7,0.8,1c0.2-0.2,0.3-0.4,0.5-0.6c0.1,0.2,0.3,0.3,0.4,0.5c-0.2,0.2-0.5,0.6-0.7,0.5
		c-0.5-0.1-1-0.3-1.6-0.5c-0.2,1.4-0.7,2.7-2.1,3.5c-1.6,0.9-3.4,0.6-5,0.6c0.3-0.9,0.7-1.7,0.9-2.6c0.3-0.8,0.5-1.6,0.7-2.5
		c0.1-0.3,0.1-0.7,0-0.8c-0.2-0.1-0.6-0.1-0.9,0c-0.4,0.1-0.7,0.4-1.1,0.5c0-0.1-0.1-0.1-0.1-0.2c0.4-0.3,0.8-0.6,1.2-0.7
		c1.6-0.5,3.3-0.5,4.9,0C230.3,284.1,230.8,284.8,231.3,285.3z M225.6,289.6c2.4,0.6,4.5-1.2,4.4-3.7c-0.1-1.2-1.2-2.1-2.4-1.8
		c-0.2,0-0.5,0.2-0.5,0.4C226.6,286.2,226.1,287.9,225.6,289.6z"/>
	<path d="M140,284.6c0.6-0.3,1.1-0.7,1.7-0.8c1.3-0.1,2.7-0.1,4,0c0.9,0.1,1.6,0.6,1.8,1.8c0.6-0.7,1-1.3,1.5-1.8
		c0-0.1-0.1-0.1-0.1-0.2c-0.4,0.1-0.9,0.2-1.3,0.3c0.1-0.3,0.2-0.6,0.3-1c0.7,0,1.4,0,2.3,0c-0.7,0.8-1.3,1.6-1.9,2.3
		c0.3,0.3,0.5,0.7,0.8,1.1c0-0.1,0.1-0.2,0.1-0.3c0.1-0.1,0.2-0.3,0.3-0.4c0,0,0.3,0.1,0.3,0.2c0,0.2,0,0.5-0.1,0.5
		c-0.4,0.1-0.8,0.2-1.2,0.1c-0.3,0-0.6-0.3-0.9-0.4c-0.7,3.9-3.3,4.5-7.1,4.1c0.3-0.8,0.6-1.7,0.9-2.6c0.3-0.8,0.5-1.7,0.7-2.5
		c0.2-0.7,0-0.9-0.8-0.8c-0.2,0.1-0.4,0.2-0.6,0.3c-0.2,0.1-0.4,0.2-0.6,0.3C140.1,284.8,140,284.7,140,284.6z M141.9,289.6
		c2.4,0.4,4.1-0.9,4.4-3.2c0.2-1.5-0.8-2.5-2.3-2.3c-0.2,0-0.6,0.2-0.6,0.4C142.9,286.2,142.4,287.9,141.9,289.6z"/>
	<path d="M163,286.8c0.7,0.3,1.5-0.2,1.4-0.9c-0.1-1-0.2-2-1.1-2.8c1.8-0.2,1,1.6,1.7,2.1c0.4-0.6,1-1.2,0.3-2.1
		c0.6-0.2,0.8,0,0.6,0.5c-0.6,1.6-1.1,3.3-3,3.9c-0.1,0-0.2,0.2-0.3,0.3c-0.7,1.6-2.1,2.2-3.7,2.4c-1,0.1-2.1,0-3.3,0
		c1.1-0.9,1.1-2.3,1.5-3.4c0.2-0.6,0.4-1.2,0.5-1.8c0.2-0.7,0-0.9-0.7-0.7c-0.5,0.1-0.9,0.4-1.4,0.5c0.3-0.2,0.5-0.5,0.8-0.6
		c1.9-0.7,3.8-0.7,5.6,0c0.4,0.2,0.7,0.9,0.9,1.4C163.1,285.9,163,286.4,163,286.8z M157.6,289.6c2.4,0.4,4.3-1,4.4-3.3
		c0.1-1.4-0.8-2.3-2.2-2.2c-0.3,0-0.7,0.3-0.8,0.6C158.5,286.3,158,287.9,157.6,289.6z"/>
	<path d="M216.3,285.3c-0.6,0.9-0.9,2-2.2,2.2c-0.1,0-0.2,0.2-0.3,0.3c-0.7,1.6-2.1,2.2-3.7,2.4c-1,0.1-2.1,0-2.9,0
		c0.3-0.9,0.7-1.8,1-2.7c0.3-0.8,0.5-1.6,0.7-2.4c0.2-0.8-0.1-1-0.8-0.8c-0.4,0.1-0.8,0.4-1.2,0.6c-0.1-0.1-0.1-0.1-0.2-0.2
		c0.4-0.2,0.7-0.6,1.2-0.7c1.7-0.5,3.4-0.4,5.1,0c0.9,0.2,1.2,0.9,1.3,1.8c0,0.3,0,0.7,0,1c0.6,0.3,1.5-0.2,1.3-0.9
		c-0.2-1-0.5-1.9-0.8-2.9c0.5-0.2,0.8,0.1,0.9,0.7C215.7,284.3,216,284.7,216.3,285.3C216.2,285.3,216.3,285.3,216.3,285.3z
		 M208.6,289.6c2.5,0.6,4.5-1.2,4.4-3.7c-0.1-1.2-1.2-2.1-2.4-1.8c-0.2,0-0.4,0.2-0.5,0.4C209.6,286.2,209.1,287.9,208.6,289.6z"/>
	<path d="M29.1,290.3c1.3-1.9,1.4-4,2.2-6.2c-0.7,0.1-1,0.2-1.4,0.3c-0.3,0.1-0.6,0.3-0.9,0.5c0-0.1-0.1-0.2-0.1-0.3
		c0.6-0.3,1.2-0.7,1.8-0.8c1.3-0.1,2.6-0.2,3.8,0c1.7,0.2,2.3,1.6,1.7,3.5c-0.5,1.5-1.5,2.5-3,2.7C31.8,290.2,30.5,290.2,29.1,290.3
		z M30.8,289.6c2.4,0.6,4.4-1.1,4.4-3.5c0-1.3-1.1-2.2-2.4-2c-0.2,0-0.4,0.2-0.5,0.4C31.8,286.2,31.3,287.9,30.8,289.6z"/>
	<path d="M101,284.1c-0.8,0.3-1.4,0.5-2.1,0.7c0,0-0.1-0.1-0.1-0.1c0.4-0.3,0.8-0.6,1.2-0.8c1.6-0.5,3.3-0.4,4.9,0
		c1.3,0.3,1.7,1.7,1.2,3.4c-0.4,1.3-1.3,2.3-2.7,2.6c-1.4,0.3-2.9,0.3-4.3,0.4C99.7,289.5,101,285.7,101,284.1z M100.8,289.6
		c2.4,0.5,4.4-1.1,4.4-3.5c0-1.4-1-2.2-2.3-2.1c-0.2,0-0.5,0.2-0.5,0.3C101.8,286.1,101.3,287.9,100.8,289.6z"/>
	<path d="M13.4,288.4c-0.2,0.6-0.2,1.1-0.4,1.5c0,0.1-0.3,0.3-0.4,0.3c-1.6,0-3.3,0-5-0.1c0.8-0.2,0.8-0.8,0.8-1.5
		c0-1.2,0-2.5,0-3.7c0-0.6-0.1-1.1-0.8-1.3c1.7,0,3.4,0,5.2,0c0,0.4,0,0.9,0,1.3c-0.7-1.6-2.1-0.7-3.3-1c0,0.9,0,1.6,0,2.4
		c1.3,0.4,2.1,0.2,2.7-0.8c0,0.8,0,1.5,0,2.3c-0.6-1.5-1.7-0.8-2.7-1c0,0.8,0,1.6,0,2.3c0,0.2,0.2,0.4,0.4,0.5c1.1,0.4,2.3-0.1,3-1
		C13.1,288.6,13.2,288.6,13.4,288.4z"/>
	<path d="M50,288.3c0.1-1.7,0.7-3.1,1.9-4.3c0.6-0.5,1.3-0.7,2-0.5c0.7,0.3,0.7,1,0.7,1.7c0,1.5-0.5,2.8-1.4,3.9
		c-0.1,0.1-0.1,0.2-0.2,0.3c-0.6,0.7-1.7,1-2.3,0.7C50,289.8,50,289.1,50,288.3z M51.1,286.7c0.9,0,1.6,0,2.2,0
		c0.1,0,0.3-0.2,0.3-0.3c0.1-0.7,0.2-1.3,0.2-2c0-0.2-0.2-0.5-0.4-0.6c-0.1-0.1-0.5,0.1-0.6,0.3C52.2,284.9,51.7,285.7,51.1,286.7z
		 M53.3,287.2c-2.2-0.3-2.7,0.1-2.4,2.1c0,0.1,0,0.1,0,0.2c0.2,0.6,0.5,0.8,1,0.3C52.8,289.1,53.1,288.2,53.3,287.2z"/>
	<path d="M196.4,285.4c0,1.4-0.5,2.6-1.3,3.7c-0.2,0.3-0.4,0.6-0.6,0.7c-0.6,0.2-1.4,0.5-2,0.4c-0.7-0.2-0.8-1-0.7-1.6
		c0-1.7,0.6-3.1,1.8-4.3c0.6-0.6,1.4-1,2.1-0.6c0.5,0.3,0.6,1.1,0.9,1.6C196.5,285.3,196.5,285.3,196.4,285.4z M192.9,286.6
		c2.6,0.3,2.5,0.4,2.7-1.8c0-0.1,0-0.2,0-0.3c-0.1-0.2-0.2-0.6-0.4-0.7c-0.1-0.1-0.5,0.1-0.6,0.3
		C193.9,284.9,193.5,285.7,192.9,286.6z M195.3,287.2c-2.4-0.3-2.9,0.1-2.6,1.9c0,0.1,0,0.1,0,0.2c0.1,0.2,0.2,0.7,0.4,0.7
		c0.2,0,0.7-0.1,0.8-0.3C194.4,288.9,194.8,288.1,195.3,287.2z"/>
	<path d="M124.9,285.3c-0.3,1.5-0.7,2.8-1.5,3.9c-0.1,0.2-0.3,0.4-0.5,0.6c-0.6,0.5-1.3,0.7-2.1,0.4c-0.7-0.3-0.8-1-0.7-1.7
		c0-1.7,0.6-3.1,1.8-4.3c0.6-0.6,1.4-1,2.1-0.6C124.5,283.9,124.6,284.7,124.9,285.3z M121.3,286.5c0.1,0.1,0.1,0.2,0.2,0.3
		c0.5,0,1,0,1.4,0c0.5,0,0.7-0.2,0.8-0.7c0-0.5,0.1-1.1,0.1-1.6c0-0.2-0.2-0.6-0.4-0.7c-0.2-0.1-0.6,0.1-0.7,0.3
		C122.2,284.9,121.7,285.7,121.3,286.5z M123.6,287.2c-2.5-0.3-2.9,0.1-2.6,2c0,0,0,0.1,0,0.1c0.1,0.3,0.2,0.7,0.4,0.8
		c0.2,0.1,0.6-0.1,0.8-0.4C122.7,288.9,123.1,288.1,123.6,287.2z"/>
	<path d="M61,281.4c-0.4,0-0.8-0.1-1.1-0.1c0-0.1,0-0.1,0-0.2c0.6,0,1.3,0,2,0c0,4.4,0,8.7,0,13.2c-0.7,0-1.3,0-1.9,0
		c0-0.1,0-0.1,0-0.2c0.4,0,0.7-0.1,1.1-0.1C61,289.8,61,285.6,61,281.4z"/>
	<path d="M205.2,289.7c0.2-0.2,0.5-0.4,0.9-0.7c-0.2,0.8-0.7,1.2-1.3,1.2c-0.2,0-0.4-0.4-0.6-0.6c-0.5,0.2-1,0.5-1.6,0.6
		c-0.6,0.1-0.9-0.3-0.9-0.9c-0.2-1.5,1.1-3.2,2.5-3.5c0.3-0.1,0.7,0.1,1.1,0.1c0.2-0.6,0.3-1.2,0.5-1.9c-0.3-0.1-0.4-0.2-0.9-0.3
		c0.7-0.1,1.2-0.2,1.8-0.3c-0.6,2.1-1.1,4.2-1.6,6.2C205,289.7,205.1,289.7,205.2,289.7z M205,287.1c-0.2-0.5-0.3-0.9-0.4-0.9
		c-0.2-0.1-0.7,0-0.8,0.2c-0.5,0.8-1,1.6-1.3,2.4c-0.1,0.2,0.1,0.7,0.3,0.8c0.2,0.1,0.7,0,0.9-0.2
		C204.2,288.7,204.6,287.9,205,287.1z"/>
	<path d="M222.1,289.7c0.2-0.2,0.5-0.4,0.7-0.6c-0.3,0.7-0.7,1.2-1.6,1.1c0-0.3-0.1-0.5-0.1-0.6c-0.6,0.2-1.1,0.5-1.6,0.6
		c-0.6,0.1-1-0.3-1.1-0.9c-0.2-1.4,1.3-3.3,2.7-3.5c0.3,0,0.6,0.1,0.9,0.2c0.7-1.4,0.7-1.9-0.1-2.3c0.4-0.1,0.6-0.1,0.8-0.1
		c0.2,0,0.4-0.1,0.8-0.1c-0.6,2.1-1.1,4.1-1.6,6.2C222,289.7,222.1,289.7,222.1,289.7z M219.3,289.1c0.1,0.2,0.2,0.5,0.4,0.6
		c0.2,0.1,0.6,0,0.8-0.2c0.8-0.7,1.2-1.6,1.3-2.7c0-0.2-0.1-0.6-0.3-0.6c-0.2-0.1-0.5,0-0.7,0.1C220,287,219.6,287.9,219.3,289.1z"
		/>
	<path d="M134.4,286c-0.5,1.7-1,3.4-1.4,5.1c-0.1,0.3,0.1,0.8,0.1,1.2c-0.5,0-1.1,0-2,0c1.3-0.6,1.1-1.9,1.5-2.9
		c-0.2,0.2-0.4,0.5-0.7,0.6c-0.5,0.2-1.1,0.4-1.5,0.2c-0.3-0.1-0.5-0.9-0.5-1.3c0.1-1.4,1.2-2.7,2.4-3
		C133,285.8,133.7,286,134.4,286z M130.7,289c0.1,0.1,0.1,0.5,0.4,0.6c0.2,0.1,0.7,0,0.8-0.2c0.5-0.8,1.1-1.7,1.4-2.6
		c0.2-0.6-0.4-0.9-1-0.6C131.4,286.8,131,287.8,130.7,289z"/>
	<path d="M16.3,293.9c0.5,0.1,0.8,0.1,1.2,0.1c0,0.1,0,0.1,0,0.2c-0.6,0-1.3,0-1.9,0c0-4.4,0-8.8,0-13.2c0.7,0,1.3,0,2,0
		c0,0.1,0,0.1,0,0.2c-0.4,0.1-0.8,0.1-1.2,0.2C16.3,285.6,16.3,289.7,16.3,293.9z"/>
	<path d="M125.4,294.4c2.4-4.5,2.5-8.8,0.1-13.3C129,283.7,129,291.4,125.4,294.4z"/>
	<path d="M97.6,281c-2.5,4.5-2.5,8.9-0.1,13.2C94.2,291.8,93.9,284.2,97.6,281z"/>
	<path d="M27.6,294.4c-3.6-3-3.5-10.8-0.1-13.2C25.1,285.5,25.1,289.9,27.6,294.4z"/>
	<path d="M55.4,294.4c2.5-4.5,2.5-8.9,0.1-13.2C58.7,283.4,59.2,291,55.4,294.4z"/>
	<path d="M197.2,294.3c2.4-4.5,2.5-8.8-0.1-13.4C200.7,283.9,200.7,291.7,197.2,294.3z"/>
	<path d="M138.8,294.4c-3.6-3.1-3.6-10.2,0-13.5C136.3,285.5,136.3,289.9,138.8,294.4z"/>
	<path d="M21.1,288.4c-0.2,0.8-1.2,1.8-1.9,1.9c-0.7,0.1-1.1-0.2-1-1c0.2-0.9,0.6-1.7,0.9-2.6c-0.1-0.1-0.4-0.2-0.6-0.3
		c1.3,0.3,1.5-0.9,2.1-1.4c0.5-0.5,1-1,1.6-1.4c0.2-0.2,0.8-0.2,0.9,0c0.2,0.2,0.3,0.7,0.2,1c-0.4,1.1-1.3,1.6-2.3,1.9
		c-0.8,0.3-2.2,2.2-2.1,3c0,0.1,0.1,0.4,0.2,0.4c0.2,0,0.5,0,0.6-0.2c0.5-0.5,0.9-1,1.3-1.5C21,288.3,21.1,288.3,21.1,288.4z
		 M20.5,286c0.1,0.1,0.1,0.1,0.2,0.2c0.9-0.3,1.8-0.7,2.2-1.7c0.1-0.2,0-0.5,0-0.7c-0.2,0-0.5,0-0.7,0.2
		C21.6,284.6,21,285.3,20.5,286z"/>
	<path d="M91.3,288.5c-0.6,0.6-1,1.4-1.9,1.7c-0.8,0.2-1.3-0.2-1.1-1c0.2-0.9,0.6-1.7,0.9-2.6c-0.1-0.1-0.4-0.2-0.6-0.4
		c1.1,0.3,1.3-0.6,1.8-1.1c0.5-0.6,1.1-1.1,1.7-1.6c0.3-0.2,0.8-0.1,1.2-0.1c0,0.4,0.1,0.9,0,1.2c-0.4,0.9-1.3,1.4-2.2,1.7
		c-0.8,0.3-2.2,2.1-2.2,3c0,0.6,0.4,0.5,0.8,0.3c0.4-0.3,0.8-0.8,1.2-1.2c0.1-0.1,0.2-0.2,0.4-0.2C91.2,288.4,91.3,288.5,91.3,288.5
		z M90.5,286c0.1,0.1,0.1,0.1,0.2,0.2c0.9-0.3,1.8-0.7,2.2-1.6c0.1-0.2,0-0.5,0-0.7c-0.2,0-0.5,0-0.7,0.2
		C91.6,284.6,91.1,285.3,90.5,286z"/>
	<path d="M45.7,283.3c0.1,0.2,0.4,0.4,0.4,0.6c0,2.6,0,5.2,0,7.8c0,0.2-0.2,0.4-0.4,0.6c-0.1,0-0.2-0.1-0.2-0.1c0-2.9,0-5.7,0-8.6
		C45.5,283.4,45.6,283.4,45.7,283.3z"/>
	<path d="M115.6,283.3c0.1,0.2,0.4,0.3,0.4,0.5c0,2.6,0,5.2,0,7.8c0,0.2-0.3,0.3-0.4,0.5c-0.1-0.1-0.1-0.1-0.2-0.2
		c0-2.9,0-5.7,0-8.6C115.5,283.4,115.6,283.4,115.6,283.3z"/>
	<path d="M171.2,283.3c0.1,0.2,0.4,0.4,0.4,0.5c0,2.6,0,5.2,0,7.8c0,0.2-0.2,0.3-0.3,0.5c-0.1-0.2-0.3-0.4-0.3-0.6c0-2.7,0-5.3,0-8
		C171,283.4,171.1,283.4,171.2,283.3z"/>
	<path d="M67.1,288.4c1.9,0,3.8,0,5.7,0c0,0.1,0.1,0.1,0.1,0.2c-0.2,0.1-0.4,0.4-0.6,0.4c-1.6,0-3.2,0-4.9,0c-0.2,0-0.4-0.3-0.6-0.4
		C67,288.5,67,288.5,67.1,288.4z"/>
	<path d="M66.9,286.7c0.2-0.1,0.4-0.4,0.6-0.4c1.6,0,3.2,0,4.9,0c0.2,0,0.4,0.2,0.6,0.4c0,0.1-0.1,0.2-0.1,0.2c-1.9,0-3.8,0-5.7,0
		C67,286.9,67,286.8,66.9,286.7z"/>
	<path d="M106.6,284.1c0.6,0,1.2-0.1,1.8-0.1c0-0.6,0.1-1.2,0.1-1.8c0.1,0,0.2,0,0.3,0c0.1,0.6,0.1,1.2,0.2,1.8
		c0.5,0,1.1,0.1,1.6,0.1c0,0.1,0,0.2,0,0.3c-0.6,0.1-1.1,0.2-1.7,0.2c0,0.6-0.1,1.1-0.1,1.7c-0.1,0-0.2,0-0.4,0
		c0-0.5-0.1-1.1-0.1-1.7c-0.6-0.1-1.2-0.2-1.8-0.3C106.6,284.3,106.6,284.2,106.6,284.1z"/>
	<path d="M39.1,284.1c0.5,0,1,0,1.6,0c0,0.1,0,0.2,0.1,0.3c-0.6,0.1-1.1,0.2-1.7,0.2c0,0.6-0.1,1.1-0.1,1.7c-0.1,0-0.2,0-0.4,0
		c0-0.6-0.1-1.1-0.1-1.7c-0.6-0.1-1.2-0.2-1.8-0.2c0-0.1,0-0.2,0-0.3c0.6,0,1.2,0,1.8,0c0-0.7,0.1-1.3,0.1-2
		C39.2,282.7,38.7,283.4,39.1,284.1z"/>
	<g>
		<path d="M129.7,333.1c-0.3,0-0.8,0-1.3,0c0.7-0.8,0.6-3.9-0.1-4.2c0.4-0.2,0.7-0.4,1.1-0.6C129.7,330,129.2,331.6,129.7,333.1z"/>
		<path d="M121.7,330.3c-0.9,0.1-1.8,1.4-1.3,2.2c0.1,0.2,0.5,0.3,0.8,0.3c0.2,0,0.4-0.2,0.8-0.4c-0.5,0.9-1.1,1-1.8,0.7
			c-0.7-0.3-0.6-1-0.4-1.6c0.2-0.9,1.1-1.6,2-1.5c0.1,0,0.2,0,0.2,0c0.2,0.2,0.3,0.3,0.4,0.5c0,0-0.2,0.2-0.3,0.3
			C122,330.7,121.9,330.5,121.7,330.3z"/>
		<g>
			<path d="M130,326.5c-3.4,0-6.8,0-10.3,0c1.9-2.5,3.7-4.8,5.5-7.2c-1.7-2.3-3.4-4.6-5.1-7c3.3,0,6.4,0,9.6,0c0,1.1,0,2.3,0,3.4
				c-0.1,0-0.1,0-0.2,0c-0.1-0.3-0.2-0.6-0.3-0.9c-0.4-1.2-0.8-1.6-2-1.6c-1.3-0.1-2.7,0-4.1,0c0.2,0.3,0.2,0.4,0.4,0.6
				c1,1.4,2,2.8,3.1,4.2c0.5,0.6,0.3,0.9-0.1,1.5c-1.2,1.5-2.4,3.1-3.5,4.6c-0.1,0.2-0.2,0.4-0.4,0.6c2.1,0,4,0,6,0
				c0.8,0,1.3-0.6,1.5-1.3c0.1-0.3,0.2-0.6,0.4-0.9c0.1,0,0.2,0,0.3,0.1C130.5,323.8,130.3,325.1,130,326.5z"/>
			<path d="M136.4,331c0.6,0,1.1,0.1,1.6,0.1c0,0.1,0,0.2,0,0.3c-0.8,0.2-1.7,0.1-2.6,0.1c0-8.1,0-16.1,0-24.2c0.9,0,1.7,0,2.6,0
				c0,0.1,0,0.2,0,0.3c-0.5,0-1.1,0.1-1.6,0.1C136.4,315.5,136.4,323.3,136.4,331z"/>
			<path d="M151.9,318.4c0.9,0.5,1.1,1.3,0.9,2.1c-0.2,0.8-0.9,1.2-1.8,1.3c-1.1,0.1-2.3,0.1-3.3,0.2c0.3-0.6,0.5-1,0.7-1.5
				c0.4-1.2,0.7-2.5,1-3.8c0.1-0.4-0.1-0.8-0.2-1.2c0.5,0,1.3,0,2.1,0c1.2,0,1.8,0.4,2,1.1C153.4,317.4,153.1,317.8,151.9,318.4z
				 M151.7,319.9c0-0.7-0.4-1.1-1-1.2c-0.8-0.2-1,0.3-1.1,0.9c-0.1,0.4-0.2,0.8-0.3,1.2c-0.2,0.5,0,0.7,0.5,0.8
				C150.8,321.7,151.7,320.8,151.7,319.9z M150,318.2c1.4,0.2,2.4-0.5,2.2-1.5c-0.1-0.3-0.5-0.7-0.8-0.9c-0.5-0.2-0.8,0.1-0.9,0.6
				C150.4,316.9,150.2,317.5,150,318.2z"/>
			<path d="M21.7,318.5c0,0.9,0,1.6,0,2.3c0,0.2,0.3,0.5,0.5,0.5c1.2,0.4,2.3-0.1,3-1.1c0-0.1,0.1-0.1,0.4-0.3
				c-0.2,0.7-0.3,1.2-0.4,1.8c-1.7,0-3.5,0-5.5,0c1-0.4,1-1,1-1.7c0-1.2,0-2.3,0-3.5c0-0.6,0-1.1-0.7-1.3c1.7,0,3.4,0,5.1,0
				c0,0.5,0,0.9,0,1.4c-0.6-0.9-2.2-1.4-3.1-1c-0.1,0.1-0.2,0.3-0.3,0.5c0,0.6,0,1.2,0,1.8c1.4,0.4,2.1,0.2,2.8-0.8
				c0,0.8,0,1.5,0,2.2C23.9,318.1,22.8,318.8,21.7,318.5z"/>
			<path d="M217.7,315c1,2.3,2,4.5,2.9,6.8c-0.8,0-1.8,0-2.8,0c0.8-0.3,0.7-0.9,0.4-1.5c-0.4-1-0.8-1.9-1.2-3.1
				c-0.5,1.4-0.9,2.5-1.3,3.7c-0.1,0.2,0.3,0.6,0.5,0.9c-0.5,0-1.2,0-1.9,0c1.2-1.2,1.4-2.8,2.1-4.2c0.4-0.9,0.7-1.8,1.1-2.7
				C217.5,315,217.6,315,217.7,315z"/>
			<path d="M64.9,315.4c0,0.5,0,0.9,0,1.3c-0.8-1.6-2.1-0.7-3.3-1c0,0.9,0,1.6,0,2.5c0.9-0.2,2.1,0.5,2.7-1.1c0,0.9,0,1.6,0,2.6
				c-0.6-1.7-1.7-0.9-2.7-1.1c0,0.9,0,1.6,0,2.4c0,0.2,0.2,0.4,0.4,0.4c1.1,0.4,2.4-0.1,3-1c0.1-0.1,0.2-0.1,0.4-0.3
				c-0.2,0.6-0.2,1.1-0.4,1.5c0,0.1-0.3,0.3-0.4,0.3c-1.6,0-3.3,0-5-0.1c0.9-0.2,0.8-0.9,0.8-1.6c0-1.2,0-2.5,0-3.7
				c0-0.6-0.1-1-0.8-1.2C61.4,315.4,63.1,315.4,64.9,315.4z"/>
			<path d="M183.3,316.7c-0.7-1.7-2.2-0.6-3.3-1.1c0,0.9,0,1.6,0,2.4c1.3,0.4,2.1,0.2,2.7-0.8c0,0.8,0,1.5,0,2.3
				c-0.6-1.5-1.7-0.8-2.7-1c0,0.8,0,1.6,0,2.3c0,0.2,0.2,0.4,0.4,0.5c1.1,0.4,2.3-0.1,3-1c0.1-0.1,0.2-0.1,0.4-0.3
				c-0.2,0.6-0.2,1.1-0.4,1.5c0,0.1-0.3,0.3-0.4,0.3c-1.6,0-3.3,0-5-0.1c0.8-0.2,0.8-0.8,0.8-1.5c0-1.2,0-2.5,0-3.7
				c0-0.6-0.1-1.1-0.8-1.3c1.7,0,3.4,0,5.2,0C183.3,315.8,183.3,316.2,183.3,316.7z"/>
			<path d="M144.1,320.3c-0.1,0.5-0.3,1-0.4,1.6c-1.8,0-3.5,0-5.2,0c0.9-0.3,0.7-1.1,0.7-1.8c0-1.1,0-2.2,0-3.3
				c0-0.6-0.1-1.1-0.8-1.3c1.7,0,3.3,0,5.1,0c0,0.4,0,0.9,0.1,1.3c-0.7-1.6-2.1-0.7-3.3-1c0,0.8,0,1.6,0,2.4c1.3,0.4,2,0.2,2.6-0.8
				c0,0.8,0,1.5,0,2.2c-0.6-1.4-1.7-0.6-2.7-0.9c0,0.9,0,1.6,0,2.3c0,0.2,0.4,0.5,0.6,0.5c1.2,0.1,2.4,0.2,3-1.3
				C143.9,320.1,144,320.2,144.1,320.3z"/>
			<path d="M76.2,315.3c-1.5,1.7-2.9,3.3-3.3,5.6c0,0.3,0.3,0.6,0.5,0.9c-0.9,0-1.9,0-3.2,0c1.6-0.7,1.7-2.1,1.6-3.2
				c-0.1-1.1-0.3-2.4-1.5-3.3c1,0,1.9,0,2.7,0c-1.1,1,0.1,1.8,0.1,2.8c0.1,0,0.1,0.1,0.2,0.1c0.4-0.7,0.9-1.3,1.3-2
				c0.1-0.2-0.2-0.5-0.3-0.8C74.9,315.3,75.5,315.3,76.2,315.3z"/>
			<path d="M93.2,318.4c-0.4,0.2-0.8,0.4-1.2,0.5c0.1-0.8,0.8-1.4,1.6-1.5c1.2,0,2.4,0,3.6,0c-0.1,0.3-0.1,0.6-0.1,0.8
				c-0.5,0.2-1.1,0.3-1.2,0.7c-0.3,0.7-0.7,1.5-0.2,2.5c0.3-0.3,0.6-0.5,0.8-0.8c-0.1,1.1-1,1.7-1.8,1.4c-0.6-0.2-0.6-0.7-0.5-1.2
				c0.1-0.4,0.2-0.7,0.3-1.1c0.1-0.3,0.3-0.7,0.4-1.1c-0.5-0.2-0.7-0.1-0.9,0.4c-0.2,0.7-0.5,1.5-0.8,2.1c-0.1,0.3-0.4,0.7-0.7,0.8
				c-0.3,0.1-0.6-0.1-1-0.1c0.1-0.3,0.2-0.6,0.3-0.8c0.5-0.7,1.1-1.5,1.6-2.2C93.4,318.6,93.3,318.5,93.2,318.4z"/>
			<path d="M198.7,325.9c-0.7,0-1.3,0-1.9,0c0-0.1,0-0.1,0-0.2c0.4,0,0.7-0.1,1.2-0.1c0-4.1,0-8.3,0-12.5c-0.4,0-0.8-0.1-1.1-0.1
				c0-0.1,0-0.1,0-0.2c0.6,0,1.3,0,2,0C198.7,317.1,198.7,321.5,198.7,325.9z"/>
			<path d="M169.5,315.3c0.9,0,1.9,0,3,0c-1.1,0.6-1,1.6-1.3,2.4c-0.3,0.9-0.5,1.9-0.8,2.8c-0.1,0.5-0.2,1.1,0.6,1.3
				c-0.9,0-1.9,0-2.7,0c0.3-0.7,0.6-1.3,0.8-2.1c0.3-1,0.6-2.1,0.9-3.1C170.2,315.7,170.2,315.7,169.5,315.3z"/>
			<path d="M51.1,315.3c0.9,0,1.9,0,3,0c-1.2,0.6-1.1,1.8-1.4,2.7c-0.3,0.8-0.5,1.7-0.7,2.5c-0.1,0.5-0.3,1.1,0.6,1.3
				c-0.9,0-1.9,0-2.7,0c0.3-0.6,0.6-1.2,0.8-1.8c0.4-1.1,0.6-2.2,0.9-3.4C51.8,315.7,51.8,315.7,51.1,315.3z"/>
			<path d="M32.9,315.2c0.3,1.8,0.6,3.5,0.9,5.3c0.1,0.4,0.3,0.8,0.5,1.3c-0.6,0-1.3,0-2.2,0c1.3-0.5,0.5-1.3,0.6-2
				c-1.6-0.4-2.1-0.2-2.7,0.8c-0.2,0.5-0.4,0.9,0.5,1.2c-0.8,0-1.4,0-1.8,0c1.3-2.2,2.6-4.4,4-6.7C32.8,315.2,32.9,315.2,32.9,315.2
				z M32.3,317c-0.1,0-0.1,0-0.2,0c-0.4,0.7-0.8,1.4-1.2,2.2c0.7,0,1.2,0,1.8,0C32.5,318.4,32.4,317.7,32.3,317z"/>
			<path d="M188.4,317.5c0.4-0.1,0.8-0.1,1.4-0.2c0.2,1,0.5,2.1,0.7,3.3c0.2-0.5,0.4-0.8,0.6-1.2c0.2-0.4,0.3-0.7-0.1-1.1
				c-0.2-0.2-0.2-0.6-0.1-0.8c0-0.1,0.5-0.3,0.6-0.2c0.2,0.2,0.4,0.5,0.4,0.7c-0.5,2.1-1.5,4-3.1,5.4c-0.3,0.2-0.7,0.4-1,0.3
				c-0.2,0-0.4-0.4-0.6-0.6c0.2-0.2,0.5-0.5,0.7-0.4c1.2,0.2,1.7-0.2,1.5-1.5c-0.1-0.7-0.2-1.4-0.4-2.1
				C189,318.6,188.7,318.1,188.4,317.5z"/>
			<path d="M186,312.7c0.7,0,1.3,0,1.9,0c0,0.1,0,0.1,0,0.2c-0.4,0.1-0.8,0.1-1.2,0.2c0,4.2,0,8.3,0,12.5c0.4,0,0.8,0.1,1.2,0.1
				c0,0.1,0,0.1,0,0.2c-0.6,0-1.3,0-1.9,0C186,321.5,186,317.1,186,312.7z"/>
			<path d="M68.3,313.1c0,4.2,0,8.3,0,12.5c0.4,0,0.8,0.1,1.2,0.1c0,0.1,0,0.1,0,0.2c-0.6,0-1.3,0-1.9,0c0-4.3,0-8.7,0-13.2
				c0.6,0,1.3,0,1.9,0c0,0.1,0,0.1,0,0.2C69.2,313,68.8,313,68.3,313.1z"/>
			<path d="M77.7,313.1c-0.4-0.1-0.8-0.1-1.1-0.1c0-0.1,0-0.1,0-0.2c0.6,0,1.2,0,1.9,0c0,4.4,0,8.8,0,13.2c-0.6,0-1.3,0-1.9,0
				c0-0.1,0-0.1,0-0.2c0.4,0,0.7-0.1,1.1-0.1C77.7,321.4,77.7,317.3,77.7,313.1z"/>
			<path d="M87.8,321.8c0.6-0.6,0.8-3.1,0.4-3.7c-0.1-0.2-0.5-0.3-0.6-0.3c-0.3,0.1-0.8,0.4-0.8,0.6c-0.1,0.9-0.1,1.8,0,2.7
				c0,0.2,0.3,0.4,0.4,0.6c-0.6,0-1.2,0-1.9,0c0.8-0.9,0.8-3.6-0.1-4.1c0.5-0.2,0.9-0.3,1.3-0.5c0.1,0.2,0.1,0.4,0.2,0.6
				c0.2-0.1,0.3-0.2,0.5-0.3c1-0.6,1.9-0.3,2,0.9c0.1,0.8,0,1.5,0.1,2.3c0,0.4,0.2,0.7,0.3,1.1C89.1,321.8,88.5,321.8,87.8,321.8z"
				/>
			<path d="M110.9,323.8c0.1-1,0.4-1.7,1.2-2c0.7-0.3,1.5-0.3,2.2,0.3c0.6,0.6,0.7,1.3,0.4,2c-0.5,0.8-1.1,1.6-1.7,2.3
				c-0.2,0.3-0.5,0.6-1,1.1c1.2-0.2,2.3,0.4,3.3-0.7c-0.4,1.5-0.4,1.5-1.7,1.5c-0.8,0-1.7,0-2.5,0c0,0-0.1-0.1-0.2-0.1
				c0.6-0.6,1.2-1.2,1.7-1.9c0.5-0.6,0.9-1.2,1.2-1.8c0.4-0.9,0.1-1.6-0.6-2c-0.7-0.4-1.3-0.1-1.9,0.8
				C111.2,323.4,111.1,323.5,110.9,323.8z"/>
			<path d="M207.3,321.8c-0.7,0-1.3,0-1.9,0c0.8-0.9,0.7-3.6-0.1-4.1c0.5-0.2,0.9-0.3,1.4-0.5c0.1,0.2,0.2,0.4,0.2,0.6
				c0.2-0.1,0.3-0.3,0.5-0.4c1-0.5,1.8-0.1,1.9,1c0.1,0.6,0,1.3,0.1,2c0,0.5,0.2,0.9,0.3,1.4c-0.4,0-1,0-1.6,0
				c0.9-1.1,0.5-2.4,0.4-3.5c0-0.2-0.5-0.5-0.6-0.4c-0.3,0.1-0.9,0.4-0.9,0.6c-0.1,0.9-0.1,1.8,0,2.7
				C206.9,321.4,207.1,321.6,207.3,321.8z"/>
			<path d="M212.8,312.7c0.8-0.2,0.7,0.2,0.7,0.6c0,2.7,0,5.5,0,8.2c0,1.5,0,3,0,4.5c-0.8,0.3-0.7-0.2-0.7-0.6c0-3.6,0-7.2,0-10.8
				C212.8,313.9,212.8,313.3,212.8,312.7z"/>
			<path d="M222.2,312.7c0.8-0.2,0.7,0.2,0.7,0.6c0,2.7,0,5.5,0,8.2c0,1.5,0,3,0,4.5c-0.1,0-0.2,0.1-0.2,0.1
				c-0.2-0.2-0.4-0.4-0.4-0.6C222.2,321.3,222.2,317,222.2,312.7z"/>
			<path d="M155.9,315.4c0,2.7,0,5.3,0,8c-0.7,0-1.4,0-2,0c0-0.1,0-0.2,0-0.2c1.2-0.3,1.2-0.3,1.2-1.7c0-1.5,0-3,0-4.4
				c0-1.4,0-1.4-1.2-1.7C154.6,315.4,155.2,315.4,155.9,315.4z"/>
			<path d="M147.2,315.4c-1.3,0.3-1.3,0.3-1.3,1.6c0,1.7,0,3.4,0,5c0,0.7,0.1,1.2,1,1c0.1,0,0.2,0.1,0.3,0.2c-0.6,0-1.3,0-2,0
				c0-2.6,0-5.2,0-7.9C145.7,315.4,146.4,315.4,147.2,315.4z"/>
			<path d="M28.6,315.4c-1.2,0.3-1.2,0.3-1.2,1.6c0,1.7,0,3.4,0,5c0,0.7,0.1,1.2,1,1c0.1,0,0.2,0.1,0.2,0.2c-0.6,0-1.3,0-2,0
				c0-2.6,0-5.3,0-8C27.3,315.4,28,315.4,28.6,315.4z"/>
			<path d="M105.8,319.7c-0.8,0-1.6,0-2.3,0c-0.5,0.8,0.3,1.9-0.5,2.6c-0.1,0-0.2,0-0.3-0.1c0-0.8,0-1.6,0-2.4
				c-0.8-0.5-2,0.4-2.6-0.5c0-0.1,0-0.2,0.1-0.3c0.8,0,1.6,0,2.5,0c0-0.9,0-1.7,0-2.4c0.1-0.1,0.1-0.1,0.2-0.2
				c0.2,0.2,0.4,0.3,0.5,0.5c0.1,0.7,0,1.3,0,2c0.9,0.3,1.9-0.2,2.6,0.4C105.8,319.4,105.8,319.5,105.8,319.7z"/>
			<path d="M44.4,316.5c0,0.8,0,1.6,0,2.4c0.9,0,1.6,0,2.4,0c0.1,0.7,0.1,0.7-0.8,0.7c-0.5,0-1,0-1.6,0c0,0.8,0,1.7,0,2.5
				c-0.7,0-0.7,0-0.7-0.9c0-0.5,0-1,0-1.4c-0.9-0.5-2,0.3-2.6-0.5c0-0.1,0-0.2,0.1-0.3c0.8,0,1.6,0,2.4,0c0.6-0.8-0.3-2,0.5-2.6
				C44.2,316.4,44.3,316.5,44.4,316.5z"/>
			<path d="M111.7,309.5c0.6-0.3,1.1-0.6,1.9-0.9c0,1.1,0,2,0,3c0,0.9,0,1.7,0,2.6c0,0.6,0.1,1,0.7,1.2c-0.8,0-1.6,0-2.4,0
				c0.8-0.3,0.8-0.9,0.8-1.6c0-1.1,0-2.2,0-3.3C112.7,309.7,112.6,309.3,111.7,309.5z"/>
			<path d="M162.9,319.6c0,0.8,0,1.4,0,2.1c0,0.2-0.2,0.3-0.3,0.5c-0.1-0.2-0.3-0.3-0.3-0.5c0-0.6,0-1.3,0-1.9
				c-0.9-0.4-1.9,0.2-2.7-0.3c0-0.2,0.1-0.3,0.1-0.5c0.8,0,1.6,0,2.6,0c0-0.5,0-0.9,0-1.2c0.1-0.4,0.2-0.9,0.3-1.3
				c0.1,0.5,0.2,0.9,0.3,1.4c0,0.4,0,0.7,0,1.1c0.9,0.1,1.7,0.2,2.5,0.3c0,0,0,0.3,0,0.5C164.6,319.6,163.8,319.6,162.9,319.6z"/>
			<path d="M37.4,323.4c-0.7,0-1.3,0-2,0c0-0.1,0-0.2,0-0.2c1.3-0.2,1.3-0.2,1.3-1.6c0-1.5,0-3.1,0-4.6c0-1.4,0.2-1.3-1.3-1.6
				c0.6,0,1.2,0,1.9,0C37.4,318,37.4,320.7,37.4,323.4z"/>
			<path d="M202.9,315.4c0.3-0.1,0.8-0.2,1.4-0.4c0,1.9,0,3.6,0,5.4c0,0.5,0.2,0.9,0.3,1.4c-0.5,0-1.2,0-1.6,0
				c0.1-0.5,0.3-1,0.4-1.6c0.1-1.2,0.1-2.5,0-3.7C203.4,316.2,203.1,315.9,202.9,315.4z"/>
			<path d="M82.5,315.5c0.5-0.1,0.9-0.3,1.5-0.5c0,1.9,0,3.7,0,5.5c0,0.4,0.2,0.9,0.4,1.3c-0.5,0-1.2,0-1.7,0
				c0.1-0.4,0.4-0.9,0.4-1.4c0.1-1.3,0-2.6,0-3.8C83.2,316.1,83.2,315.6,82.5,315.5z"/>
			<path d="M127.8,305.3c-0.1,0.4-0.1,0.8-0.2,1.3c-0.7-1.4-1.4-1.6-2.4-0.6c-0.7,0.7-0.9,1.6-0.8,2.6c0.1,0.8,0.9,1.2,1.7,0.8
				c0.4-0.2,0.7-0.4,1.1-0.7c-0.7,1.1-1.9,1.5-2.8,1c-0.8-0.4-1.2-1.5-0.8-2.6c0.5-1.4,1.7-2.1,3.1-2
				C127.1,305.3,127.4,305.3,127.8,305.3z"/>
			<path d="M57.6,317.8c-0.5,0-1,0-1.4,0c0.1-0.6,0.2-1.1,0.3-1.7c0.1-0.6,0-1.3,0-1.9c0-0.3-0.2-0.8-0.3-0.7c-0.3,0-0.7,0.2-1,0.3
				c-0.1,0.1-0.1,0.3-0.3,0.6c0-0.5,0-0.8,0-1.2c1.3,0,2.5,0,3.9,0c0,0.3,0,0.7,0,0.9c-0.4-0.2-0.8-0.5-1.3-0.8
				c-0.1,0.1-0.2,0.1-0.3,0.2C57.4,314.9,56.9,316.3,57.6,317.8z"/>
			<path d="M177.2,314c-0.4-0.2-0.9-0.5-1.3-0.8c-0.1,0.1-0.2,0.1-0.2,0.2c0.2,1.4-0.4,2.9,0.4,4.3c-0.4,0-1,0-1.4,0
				c0.1-0.5,0.3-0.9,0.3-1.4c0.1-0.7,0-1.5,0-2.2c0-0.3-0.2-0.7-0.2-0.7c-0.3,0-0.7,0.1-1,0.3c-0.1,0.1-0.2,0.3-0.4,0.6
				c0-0.5,0-0.8,0-1.2c1.3,0,2.6,0,3.9,0C177.2,313.5,177.2,313.9,177.2,314z"/>
			<path d="M115.8,319.1c-2,0-3.9,0-5.9,0c-0.2-0.4-0.2-0.7,0.4-0.7c1.7,0,3.4,0,5.1,0c0.2,0,0.4,0.2,0.6,0.4
				C116,318.9,115.9,319,115.8,319.1z"/>
			<path d="M16.6,320.2c-0.2,0.1-0.4,0.4-0.6,0.4c-1.6,0-3.2,0-4.9,0c-0.2,0-0.4-0.3-0.6-0.4c0-0.1,0.1-0.1,0.1-0.2
				c1.9,0,3.8,0,5.7,0C16.5,320.1,16.5,320.2,16.6,320.2z"/>
			<path d="M16.6,318.2c-0.2,0.1-0.3,0.4-0.5,0.4c-1.8,0-3.5,0-5.5-0.2c0.1-0.2,0.3-0.5,0.4-0.5c1.8,0,3.6,0,5.4,0
				C16.5,318.1,16.6,318.1,16.6,318.2z"/>
			<path d="M229.7,319.7c-1.7,0-3.3,0-5,0c-0.2,0-0.3-0.3-0.5-0.5c0.1-0.1,0.1-0.1,0.2-0.2c1.7,0,3.3,0,5,0c0.2,0,0.3,0.3,0.5,0.4
				C229.8,319.5,229.7,319.6,229.7,319.7z"/>
			<path d="M194.6,320c-0.9,0.1-1.6,1.3-1.4,2.1c0.2,0.6,0.7,0.6,1.6,0c-0.2,0.7-0.7,0.9-1.5,0.8c-0.6-0.1-0.7-0.6-0.7-1.1
				c0-1.1,1-2.1,2-2c0.2,0,0.4,0,0.5,0.1c0.1,0.1,0.2,0.3,0.2,0.5c0,0.1-0.2,0.2-0.4,0.3C194.8,320.5,194.7,320.2,194.6,320z"/>
		</g>
		<path d="M122.9,330.5c1.4,0,2.7,0,4.1,0c-0.3,0.5-0.7,0.6-3.6,0.4c-0.2,0-0.4-0.1-0.6-0.2C122.9,330.6,122.9,330.6,122.9,330.5z"
			/>
		<path d="M122.9,331.8c1.5,0,2.8,0,4.2,0.1C126.1,332.5,123.1,332.4,122.9,331.8z"/>
	</g>
	<path d="M188.9,290.4c-0.4-0.1-0.8-0.2-0.9-0.4c-0.1-0.1,0.1-0.5,0.2-0.8c0.3,0.1,0.8,0.2,1,0.4c0.4,0.7-0.1,1.5-1.1,1.9
		C188.4,291.1,188.7,290.7,188.9,290.4z"/>
	<path d="M151.8,291.5c0.3-0.4,0.6-0.7,0.9-1.2c-0.2,0-0.4,0-0.4-0.1c-0.2-0.1-0.4-0.3-0.7-0.5c0.2-0.2,0.4-0.6,0.5-0.5
		c0.3,0.1,0.7,0.2,0.9,0.5C153.2,290.4,152.7,291.2,151.8,291.5z"/>
	<path d="M216.2,285.2c0.1-0.2,0.2-0.4,0.3-0.6c0.1-0.5,0.1-0.9,0.2-1.6c0.3-0.1,0.5,0,0.4,0.5C216.9,284.2,216.6,284.7,216.2,285.2
		C216.3,285.3,216.2,285.3,216.2,285.2z"/>
	<g>
		<path d="M543.6,321.9c1.3,0,2.7,1.3,4-0.4c0,0.1,0.1,0.1,0.1,0.2c0,0.2,0,0.3-0.1,0.5c-0.7,1-1.7,1.3-2.8,1.1c-1-0.2-2-0.3-3-0.5
			c0.4-0.4,0.9-0.8,1.5-1.4c-1.8-0.8-1.9-2.2-1.4-3.7c0.6-1.7,1.7-3,3.6-3.3c2-0.3,3.3,1.3,2.6,3.4c-0.5,1.8-1.6,3.2-3.6,3.5
			c-0.3,0-0.5,0.1-0.8,0.2C543.6,321.8,543.6,321.9,543.6,321.9z M546.8,316c-0.2-0.3-0.4-0.8-0.8-0.9c-0.3-0.1-0.9,0.1-1.3,0.4
			c-0.3,0.2-0.6,0.6-0.7,1c-0.4,1-0.6,2.1-0.9,3.2c-0.2,0.6,0,1.3,0.6,1.4c0.4,0.1,1.1-0.1,1.4-0.5
			C546.2,319.3,546.5,317.8,546.8,316z"/>
		<path d="M528.7,321.7c-0.4,1.2-1.6,1.9-2.9,1.7c-0.6-0.1-1.1-0.4-1.6-0.4c-0.5,0-1,0.1-1.8,0.2c0.7-0.6,1.2-1.1,1.6-1.5
			c-0.5-0.6-1.2-1.1-1.3-1.8c-0.2-0.8,0-1.7,0.3-2.5c0.6-1.8,2.5-3.1,4.1-2.9c1.6,0.2,2.5,1.7,1.9,3.5c-0.6,1.8-1.6,3.2-3.7,3.5
			c-0.3,0-0.5,0.1-0.9,0.3C526.4,322.6,527.2,322.6,528.7,321.7z M527.8,316c-0.2-0.3-0.4-0.8-0.8-0.9c-0.3-0.1-0.9,0.1-1.3,0.4
			c-0.3,0.2-0.6,0.6-0.7,1c-0.4,1-0.6,2.1-0.9,3.2c-0.2,0.6,0,1.3,0.6,1.4c0.4,0.1,1.1-0.2,1.4-0.5
			C527.2,319.3,527.5,317.8,527.8,316z"/>
		<path d="M414.2,322.9c0.5-0.4,1-0.9,1.6-1.4c-1.7-0.7-1.9-2.1-1.4-3.6c0.5-1.8,1.7-3,3.6-3.4c1.7-0.3,2.9,0.9,2.8,2.7
			c-0.2,2.1-1.7,3.8-3.8,4.3c-0.3,0.1-0.5,0.2-1,0.3c2.1,0.7,2.3,0.7,4.3,0c-0.3,1-1.4,1.7-2.6,1.6c-0.3,0-0.7-0.1-1-0.2
			C415.9,323.1,415.1,323,414.2,322.9z M419.3,316c-0.2-0.2-0.3-0.8-0.7-1c-0.3-0.2-0.8,0.1-1.2,0.3c-0.3,0.1-0.5,0.4-0.6,0.7
			c-0.4,1.2-0.8,2.3-1.2,3.5c-0.2,0.6-0.1,1.2,0.6,1.5c0.7,0.3,1.2-0.2,1.5-0.7C418.7,319.2,419.1,317.8,419.3,316z"/>
		<path d="M557.3,307.2c0.8,0,1.7,0,2.6,0c0,8,0,16,0,24.1c-0.9,0-1.7,0-2.5,0c0-0.1,0-0.2,0-0.3c0.5,0,1-0.1,1.6-0.1
			c0-7.8,0-15.5,0-23.3c-0.5,0-1.1-0.1-1.6-0.1C557.3,307.4,557.3,307.3,557.3,307.2z"/>
		<path d="M503.8,314.7c-1.5,2.2-2.9,4.1-4.4,6.1c1.2,0.4,1.8,0.1,3.8-1.4c-0.2,0.6-0.3,1.2-0.6,1.8c0,0.1-0.3,0.2-0.5,0.2
			c-1.5,0-3,0-4.8,0c1.5-2.2,3-4.2,4.4-6.2c-1.5-0.3-2.4,0.5-3.3,1.6c0-1.7,0.3-2,1.7-2C501.3,314.7,502.4,314.7,503.8,314.7z"/>
		<path d="M509.3,316.6c-0.1-1.5,0.3-2,1.5-2c1.1,0,2.3,0,3.7,0c-1.5,2.2-2.9,4.1-4.3,6.1c1.1,0.3,1.2,0.3,3.8-1.6
			c-0.2,0.8-0.4,1.4-0.6,2.1c-1.6,0-3.3,0-5.2,0c1.5-2.1,2.9-4.1,4.4-6.2C511,314.8,510.1,315.6,509.3,316.6z"/>
		<path d="M386.2,321.3c1.5-2.2,2.9-4.1,4.4-6.2c-1.5-0.3-2.4,0.5-3.3,1.5c-0.1-1.5,0.3-2,1.5-2c1.1,0,2.3,0,3.7,0
			c-1.5,2.2-2.9,4.1-4.3,6.1c1.1,0.3,1.2,0.3,3.8-1.6c-0.2,0.8-0.4,1.4-0.6,2.1C389.7,321.3,388.1,321.3,386.2,321.3z"/>
		<path d="M401.9,321.3c-0.1,0-0.3,0-0.5,0c-0.4,0-0.9,0-1.6,0c1-1,1.8-1.8,2.7-2.6c0.4-0.3,0.4-0.7,0.3-1.1
			c-0.2-0.4-0.3-0.9-0.5-1.4c-0.2-0.5-0.6-1-0.8-1.5c0.8,0,1.8,0,3,0c-0.4,0.2-0.6,0.3-0.9,0.5c0.2,0.6,0.3,1.1,0.5,1.9
			c0.6-0.7,1.1-1.2,1.7-1.8c-0.2-0.2-0.4-0.3-0.7-0.5c0.8,0,1.4,0,2,0c-0.1-0.1-0.2-0.1-0.3-0.2c-0.7,0.9-1.4,1.7-2.1,2.6
			c-0.1,0.2-0.4,0.5-0.3,0.6c0.5,1.2,0.3,2.7,1.7,3.5c-1,0-1.9,0-3,0c1.2-0.8,0.3-1.5,0.2-2.6c-0.6,0.7-1.1,1.1-1.5,1.7
			C401.6,320.5,401.8,320.9,401.9,321.3z"/>
		<path d="M280.3,318.8c-0.6,0.6-1.1,1.2-1.6,1.8c0.3,0.2,0.5,0.4,0.9,0.6c-0.9,0-1.6,0-2.2,0c0.8-0.8,1.5-1.7,2.3-2.5
			c0.4-0.4,0.5-0.7,0.3-1.2c-0.2-0.4-0.2-0.8-0.4-1.1c-0.3-0.6-0.6-1.1-0.9-1.7c0.8,0,1.8,0,2.9,0c-1.4,0.6-0.4,1.4-0.4,2.4
			c0.7-0.7,1.2-1.3,1.7-1.9c-0.3-0.2-0.4-0.3-0.8-0.5c0.8,0,1.5,0,2.1,0c-0.8,0.8-1.7,1.6-2.5,2.5c-0.2,0.2-0.3,0.5-0.3,0.6
			c0.5,1.1,0.3,2.6,1.7,3.4c-1,0-1.9,0-2.9,0C281.1,320.7,281.1,320.3,280.3,318.8z"/>
		<path d="M292.9,318.8c-0.5,0.5-0.9,1-1.2,1.4c-0.1,0.1-0.2,0.3-0.3,0.5c0.2,0.2,0.4,0.3,0.7,0.6c-0.8,0-1.5,0-2.2,0
			c0.8-0.8,1.5-1.7,2.3-2.5c0.4-0.4,0.5-0.8,0.3-1.3c-0.2-0.5-0.3-1-0.5-1.5c-0.2-0.4-0.5-0.8-0.8-1.3c0.8,0,1.7,0,2.8,0
			c-0.8,0.5-0.8,0.8-0.1,2.2c0.5-0.5,0.9-1,1.3-1.5c0.1-0.2-0.1-0.5-0.1-0.8c0.5,0,1.1,0,1.8,0c-0.8,0.8-1.7,1.6-2.5,2.5
			c-0.2,0.2-0.3,0.6-0.2,0.9c0.1,0.5,0.3,1.1,0.5,1.5c0.3,0.6,0.6,1.1,0.9,1.6c-0.8,0-1.8,0-2.8,0
			C293.7,320.7,293.7,320.4,292.9,318.8z"/>
		<path d="M248.3,319.6c0,1.5-0.2,1.7-1.5,1.7c-1.4,0-2.7,0-4.1-0.1c0.7-0.2,0.8-0.8,0.8-1.4c0-1.3,0-2.5,0-3.8
			c0-0.6-0.1-1.1-0.8-1.3c1.7,0,3.4,0,5.1,0c0,0.4,0,0.9,0,1.5c-0.7-1.8-2.1-0.9-3.3-1.1c0,0.9,0,1.6,0,2.4c1.6,0.3,2.1,0.2,2.7-0.9
			c0,0.9,0,1.6,0,2.6c-0.6-1.7-1.7-0.9-2.8-1.1c0,0.8,0,1.6,0,2.3c0,0.2,0.4,0.5,0.6,0.5c1.1,0.1,2.3,0.2,2.9-1.1
			C248.1,319.7,248.2,319.7,248.3,319.6z"/>
		<path d="M336.6,314.8c1.7,0,3.4,0,5.1,0c0,0.4,0,0.9,0,1.5c-0.7-1.8-2.1-0.9-3.3-1.1c0,0.9,0,1.6,0,2.4c1.6,0.4,2.1,0.2,2.7-0.9
			c0,0.9,0,1.6,0,2.6c-0.6-1.7-1.7-0.9-2.8-1.2c0,0.9,0,1.6,0,2.3c0,0.2,0.4,0.5,0.6,0.5c1.1,0.1,2.3,0.2,2.9-1.1
			c0-0.1,0.1-0.1,0.3-0.2c-0.1,0.6-0.2,1-0.4,1.4c0,0.1-0.3,0.3-0.4,0.3c-1.6,0-3.3,0-5-0.1c0.9-0.2,0.8-0.8,0.8-1.5
			c0-1.2,0-2.5,0-3.7C337.4,315.5,337.4,315,336.6,314.8z"/>
		<path d="M373.6,318.1c0,0.8,0,1.6,0,2.3c0,0.2,0.4,0.5,0.6,0.5c1.2,0.1,2.4,0.2,3-1.3c0.1,0,0.1,0.1,0.2,0.1
			c-0.1,0.5-0.3,1.1-0.4,1.6c-1.8,0-3.5,0-5.4,0c1.1-0.4,0.9-1.2,0.9-2c0-1.1,0-2.2,0-3.3c0-0.6,0-1.1-0.8-1.2c1.7,0,3.4,0,5.1,0
			c0,0.4,0,0.9,0,1.5c-0.7-1.8-2.1-0.9-3.3-1.2c0,0.9,0,1.6,0,2.4c1.6,0.3,2.1,0.2,2.7-0.9c0,0.8,0,1.5,0,2.5
			C375.7,317.6,374.6,318.3,373.6,318.1z"/>
		<path d="M413.4,321.3c-1,0-2,0-3,0c0.9-0.3,0.6-0.9,0.4-1.5c-0.4-1-0.8-1.9-1.2-3.1c-0.5,1.4-1,2.5-1.3,3.6
			c-0.1,0.2,0.3,0.6,0.5,1c-0.5,0-1.2,0-1.7,0c0.4-0.7,0.8-1.3,1.1-2c0.7-1.6,1.2-3.2,2-5c0.2,0.4,0.4,0.6,0.5,0.9
			c0.6,1.5,1.2,3,1.9,4.5C412.7,320.2,413.1,320.7,413.4,321.3z"/>
		<path d="M493.3,319.6c0.1,0.1,0.1,0.1,0.1,0.1c-0.3,1.6-0.3,1.6-1.9,1.6c-1.2,0-2.4,0-3.6,0c0,0-0.1,0-0.3-0.1
			c1-0.2,0.9-0.9,0.9-1.6c0-1.1,0-2.3,0-3.4c0-0.6,0-1.2-0.8-1.4c1.7,0,3.4,0,5.1,0c0,0.5,0,0.9,0,1.3c-0.7-1.7-2.1-0.7-3.3-1
			c0,0.9,0,1.6,0,2.4c1.6,0.3,2.1,0.2,2.7-0.8c0,0.8,0,1.5,0,2.5c-0.5-1.6-1.7-0.8-2.7-1.1c0,0.9,0,1.6,0,2.4c0,0.2,0.3,0.5,0.6,0.5
			c1.1,0.1,2.3,0.2,2.9-1.1C493.1,319.7,493.2,319.7,493.3,319.6z"/>
		<path d="M457.2,316.8c0,0.8,0,1.5,0,2.4c-0.6-1.6-1.7-0.9-2.7-1.1c0,0.7,0.1,1.3,0,1.9c-0.1,0.8,0.3,1,1,1c1.3,0,1.6-0.1,2.7-1.3
			c0.2,1.3-0.2,1.7-1.4,1.7c-1.4,0-2.7,0-4.2-0.1c1.1-0.3,0.8-1.1,0.8-1.8c0-1.1,0-2.2,0-3.3c0-0.9,0-0.9-0.9-1.3c1.9,0,3.6,0,5.3,0
			c0,0.5,0,0.9,0,1.3c-0.7-1.7-2.1-0.7-3.3-1c0,0.9,0,1.6,0,2.4C456,317.9,456.6,317.7,457.2,316.8z"/>
		<path d="M537.7,314.5c1,2.3,2,4.5,3,6.8c-0.8,0-1.8,0-2.8,0c0.9-0.3,0.6-0.9,0.4-1.5c-0.4-1-0.8-1.9-1.2-3.1
			c-0.5,1.4-0.9,2.5-1.3,3.7c-0.1,0.2,0.3,0.6,0.5,0.9c-0.5,0-1.2,0-2,0c1.1-0.9,1.3-2.2,1.8-3.3c0.5-1.2,0.9-2.3,1.4-3.5
			C537.5,314.5,537.6,314.5,537.7,314.5z"/>
		<path d="M300.2,314.5c1,2.3,2,4.5,2.9,6.8c-0.8,0-1.8,0-2.8,0c0.9-0.4,0.6-0.9,0.4-1.5c-0.4-0.9-0.7-1.9-1.2-3.1
			c-0.5,1.4-0.9,2.5-1.3,3.7c-0.1,0.2,0.3,0.6,0.5,0.9c-0.5,0-1.2,0-1.9,0c1.3-1.3,1.5-3.1,2.2-4.6c0.3-0.7,0.6-1.4,0.9-2.2
			C300,314.5,300.1,314.5,300.2,314.5z"/>
		<path d="M481.4,322.1c-1.9,0-3.3-1.4-3.3-3.3c0-1.8,1.5-3.3,3.3-3.3c1.9,0,3.2,1.4,3.2,3.3C484.6,320.7,483.2,322.1,481.4,322.1z
			 M483.9,318.9c0-1.5-1.1-2.6-2.5-2.6c-1.4,0-2.6,1.2-2.6,2.5c0,1.4,1.2,2.6,2.6,2.6C482.7,321.4,483.9,320.3,483.9,318.9z"/>
		<path d="M365.4,322.1c-1.9,0-3.3-1.4-3.3-3.3c0-1.9,1.5-3.3,3.3-3.3c1.9,0,3.3,1.5,3.2,3.3C368.6,320.7,367.2,322.1,365.4,322.1z
			 M365.3,321.4c1.4,0,2.6-1.2,2.6-2.6c0-1.3-1.2-2.6-2.6-2.6c-1.4,0-2.6,1.2-2.6,2.6C362.8,320.2,364,321.4,365.3,321.4z"/>
		<path d="M271.4,322.1c-1.9,0-3.3-1.4-3.3-3.3c0-1.9,1.5-3.3,3.3-3.3c1.9,0,3.3,1.5,3.2,3.3C274.7,320.7,273.2,322.1,271.4,322.1z
			 M271.4,321.4c1.4,0,2.6-1.3,2.6-2.6c0-1.4-1.3-2.5-2.6-2.5c-1.4,0-2.6,1.3-2.6,2.7C268.9,320.2,270.1,321.4,271.4,321.4z"/>
		<path d="M250.5,325.4c0-4.4,0-8.8,0-13.2c0.6,0,1.3,0,2,0c0,0.1,0,0.1,0,0.2c-0.4,0.1-0.7,0.1-1.2,0.2c0,4.1,0,8.3,0,12.5
			c0.4,0,0.8,0.1,1.2,0.1c0,0.1,0,0.1,0,0.2C251.8,325.4,251.2,325.4,250.5,325.4z"/>
		<path d="M262.4,312.5c-0.4-0.1-0.8-0.1-1.2-0.2c0-0.1,0-0.1,0-0.2c0.6,0,1.2,0,1.9,0c0,4.3,0,8.7,0,13.2c-0.6,0-1.3,0-1.9,0
			c0-0.1,0-0.1,0-0.2c0.4-0.1,0.7-0.1,1.2-0.2C262.4,320.9,262.4,316.7,262.4,312.5z"/>
		<path d="M345.3,325.1c0.4,0,0.8,0.1,1.1,0.1c0,0.1,0,0.1,0,0.2c-0.6,0-1.3,0-2,0c0-4.4,0-8.8,0-13.2c0.7,0,1.3,0,2,0
			c0,0.1,0,0.1,0,0.2c-0.4,0.1-0.7,0.1-1.2,0.2C345.3,316.7,345.3,320.8,345.3,325.1z"/>
		<path d="M385.2,325.1c0.4,0,0.8,0.1,1.1,0.1c0,0.1,0,0.1,0,0.2c-0.6,0-1.3,0-2,0c0-4.3,0-8.7,0-13.2c0.6,0,1.3,0,1.9,0
			c0,0.1,0,0.1,0,0.2c-0.4,0-0.7,0.1-1.1,0.2C385.2,316.7,385.2,320.8,385.2,325.1z"/>
		<path d="M398.2,325.4c-0.7,0-1.3,0-1.9,0c0-0.1,0-0.1,0-0.2c0.4,0,0.7-0.1,1.2-0.1c0-4.2,0-8.3,0-12.5c-0.4,0-0.8-0.1-1.1-0.1
			c0-0.1,0-0.1,0-0.2c0.6,0,1.3,0,2,0C398.2,316.6,398.2,321,398.2,325.4z"/>
		<path d="M473.2,325.4c-0.7,0-1.3,0-1.9,0c0-0.1,0-0.1,0-0.2c0.4,0,0.7-0.1,1.2-0.1c0-4.2,0-8.3,0-12.5c-0.4,0-0.8-0.1-1.1-0.1
			c0-0.1,0-0.1,0-0.2c0.6,0,1.3,0,1.9,0C473.2,316.6,473.2,321,473.2,325.4z"/>
		<path d="M520.3,325.4c-0.7,0-1.3,0-1.9,0c0-0.1,0-0.1,0-0.2c0.4,0,0.7-0.1,1.2-0.1c0-4.2,0-8.3,0-12.5c-0.4,0-0.8-0.1-1.1-0.1
			c0-0.1,0-0.1,0-0.2c0.6,0,1.3,0,2,0C520.3,316.6,520.3,321,520.3,325.4z"/>
		<path d="M252.8,317c0.5-0.1,1-0.2,1.5-0.3c0.2,1,0.5,2.1,0.7,3.1c0.8-0.9,0.8-1.2,0.4-2.2c-0.1-0.2-0.1-0.5,0-0.7
			c0.1-0.1,0.5-0.2,0.6-0.2c0.2,0.1,0.4,0.4,0.5,0.6c0,0.3,0,0.7-0.2,1c-0.8,1.4-1.5,2.8-2.4,4.1c-0.3,0.4-0.9,0.6-1.4,0.8
			c-0.2,0.1-0.5-0.1-0.6-0.3c-0.1-0.2-0.1-0.6,0.1-0.7c0.1-0.1,0.5-0.2,0.7-0.1c0.8,0.2,1.5-0.1,1.4-0.9
			C253.9,319.9,253.8,318.3,252.8,317z"/>
		<path d="M346.7,317c0.6-0.1,1-0.2,1.6-0.2c0.2,1,0.5,2.1,0.7,3.1c0.3-0.7,1.4-1.3,0.4-2.2c-0.1-0.1-0.1-0.5,0-0.7
			c0.1-0.1,0.4-0.2,0.6-0.2c0.2,0.1,0.4,0.3,0.4,0.5c0,0.4,0,0.8-0.2,1.1c-0.7,1.4-1.5,2.7-2.4,4c-0.3,0.4-0.9,0.7-1.4,0.9
			c-0.2,0.1-0.6-0.1-0.7-0.2c-0.1-0.1-0.1-0.6,0-0.7c0.2-0.1,0.5-0.2,0.8-0.1c0.7,0.2,1.4-0.1,1.3-0.8c-0.1-1.3-0.4-2.6-0.7-3.8
			C347.2,317.4,347,317.3,346.7,317z"/>
		<path d="M462.8,317c0.5-0.1,1-0.2,1.5-0.3c0.2,1,0.5,2.1,0.7,3.1c0.8-0.9,0.8-1.2,0.4-2.2c-0.1-0.2-0.1-0.5,0-0.7
			c0.1-0.1,0.5-0.2,0.6-0.2c0.2,0.1,0.4,0.4,0.5,0.6c0,0.3,0,0.7-0.2,1c-0.8,1.4-1.5,2.8-2.4,4.1c-0.3,0.4-0.9,0.6-1.4,0.8
			c-0.2,0.1-0.5-0.1-0.6-0.3c-0.1-0.2-0.1-0.6,0.1-0.7c0.1-0.1,0.5-0.2,0.7-0.1c0.8,0.2,1.5-0.1,1.4-0.9
			C463.8,319.9,463.8,318.3,462.8,317z"/>
		<path d="M357.2,325.4c-0.7,0-1.3,0-1.9,0c0-0.1,0-0.1,0-0.2c0.4,0,0.7-0.1,1.2-0.1c0-0.3,0-0.6,0-0.9c0-3.5,0-7.1,0-10.6
			c0-0.8-0.1-1.2-1-1.1c-0.1,0-0.2-0.1-0.3-0.3c0.6,0,1.2,0,1.9,0C357.2,316.6,357.2,321,357.2,325.4z"/>
		<path d="M461.2,312.5c0,4.2,0,8.3,0,12.5c0.4,0,0.8,0.1,1.2,0.1c0,0.1,0,0.1,0,0.2c-0.6,0-1.3,0-1.9,0c0-4.3,0-8.7,0-13.2
			c0.6,0,1.3,0,1.9,0c0,0.1,0,0.1,0,0.2C462.1,312.4,461.7,312.5,461.2,312.5z"/>
		<path d="M495.6,312.2c0.7,0,1.3,0,1.9,0c0,0.1,0,0.1,0,0.2c-0.4,0.1-0.8,0.1-1.2,0.2c0,4.2,0,8.3,0,12.5c0.4,0,0.8,0.1,1.2,0.1
			c0,0.1,0,0.1,0,0.2c-0.6,0-1.3,0-1.9,0C495.6,321,495.6,316.6,495.6,312.2z"/>
		<path d="M320.8,316.6c0.1-1.2,0.5-1.8,1.4-1.9c0.7-0.1,1.4-0.1,1.9,0.6c0.5,0.7,0.5,1.4,0.1,2.1c-0.5,0.8-1.1,1.5-1.7,2.2
			c-0.2,0.3-0.5,0.5-0.8,0.8c1.7,0.3,2.3,0.2,3.1-0.4c-0.3,1.4-0.3,1.4-1.5,1.4c-0.9,0-1.8,0-3,0c0.7-0.8,1.3-1.4,1.9-2
			c0.5-0.6,0.9-1.2,1.2-1.9c0.4-0.9,0.1-1.6-0.7-1.9c-0.7-0.3-1.2-0.1-1.8,0.8C321,316.4,320.9,316.5,320.8,316.6z"/>
		<path d="M451.6,325.5c-3.6-3.1-3.6-10.6,0-13.4C449.1,316.6,449.1,321,451.6,325.5z"/>
		<path d="M304.6,312.1c3.6,3.1,3.6,10,0.1,13.3C307,321,307.1,316.7,304.6,312.1z"/>
		<path d="M335.5,312.3c-1.3,2-1.7,4.2-1.7,6.5c0,2.3,0.4,4.5,1.8,6.5C332,322.5,332,314.8,335.5,312.3z"/>
		<path d="M425.7,325.3c2.3-5.3,2.3-7.9-0.1-13c1,0.4,2.2,2.6,2.5,4.6C428.6,320.1,428,323,425.7,325.3z"/>
		<path d="M241.6,312.2c-1.3,2-1.7,4.2-1.7,6.6c0,2.3,0.4,4.6,1.8,6.5C238.3,323,237.8,315.5,241.6,312.2z"/>
		<path d="M553,325.5c2.5-4.5,2.5-8.9,0-13.4C556.5,314.9,556.5,322.7,553,325.5z"/>
		<path d="M314.9,318.4c0.9,0.1,1.7,0.1,2.5,0.2c0,0,0,0.3,0.1,0.5c-0.8,0-1.6,0-2.4,0c-0.1,0.9-0.2,1.7-0.3,2.6c0,0-0.2,0-0.5,0
			c0-0.8,0-1.6,0-2.5c-0.9-0.1-1.7-0.2-2.5-0.3c0,0,0-0.3,0-0.5c0.8,0,1.6,0,2.5,0c0-0.9,0-1.7,0-2.5c0.7,0,0.7,0,0.7,0.9
			C314.9,317.4,314.9,317.9,314.9,318.4z"/>
		<path d="M330.3,321.3c-0.7,0-1.4,0-2.1,0c1-1,0.4-2.3,0.5-3.5c0-0.2-0.3-0.4-0.5-0.6c0.4-0.1,0.8-0.3,1.3-0.5
			c0.1,0.2,0.1,0.4,0.1,0.6c0.3-0.2,0.6-0.4,1-0.5c0.2-0.1,0.5,0.1,0.6,0.3c0.1,0.1,0.1,0.5,0,0.5c-0.2,0.1-0.5,0.1-0.7,0
			c-0.6-0.4-0.9,0.1-0.9,0.5c-0.1,0.8-0.1,1.7,0,2.5C329.7,320.9,330.1,321.1,330.3,321.3z"/>
		<path d="M235.7,316.7c0.1,0.3,0.1,0.4,0.1,0.6c0.3-0.2,0.6-0.4,1-0.5c0.2-0.1,0.5,0.1,0.6,0.3c0.1,0.1,0.1,0.5,0,0.5
			c-0.2,0.1-0.5,0.1-0.7,0c-0.7-0.4-0.9,0.1-0.9,0.6c-0.1,0.8-0.1,1.6,0,2.4c0,0.3,0.4,0.5,0.6,0.8c-0.6,0-1.3,0-2.1,0
			c0.9-0.8,0.9-3.5-0.1-4C234.7,317.1,235.1,316.9,235.7,316.7z"/>
		<path d="M442.8,315.6c0,0.5,0,0.8,0.1,1.2c0.3,0.1,0.6,0.1,1,0.2c0,0.1,0,0.1,0,0.2c-0.3,0-0.6,0.1-1,0.1c0,0.8,0,1.7,0,2.5
			c0,1,0.2,1.2,1.2,0.8c-0.3,0.7-0.8,1-1.4,0.7c-0.3-0.1-0.6-0.7-0.6-1c-0.1-0.8,0-1.6-0.1-2.5c0-0.3-0.2-0.5-0.4-0.9
			C441.8,316.6,442.3,316.1,442.8,315.6z"/>
		<path d="M445.6,316.7c0.1,0.3,0.1,0.4,0.2,0.6c0.3-0.2,0.6-0.4,1-0.5c0.2,0,0.5,0.2,0.6,0.3c0.1,0.1,0,0.5-0.1,0.5
			c-0.1,0.1-0.4,0.1-0.6,0c-0.6-0.4-0.9,0.1-0.9,0.5c-0.1,0.8-0.1,1.7,0,2.6c0,0.2,0.3,0.4,0.6,0.7c-0.7,0-1.4,0-2.1,0
			c0.9-0.8,0.9-3.5,0-4C444.6,317.1,445.1,316.9,445.6,316.7z"/>
		<path d="M328.1,320.5c-0.3,0.8-0.9,1.1-1.4,0.9c-0.3-0.1-0.6-0.7-0.6-1c-0.1-0.8,0-1.6-0.1-2.5c0-0.3-0.2-0.5-0.4-0.9
			c0.3-0.3,0.7-0.8,1.2-1.3c0,0.4,0.1,0.8,0.1,1.1c0.3,0.1,0.6,0.1,0.9,0.2c0,0.1,0,0.1,0,0.2c-0.3,0.1-0.6,0.1-1,0.2
			c0,0.9,0,1.9,0,2.9C326.9,321,327.4,321,328.1,320.5z"/>
		<path d="M231.6,316.9c0.3-0.3,0.7-0.8,1.2-1.3c0,0.4,0.1,0.8,0.1,1.1c0.3,0.1,0.6,0.1,1,0.2c0,0.1,0,0.1,0,0.2
			c-0.3,0.1-0.6,0.1-1,0.2c0,0.9,0,1.8,0,2.6c0,0.9,0.3,1.1,1.2,0.6c-0.2,0.7-0.7,0.9-1.2,0.8c-0.3-0.1-0.7-0.6-0.8-0.9
			c-0.1-0.8,0-1.7-0.1-2.6C231.9,317.6,231.7,317.3,231.6,316.9z"/>
		<path d="M284.8,313.6c0-0.3,0-0.6,0.1-1c1.3,0,2.6,0,3.9,0c0,0.3,0,0.7,0.1,0.9c-0.5-0.3-1-0.5-1.4-0.8c-0.1,0.1-0.2,0.2-0.2,0.2
			c0.2,1.4-0.4,2.8,0.4,4.2c-0.5,0-1,0-1.5,0c0.1-0.4,0.3-0.8,0.3-1.2c0.1-0.8,0-1.5,0-2.3c0-0.3-0.2-0.5-0.3-0.8
			c-0.3,0.1-0.7,0.3-1,0.4c-0.1,0-0.1,0.2-0.2,0.4C285,313.7,284.9,313.7,284.8,313.6z"/>
		<path d="M532,313.7c0.2,1.4-0.3,2.9,0.4,4.2c-0.4,0-1,0-1.4,0c0.1-0.5,0.3-1,0.3-1.5c0.1-0.7,0-1.4,0-2c0-0.3-0.2-0.6-0.3-0.8
			c-0.3,0.2-0.7,0.3-1,0.5c-0.1,0.1-0.1,0.2-0.3,0.5c0-0.5,0-0.8,0-1.2c1.3,0,2.6,0,3.9,0c0,0.3,0,0.6,0.1,0.9
			c-0.5-0.3-0.9-0.5-1.4-0.8C532.1,313.5,532,313.6,532,313.7z"/>
		<path d="M379.1,312.7c-0.5,0.3-0.9,0.5-1.4,0.8c0-0.2,0.1-0.6,0.1-0.9c1.3,0,2.6,0,3.9,0c0,0.4,0,0.7,0,1.2
			c-0.2-0.3-0.2-0.5-0.3-0.6c-0.3-0.2-0.6-0.3-1-0.3c-0.1,0-0.3,0.5-0.3,0.7c0,0.7-0.1,1.4,0,2.1c0,0.5,0.2,0.9,0.3,1.4
			c-0.4,0-1,0-1.5,0c0.9-1.3,0.2-2.8,0.5-4.2C379.2,312.9,379.2,312.8,379.1,312.7z"/>
		<path d="M503.8,314.3c0-0.3,0.1-0.7,0.1-1c1.3,0,2.6,0,3.9,0c0,0.4,0,0.7,0.1,1.1c-0.4-0.3-0.6-0.6-1-0.8c-0.4-0.2-0.7,0-0.7,0.5
			c0,0.9,0,1.9,0,2.8c0,0.3,0.3,0.6,0.4,0.9c-0.5,0-1.1,0-1.5,0c0.1-0.4,0.3-0.8,0.3-1.2c0.1-0.8,0-1.5,0-2.3c0-0.3-0.2-0.5-0.3-0.8
			c-0.3,0.1-0.7,0.3-1,0.5c-0.1,0-0.1,0.2-0.1,0.4C503.9,314.4,503.8,314.3,503.8,314.3z"/>
		<path d="M438.1,319.1c-1.8,0-3.5,0-5.6,0c0.3-0.3,0.5-0.6,0.6-0.6c1.5,0,3.1,0,4.6,0c0.2,0,0.4,0.2,0.6,0.4
			C438.2,318.9,438.2,319,438.1,319.1z"/>
		<path d="M506.1,322c-0.5,0.7-1.3,0.9-1.8,0.6c-0.4-0.3-0.5-1.2-0.1-1.9c0.4-0.8,1.2-1.2,1.9-1.1c0.2,0,0.4,0.3,0.6,0.5
			c-0.1,0.1-0.2,0.3-0.3,0.4c-0.1-0.2-0.2-0.4-0.4-0.6c-0.9,0.1-1.8,1.4-1.3,2.2c0.1,0.2,0.5,0.3,0.8,0.3
			C505.6,322.4,505.8,322.1,506.1,322z"/>
		<path d="M353.1,319.8c-0.9,0.1-1.7,1.3-1.3,2.1c0.1,0.2,0.5,0.3,0.9,0.4c0.2,0,0.4-0.2,0.8-0.4c-0.5,0.9-1.2,1-1.8,0.7
			c-0.7-0.3-0.6-1-0.4-1.6c0.2-0.9,1.1-1.6,2-1.5c0.1,0,0.2,0,0.2,0c0.1,0.2,0.3,0.4,0.4,0.6c0,0-0.2,0.2-0.3,0.3
			C353.3,320.3,353.2,320.1,353.1,319.8z"/>
		<path d="M395.1,321.8c-0.7,0.9-1.5,1.1-2,0.8c-0.5-0.3-0.6-1.2-0.2-1.9c0.4-0.7,1-1.2,1.8-1c0.2,0,0.5,0.3,0.7,0.5
			c0,0-0.1,0.2-0.2,0.4c-0.2-0.2-0.3-0.4-0.5-0.6c-0.9,0.1-1.7,1.4-1.3,2.2c0.1,0.2,0.5,0.3,0.8,0.3
			C394.4,322.4,394.7,322.1,395.1,321.8z"/>
		<path d="M423.3,319.8c-0.9,0.1-1.8,1.5-1.3,2.3c0.1,0.2,0.5,0.3,0.8,0.3c0.3,0,0.5-0.3,0.7-0.4c-0.3,0.7-1,1-1.6,0.7
			c-0.7-0.3-0.7-0.9-0.5-1.4c0.2-1,1.1-1.7,2-1.6c0.1,0,0.3,0,0.4,0.1c0.1,0.2,0.2,0.4,0.3,0.6c0,0.1-0.2,0.2-0.3,0.2
			C423.6,320.3,423.4,320.1,423.3,319.8z"/>
		<path d="M517.1,321.9c-0.6,0.9-1.4,1.1-2,0.7c-0.7-0.5-0.5-1.1-0.3-1.8c0.3-0.8,1.1-1.3,1.9-1.2c0.1,0,0.3,0,0.4,0.1
			c0.1,0.2,0.2,0.4,0.3,0.6c0,0.1-0.2,0.2-0.3,0.2c-0.1-0.2-0.3-0.4-0.4-0.6c-0.9,0.1-1.8,1.5-1.3,2.3c0.1,0.2,0.5,0.3,0.8,0.3
			C516.5,322.3,516.7,322.1,517.1,321.9z"/>
		<path d="M469,319.8c-0.8,0.2-1.6,1.3-1.3,2.1c0.1,0.5,0.5,0.7,1,0.5c0.2-0.1,0.4-0.3,0.7-0.5c-0.4,0.9-1.1,1-1.7,0.8
			c-0.7-0.2-0.7-0.8-0.6-1.4c0.2-1,1.1-1.7,2-1.7c0.1,0,0.3,0,0.4,0.1c0.1,0.2,0.2,0.4,0.3,0.6c0,0.1-0.3,0.2-0.3,0.2
			C469.3,320.3,469.2,320.1,469,319.8z"/>
		<path d="M531.9,321.9c-0.4,0.8-1,1-1.7,0.8c-0.7-0.2-0.6-0.8-0.6-1.3c0.1-1.1,1.1-1.8,2.1-1.7c0.1,0,0.3,0,0.4,0.1
			c0.1,0.2,0.2,0.4,0.3,0.6c0,0.1-0.3,0.2-0.3,0.2c-0.2-0.2-0.3-0.4-0.5-0.6c-0.8,0-1.7,1.3-1.3,2.1c0.2,0.4,0.5,0.6,0.9,0.4
			C531.5,322.2,531.7,322.1,531.9,321.9z"/>
		<path d="M259,319.8c-0.8,0.1-1.7,1.3-1.3,2.1c0.1,0.2,0.6,0.4,0.9,0.4c0.2,0,0.4-0.3,0.7-0.5c-0.3,0.8-0.9,0.9-1.6,0.9
			c-0.7-0.1-0.7-0.7-0.7-1.2c0.1-1.1,1-1.9,2-1.9c0.1,0,0.2,0,0.3,0c0.2,0.2,0.4,0.3,0.6,0.5c0,0-0.2,0.2-0.3,0.3
			C259.4,320.3,259.2,320.1,259,319.8z"/>
		<path d="M550.5,319.9c-0.7,0.2-1.4,1.2-1.2,2c0.1,0.5,0.5,0.8,1,0.5c0.2-0.1,0.4-0.3,0.7-0.5c-0.5,0.9-1.1,1-1.8,0.8
			c-0.7-0.2-0.6-0.9-0.5-1.4c0.2-1.1,1.3-1.9,2.2-1.6c0.2,0.1,0.4,0.3,0.5,0.5c0,0-0.1,0.2-0.2,0.3
			C551.1,320.3,550.9,320.1,550.5,319.9z"/>
		<path d="M481.4,317.8c0.3,0.5,0.6,0.8,0.5,1c0,0.2-0.4,0.4-0.6,0.6c-0.2-0.2-0.5-0.4-0.5-0.7C480.8,318.5,481.1,318.3,481.4,317.8
			z"/>
		<path d="M365.2,319.6c-0.1-0.2-0.4-0.5-0.4-0.7c0-0.2,0.4-0.4,0.6-0.7c0.2,0.2,0.5,0.4,0.6,0.7c0,0.2-0.3,0.5-0.4,0.7
			C365.4,319.6,365.3,319.6,365.2,319.6z"/>
		<path d="M272.3,318.8c-0.5,0.3-0.7,0.6-0.9,0.6c-0.2,0-0.6-0.4-0.6-0.6c0-0.2,0.3-0.6,0.6-0.6
			C271.6,318.2,271.9,318.5,272.3,318.8z"/>
	</g>
</g>
</svg>
